<svg width="25" height="25" viewBox="0 0 25 25" fill="none" xmlns="http://www.w3.org/2000/svg">
<g clip-path="url(#clip0_56_664)">
<path d="M6.76128 15.2383C6.76128 15.2383 3.2994 17.5246 2.10219 19.5836C1.24198 21.0629 0.647167 23.4743 0.460258 24.2976C0.426772 24.4451 0.534157 24.5836 0.678884 24.5836H24.292C24.4272 24.5836 24.5317 24.4611 24.5124 24.3208C24.4109 23.5837 24.0558 21.4549 23.1817 20.0002C21.7754 17.6595 19.6296 16.0018 17.2158 14.8812C15.757 14.2039 11.4772 14.1802 10.909 14.0479" stroke="#6B9080" stroke-linecap="round"/>
<path d="M18.5794 7.26174C18.5794 11.0488 15.6988 14.107 12.159 14.107C8.61923 14.107 5.73853 11.0488 5.73853 7.26174C5.73853 3.47471 8.61923 0.416504 12.159 0.416504C15.6988 0.416504 18.5794 3.47471 18.5794 7.26174Z" stroke="#6B9080"/>
</g>
<defs>
<clipPath id="clip0_56_664">
<rect width="25" height="25" fill="white"/>
</clipPath>
</defs>
</svg>
