<svg  viewBox="0 0 1440 1024" fill="none" xmlns="http://www.w3.org/2000/svg">
<g clip-path="url(#clip0_24_55)">
<path opacity="0.2" d="M124.316 662.714C28.6358 750.216 -5.68445 968.214 -5.68445 968.214V1015.21H1441.32V-9.28589H1260.82C1260.82 -9.28589 1192.12 170.287 1101.82 244.714C1007 322.856 905.67 280.432 806.316 352.714C701.25 429.151 713.813 545.979 605.816 618.214C448.851 723.201 263.667 535.273 124.316 662.714Z" fill="#CCE3DE"/>
<path opacity="0.1" d="M-3 661.5V1022H1437V1.5H1066.5C1066.5 1.5 983.156 94.5306 918 139.5C806.594 216.39 703.466 181.766 593 260C444.054 365.486 495.737 570.65 329.5 646C211.104 699.665 -3 661.5 -3 661.5Z" fill="#6B9080"/>
</g>
<defs>
<clipPath id="clip0_24_55">
<rect width="1447" height="1024" fill="white" transform="translate(-6)"/>
</clipPath>
</defs>
</svg>
