<svg width="50" height="50" viewBox="0 0 50 50" fill="none" xmlns="http://www.w3.org/2000/svg">
<path d="M22.916 4.16669H18.7493C8.33268 4.16669 4.16602 8.33335 4.16602 18.75V31.25C4.16602 41.6667 8.33268 45.8334 18.7493 45.8334H31.2493C41.666 45.8334 45.8327 41.6667 45.8327 31.25V27.0834" stroke="#EAF4F4" stroke-linecap="round" stroke-linejoin="round"/>
<path d="M33.4169 6.29116L17.0002 22.7079C16.3752 23.3329 15.7502 24.5621 15.6252 25.4579L14.7294 31.7287C14.3961 33.9996 16.0002 35.5829 18.2711 35.2704L24.5419 34.3746C25.4169 34.2496 26.6461 33.6246 27.2919 32.9996L43.7086 16.5828C46.5419 13.7495 47.8753 10.4578 43.7086 6.29116C39.5419 2.12449 36.2503 3.45782 33.4169 6.29116Z" stroke="#EAF4F4" stroke-miterlimit="10" stroke-linecap="round" stroke-linejoin="round"/>
<path opacity="0.4" d="M31.0625 8.64563C32.4583 13.6248 36.3542 17.5206 41.3542 18.9373" stroke="#EAF4F4" stroke-miterlimit="10" stroke-linecap="round" stroke-linejoin="round"/>
</svg>
