<svg width="132" height="136" viewBox="0 0 132 136" fill="none" xmlns="http://www.w3.org/2000/svg">
<g clip-path="url(#clip0_270_2469)">
<path fill-rule="evenodd" clip-rule="evenodd" d="M47.2692 27.0292C63.4391 19.4895 83.1677 22.5288 96.4814 36.1798L112.95 53.0648C113.115 53.2344 113.279 53.4021 113.441 53.5681C115.675 55.8522 117.603 57.8253 118.77 60.0731C121.341 65.0287 121.341 70.9709 118.77 75.926C117.603 78.1738 115.675 80.147 113.441 82.4308C113.279 82.5973 113.115 82.7649 112.95 82.9342L112.664 83.2273C110.522 85.4238 107.048 85.4238 104.906 83.2273C102.763 81.0301 102.763 77.4689 104.906 75.2724L105.191 74.9793C108.2 71.8946 108.795 71.1965 109.084 70.6419C109.94 68.9898 109.94 67.0093 109.084 65.3572C108.795 64.8026 108.2 64.1045 105.191 61.0198L88.7229 44.1347C78.7481 33.9075 63.9537 31.6084 51.8114 37.27C49.0533 38.556 45.8006 37.306 44.5463 34.4781C43.2921 31.6502 44.5112 28.3152 47.2692 27.0292Z" fill="#EC0E0E"/>
<path fill-rule="evenodd" clip-rule="evenodd" d="M13.2347 25.9023C15.0949 23.4501 18.5417 23.0084 20.9334 24.9156L119.683 103.666C122.075 105.573 122.506 109.107 120.645 111.559C118.786 114.011 115.339 114.453 112.947 112.546L96.703 99.5921L96.4808 99.8199C79.3417 117.394 51.5525 117.394 34.4128 99.8199L22.5196 87.6255C19.0806 84.0997 16.1173 81.0617 14.0635 78.3021C11.8625 75.3439 10.1959 72.0544 10.1959 67.9999C10.1959 63.9454 11.8625 60.6559 14.0635 57.6982C16.1173 54.9381 19.0805 51.9002 22.5196 48.3744L26.8765 43.9073L14.1971 33.7958C11.8054 31.8885 11.3746 28.3545 13.2347 25.9023ZM70.1508 78.4174L79.4163 85.8064C75.7071 88.7488 71.0527 90.4999 66 90.4999C53.8804 90.4999 44.0555 80.4266 44.0555 67.9999C44.0555 64.8184 44.6997 61.791 45.8615 59.0471L55.1325 66.4406C55.0634 66.9502 55.0278 67.4711 55.0278 67.9999C55.0278 74.2132 59.94 79.2499 66 79.2499C67.4692 79.2499 68.8703 78.954 70.1508 78.4174Z" fill="#EC0E0E"/>
</g>
<defs>
<clipPath id="clip0_270_2469">
<rect width="131.667" height="135" fill="white" transform="translate(0.166626 0.5)"/>
</clipPath>
</defs>
</svg>
