<svg width="17" height="17" viewBox="0 0 17 17" fill="none" xmlns="http://www.w3.org/2000/svg">
<path d="M11.9043 1.4082H5.14894C3.09256 1.4082 1.42554 3.00718 1.42554 4.97963V12.0715C1.42554 14.0439 3.09256 15.6429 5.14894 15.6429H11.9043C13.9606 15.6429 15.6277 14.0439 15.6277 12.0715V4.97963C15.6277 3.00718 13.9606 1.4082 11.9043 1.4082Z" stroke="#6B9080"/>
<path d="M8.4999 11.9696C10.4388 11.9696 12.0105 10.4619 12.0105 8.60221C12.0105 6.74248 10.4388 5.23486 8.4999 5.23486C6.56102 5.23486 4.98926 6.74248 4.98926 8.60221C4.98926 10.4619 6.56102 11.9696 8.4999 11.9696Z" stroke="#6B9080"/>
<path d="M13.0744 5.28594C13.6325 5.28594 14.085 4.85193 14.085 4.31656C14.085 3.78118 13.6325 3.34717 13.0744 3.34717C12.5162 3.34717 12.0637 3.78118 12.0637 4.31656C12.0637 4.85193 12.5162 5.28594 13.0744 5.28594Z" fill="#6B9080"/>
</svg>
