<svg width="57" height="15" viewBox="0 0 57 15" fill="none" xmlns="http://www.w3.org/2000/svg">
<path d="M6.566 11L3.262 6.66V11H0.868V1.172H3.262V5.484L6.538 1.172H9.352L5.544 5.988L9.492 11H6.566ZM10.1537 7.08C10.1537 6.27733 10.3031 5.57267 10.6017 4.966C10.9097 4.35933 11.3251 3.89267 11.8477 3.566C12.3704 3.23933 12.9537 3.076 13.5977 3.076C14.1484 3.076 14.6291 3.188 15.0397 3.412C15.4597 3.636 15.7817 3.93 16.0057 4.294V3.188H18.3997V11H16.0057V9.894C15.7724 10.258 15.4457 10.552 15.0257 10.776C14.6151 11 14.1344 11.112 13.5837 11.112C12.9491 11.112 12.3704 10.9487 11.8477 10.622C11.3251 10.286 10.9097 9.81467 10.6017 9.208C10.3031 8.592 10.1537 7.88267 10.1537 7.08ZM16.0057 7.094C16.0057 6.49667 15.8377 6.02533 15.5017 5.68C15.1751 5.33467 14.7737 5.162 14.2977 5.162C13.8217 5.162 13.4157 5.33467 13.0797 5.68C12.7531 6.016 12.5897 6.48267 12.5897 7.08C12.5897 7.67733 12.7531 8.15333 13.0797 8.508C13.4157 8.85333 13.8217 9.026 14.2977 9.026C14.7737 9.026 15.1751 8.85333 15.5017 8.508C15.8377 8.16267 16.0057 7.69133 16.0057 7.094ZM23.0997 3.076C23.6503 3.076 24.131 3.188 24.5417 3.412C24.9617 3.636 25.2837 3.93 25.5077 4.294V3.188H27.9017V10.986C27.9017 11.7047 27.757 12.3533 27.4677 12.932C27.1877 13.52 26.7537 13.9867 26.1657 14.332C25.587 14.6773 24.8637 14.85 23.9957 14.85C22.8383 14.85 21.9003 14.5747 21.1817 14.024C20.463 13.4827 20.0523 12.7453 19.9497 11.812H22.3157C22.3903 12.1107 22.5677 12.344 22.8477 12.512C23.1277 12.6893 23.473 12.778 23.8837 12.778C24.3783 12.778 24.7703 12.6333 25.0597 12.344C25.3583 12.064 25.5077 11.6113 25.5077 10.986V9.88C25.2743 10.244 24.9523 10.5427 24.5417 10.776C24.131 11 23.6503 11.112 23.0997 11.112C22.4557 11.112 21.8723 10.9487 21.3497 10.622C20.827 10.286 20.4117 9.81467 20.1037 9.208C19.805 8.592 19.6557 7.88267 19.6557 7.08C19.6557 6.27733 19.805 5.57267 20.1037 4.966C20.4117 4.35933 20.827 3.89267 21.3497 3.566C21.8723 3.23933 22.4557 3.076 23.0997 3.076ZM25.5077 7.094C25.5077 6.49667 25.3397 6.02533 25.0037 5.68C24.677 5.33467 24.2757 5.162 23.7997 5.162C23.3237 5.162 22.9177 5.33467 22.5817 5.68C22.255 6.016 22.0917 6.48267 22.0917 7.08C22.0917 7.67733 22.255 8.15333 22.5817 8.508C22.9177 8.85333 23.3237 9.026 23.7997 9.026C24.2757 9.026 24.677 8.85333 25.0037 8.508C25.3397 8.16267 25.5077 7.69133 25.5077 7.094ZM29.1576 7.08C29.1576 6.27733 29.307 5.57267 29.6056 4.966C29.9136 4.35933 30.329 3.89267 30.8516 3.566C31.3743 3.23933 31.9576 3.076 32.6016 3.076C33.1523 3.076 33.633 3.188 34.0436 3.412C34.4636 3.636 34.7856 3.93 35.0096 4.294V3.188H37.4036V11H35.0096V9.894C34.7763 10.258 34.4496 10.552 34.0296 10.776C33.619 11 33.1383 11.112 32.5876 11.112C31.953 11.112 31.3743 10.9487 30.8516 10.622C30.329 10.286 29.9136 9.81467 29.6056 9.208C29.307 8.592 29.1576 7.88267 29.1576 7.08ZM35.0096 7.094C35.0096 6.49667 34.8416 6.02533 34.5056 5.68C34.179 5.33467 33.7776 5.162 33.3016 5.162C32.8256 5.162 32.4196 5.33467 32.0836 5.68C31.757 6.016 31.5936 6.48267 31.5936 7.08C31.5936 7.67733 31.757 8.15333 32.0836 8.508C32.4196 8.85333 32.8256 9.026 33.3016 9.026C33.7776 9.026 34.179 8.85333 34.5056 8.508C34.8416 8.16267 35.0096 7.69133 35.0096 7.094ZM41.5296 4.294C41.7536 3.93 42.0756 3.636 42.4956 3.412C42.9156 3.188 43.3962 3.076 43.9376 3.076C44.5816 3.076 45.1649 3.23933 45.6876 3.566C46.2102 3.89267 46.6209 4.35933 46.9196 4.966C47.2276 5.57267 47.3816 6.27733 47.3816 7.08C47.3816 7.88267 47.2276 8.592 46.9196 9.208C46.6209 9.81467 46.2102 10.286 45.6876 10.622C45.1649 10.9487 44.5816 11.112 43.9376 11.112C43.3869 11.112 42.9062 11.0047 42.4956 10.79C42.0849 10.566 41.7629 10.272 41.5296 9.908V11H39.1356V0.64H41.5296V4.294ZM44.9456 7.08C44.9456 6.48267 44.7776 6.016 44.4416 5.68C44.1149 5.33467 43.7089 5.162 43.2236 5.162C42.7476 5.162 42.3416 5.33467 42.0056 5.68C41.6789 6.02533 41.5156 6.49667 41.5156 7.094C41.5156 7.69133 41.6789 8.16267 42.0056 8.508C42.3416 8.85333 42.7476 9.026 43.2236 9.026C43.6996 9.026 44.1056 8.85333 44.4416 8.508C44.7776 8.15333 44.9456 7.67733 44.9456 7.08ZM48.1615 7.08C48.1615 6.27733 48.3109 5.57267 48.6095 4.966C48.9175 4.35933 49.3329 3.89267 49.8555 3.566C50.3782 3.23933 50.9615 3.076 51.6055 3.076C52.1562 3.076 52.6369 3.188 53.0475 3.412C53.4675 3.636 53.7895 3.93 54.0135 4.294V3.188H56.4075V11H54.0135V9.894C53.7802 10.258 53.4535 10.552 53.0335 10.776C52.6229 11 52.1422 11.112 51.5915 11.112C50.9569 11.112 50.3782 10.9487 49.8555 10.622C49.3329 10.286 48.9175 9.81467 48.6095 9.208C48.3109 8.592 48.1615 7.88267 48.1615 7.08ZM54.0135 7.094C54.0135 6.49667 53.8455 6.02533 53.5095 5.68C53.1829 5.33467 52.7815 5.162 52.3055 5.162C51.8295 5.162 51.4235 5.33467 51.0875 5.68C50.7609 6.016 50.5975 6.48267 50.5975 7.08C50.5975 7.67733 50.7609 8.15333 51.0875 8.508C51.4235 8.85333 51.8295 9.026 52.3055 9.026C52.7815 9.026 53.1829 8.85333 53.5095 8.508C53.8455 8.16267 54.0135 7.69133 54.0135 7.094Z" fill="#6B9080"/>
</svg>
