<svg width="15" height="15" viewBox="0 0 15 15" fill="none" xmlns="http://www.w3.org/2000/svg">
<g clip-path="url(#clip0_56_668)">
<path d="M1.7669 3.46442C1.24722 3.46442 0.819937 3.30212 0.485032 2.97753C0.161677 2.64045 0 2.22847 0 1.74157C0 1.2422 0.161677 0.830214 0.485032 0.505618C0.819937 0.16854 1.24722 0 1.7669 0C2.27504 0 2.69077 0.16854 3.01413 0.505618C3.34904 0.830214 3.51648 1.2422 3.51648 1.74157C3.51648 2.22847 3.34904 2.64045 3.01413 2.97753C2.69077 3.30212 2.27504 3.46442 1.7669 3.46442ZM3.23932 4.55056V15H0.277161V4.55056H3.23932Z" fill="#6B9080"/>
<path d="M11.2757 4.43799C12.4074 4.43799 13.3082 4.83749 13.978 5.63649C14.6594 6.423 15 7.50915 15 8.89494V14.9998H12.0551V9.32565C12.0551 8.62653 11.8877 8.08343 11.5528 7.69641C11.2179 7.30939 10.7675 7.11589 10.2017 7.11589C9.63581 7.11589 9.18543 7.30939 8.85048 7.69641C8.5156 8.08343 8.34817 8.62653 8.34817 9.32565V14.9998H5.38599V4.55035H8.34817V5.93612C8.64839 5.47419 9.05263 5.11214 9.56073 4.84997C10.0688 4.57531 10.6405 4.43799 11.2757 4.43799Z" fill="#6B9080"/>
</g>
<defs>
<clipPath id="clip0_56_668">
<rect width="15" height="15" fill="white"/>
</clipPath>
</defs>
</svg>
