<svg width="461" height="488" viewBox="0 0 461 488" fill="none" xmlns="http://www.w3.org/2000/svg">
<path opacity="0.7" d="M266.283 464.346C265.366 464.164 264.585 463.564 264.173 462.725L170.507 271.87C169.242 269.293 165.429 269.793 164.871 272.608L132.724 434.819C132.402 436.444 130.824 437.501 129.198 437.179L38.9428 419.292C37.3175 418.97 36.2611 417.391 36.5832 415.766L113.441 27.9428C113.763 26.3175 115.342 25.2611 116.967 25.5832L207.222 43.4698C208.848 43.7919 209.904 45.3705 209.582 46.9957L177.661 208.071C177.102 210.888 180.44 212.804 182.591 210.901L340.614 71.1101C341.315 70.4897 342.266 70.2323 343.185 70.4144L448.647 91.3146C451.108 91.8024 451.919 94.9165 450.008 96.5424L265.382 253.605C264.323 254.506 264.022 256.018 264.655 257.256L379.514 481.832C380.655 484.063 378.718 486.628 376.26 486.14L266.283 464.346Z" fill="#6B9080"/>
<path opacity="0.8" d="M230.283 439.346C229.366 439.164 228.585 438.564 228.173 437.725L134.507 246.87C133.242 244.293 129.429 244.793 128.871 247.608L96.7243 409.819C96.4023 411.444 94.8236 412.501 93.1984 412.179L2.94277 394.292C1.31752 393.97 0.261101 392.391 0.583188 390.766L77.4408 2.94277C77.7629 1.31752 79.3416 0.261103 80.9668 0.583189L171.222 18.4698C172.848 18.7919 173.904 20.3705 173.582 21.9957L141.661 183.071C141.102 185.888 144.44 187.804 146.591 185.901L304.614 46.1101C305.315 45.4897 306.266 45.2323 307.185 45.4144L412.647 66.3146C415.108 66.8024 415.919 69.9165 414.008 71.5424L229.382 228.605C228.323 229.506 228.022 231.018 228.655 232.256L343.514 456.832C344.655 459.063 342.718 461.628 340.26 461.14L230.283 439.346Z" fill="#A4C3B2"/>
</svg>
