<svg width="24" height="24" viewBox="0 0 24 24" fill="none" xmlns="http://www.w3.org/2000/svg">
<path d="M18.3459 10.6788V15.0832C18.3459 15.3695 18.3349 15.6448 18.3018 15.9091C18.0486 18.8821 16.2978 20.3576 13.0715 20.3576H12.6311C12.3558 20.3576 12.0915 20.4897 11.9263 20.71L10.605 22.4718C10.0214 23.2535 9.07445 23.2535 8.49086 22.4718L7.16951 20.71C7.02636 20.5228 6.70705 20.3576 6.4648 20.3576H6.02437C2.5118 20.3576 0.75 19.4877 0.75 15.0832V10.6788C0.75 7.45251 2.23652 5.70173 5.19853 5.44847C5.4628 5.41544 5.73808 5.40442 6.02437 5.40442H13.0715C16.5841 5.40442 18.3459 7.16622 18.3459 10.6788Z" stroke="black" stroke-miterlimit="10" stroke-linecap="round" stroke-linejoin="round"/>
<path d="M22.7501 6.27437V10.6788C22.7501 13.9161 21.2636 15.6559 18.3016 15.9091C18.3346 15.6449 18.3456 15.3696 18.3456 15.0833V10.6788C18.3456 7.16627 16.5838 5.40447 13.0713 5.40447H6.02408C5.73779 5.40447 5.46251 5.4155 5.19824 5.44853C5.4515 2.48652 7.20228 1 10.4286 1H17.4758C20.9883 1 22.7501 2.7618 22.7501 6.27437Z" stroke="black" stroke-miterlimit="10" stroke-linecap="round" stroke-linejoin="round"/>
<path d="M13.4082 13.3876H13.4195" stroke="black" stroke-linecap="round" stroke-linejoin="round"/>
<path d="M9.55371 13.3876H9.56497" stroke="black" stroke-linecap="round" stroke-linejoin="round"/>
<path d="M5.70117 13.3876H5.71243" stroke="black" stroke-linecap="round" stroke-linejoin="round"/>
</svg>
