<svg width="26" height="20" viewBox="0 0 26 20" fill="none" xmlns="http://www.w3.org/2000/svg">
<g clip-path="url(#clip0_270_2473)">
<path d="M17.7538 7.14785C14.9995 5.46485 12.5443 5.23637 11.6496 5.21484L11.8181 1.35121C11.8181 0.79618 11.3099 0.452881 10.8383 0.452881C10.6149 0.452881 10.4105 0.525847 10.2492 0.662211L0.330785 8.96606C0.144648 9.12333 0.0418301 9.34764 0.0400574 9.59701C0.0382847 9.87275 0.16533 10.1484 0.37983 10.3351L10.2398 18.8554C10.4011 18.996 10.6138 19.0731 10.8389 19.0731C11.3099 19.0731 11.8181 18.7298 11.8181 18.1754L11.8234 12.6832C21.8558 12.8082 25.3954 19.2986 25.4303 19.3644C25.4828 19.4642 25.5851 19.5229 25.6914 19.5229C25.7286 19.5229 25.7671 19.5157 25.8037 19.5001C25.9438 19.4415 26.0176 19.2854 25.9744 19.1383C24.3051 13.4965 21.5397 9.46243 17.7538 7.14785ZM22.754 15.5647C20.6935 13.9762 17.073 12.0826 11.5279 12.0826C11.3648 12.0826 11.2324 12.2166 11.2324 12.3817L11.2271 18.1742C11.2271 18.3512 11.0227 18.4744 10.8389 18.4744C10.7798 18.4744 10.6948 18.4619 10.6244 18.4003L0.763921 9.88054C0.681195 9.80817 0.629782 9.70106 0.630375 9.60059C0.630968 9.52764 0.657555 9.46843 0.708375 9.42596L10.6274 1.12214C10.6965 1.06353 10.7804 1.05097 10.8383 1.05097C11.0221 1.05097 11.2271 1.17417 11.2271 1.33805L11.0458 5.50133C11.0422 5.58564 11.0735 5.66701 11.1326 5.7268C11.1888 5.78243 11.2638 5.81354 11.3412 5.81354C11.3506 5.81354 11.3058 5.81054 11.4919 5.81054C12.1797 5.81054 14.6414 5.94391 17.4483 7.6598C20.6906 9.64185 23.1635 12.9487 24.8151 17.5031C24.3164 16.926 23.638 16.2465 22.754 15.5647Z" fill="#6B9080"/>
<path d="M10.92 1.05262C10.4 0.526173 0.52002 9.47368 0.52002 9.73684C0.52002 10 10.66 18.6842 10.92 18.421C11.18 18.1579 11.44 12.3684 11.44 12.3684C20.02 11.5789 25.8126 19.7368 25.22 17.8947C22.308 8.84209 14.82 5.70174 11.44 5.26314C11.44 5.26314 11.44 1.57907 10.92 1.05262Z" fill="#6B9080" stroke="#6B9080"/>
</g>
<defs>
<clipPath id="clip0_270_2473">
<rect width="26" height="20" fill="white"/>
</clipPath>
</defs>
</svg>
