<svg width="366" height="398" viewBox="0 0 366 398" fill="none" xmlns="http://www.w3.org/2000/svg">
<g filter="url(#filter0_f_38_170)">
<path d="M232.86 97.14C232.86 98.3 232.46 99.2667 231.66 100.04C230.873 100.8 229.667 101.18 228.04 101.18H225.36V107H223.54V93.06H228.04C229.613 93.06 230.807 93.44 231.62 94.2C232.447 94.96 232.86 95.94 232.86 97.14ZM228.04 99.68C229.053 99.68 229.8 99.46 230.28 99.02C230.76 98.58 231 97.9533 231 97.14C231 95.42 230.013 94.56 228.04 94.56H225.36V99.68H228.04ZM244.562 96.04L237.962 112.16H236.082L238.242 106.88L233.822 96.04H235.842L239.282 104.92L242.682 96.04H244.562ZM248.612 97.54V104C248.612 104.533 248.725 104.913 248.952 105.14C249.178 105.353 249.572 105.46 250.132 105.46H251.472V107H249.832C248.818 107 248.058 106.767 247.552 106.3C247.045 105.833 246.792 105.067 246.792 104V97.54H245.372V96.04H246.792V93.28H248.612V96.04H251.472V97.54H248.612ZM259.117 95.84C259.943 95.84 260.69 96.02 261.357 96.38C262.023 96.7267 262.543 97.2533 262.917 97.96C263.303 98.6667 263.497 99.5267 263.497 100.54V107H261.697V100.8C261.697 99.7067 261.423 98.8733 260.877 98.3C260.33 97.7133 259.583 97.42 258.637 97.42C257.677 97.42 256.91 97.72 256.337 98.32C255.777 98.92 255.497 99.7933 255.497 100.94V107H253.677V92.2H255.497V97.6C255.857 97.04 256.35 96.6067 256.977 96.3C257.617 95.9933 258.33 95.84 259.117 95.84ZM271.25 107.18C270.223 107.18 269.29 106.947 268.45 106.48C267.623 106.013 266.97 105.353 266.49 104.5C266.023 103.633 265.79 102.633 265.79 101.5C265.79 100.38 266.03 99.3933 266.51 98.54C267.003 97.6733 267.67 97.0133 268.51 96.56C269.35 96.0933 270.29 95.86 271.33 95.86C272.37 95.86 273.31 96.0933 274.15 96.56C274.99 97.0133 275.65 97.6667 276.13 98.52C276.623 99.3733 276.87 100.367 276.87 101.5C276.87 102.633 276.616 103.633 276.11 104.5C275.616 105.353 274.943 106.013 274.09 106.48C273.236 106.947 272.29 107.18 271.25 107.18ZM271.25 105.58C271.903 105.58 272.516 105.427 273.09 105.12C273.663 104.813 274.123 104.353 274.47 103.74C274.83 103.127 275.01 102.38 275.01 101.5C275.01 100.62 274.836 99.8733 274.49 99.26C274.143 98.6467 273.69 98.1933 273.13 97.9C272.57 97.5933 271.963 97.44 271.31 97.44C270.643 97.44 270.03 97.5933 269.47 97.9C268.923 98.1933 268.483 98.6467 268.15 99.26C267.816 99.8733 267.65 100.62 267.65 101.5C267.65 102.393 267.81 103.147 268.13 103.76C268.463 104.373 268.903 104.833 269.45 105.14C269.996 105.433 270.596 105.58 271.25 105.58ZM284.603 95.84C285.936 95.84 287.016 96.2467 287.843 97.06C288.669 97.86 289.083 99.02 289.083 100.54V107H287.283V100.8C287.283 99.7067 287.009 98.8733 286.463 98.3C285.916 97.7133 285.169 97.42 284.223 97.42C283.263 97.42 282.496 97.72 281.923 98.32C281.363 98.92 281.083 99.7933 281.083 100.94V107H279.263V96.04H281.083V97.6C281.443 97.04 281.929 96.6067 282.543 96.3C283.169 95.9933 283.856 95.84 284.603 95.84Z" fill="#A4C3B2"/>
</g>
<path d="M44.336 27.076C45.248 27.22 46.076 27.592 46.82 28.192C47.588 28.792 48.188 29.536 48.62 30.424C49.076 31.312 49.304 32.26 49.304 33.268C49.304 34.54 48.98 35.692 48.332 36.724C47.684 37.732 46.736 38.536 45.488 39.136C44.264 39.712 42.812 40 41.132 40H31.772V14.908H40.772C42.476 14.908 43.928 15.196 45.128 15.772C46.328 16.324 47.228 17.08 47.828 18.04C48.428 19 48.728 20.08 48.728 21.28C48.728 22.768 48.32 24.004 47.504 24.988C46.712 25.948 45.656 26.644 44.336 27.076ZM35.048 25.744H40.556C42.092 25.744 43.28 25.384 44.12 24.664C44.96 23.944 45.38 22.948 45.38 21.676C45.38 20.404 44.96 19.408 44.12 18.688C43.28 17.968 42.068 17.608 40.484 17.608H35.048V25.744ZM40.844 37.3C42.476 37.3 43.748 36.916 44.66 36.148C45.572 35.38 46.028 34.312 46.028 32.944C46.028 31.552 45.548 30.46 44.588 29.668C43.628 28.852 42.344 28.444 40.736 28.444H35.048V37.3H40.844ZM62.4541 40.324C60.6061 40.324 58.9261 39.904 57.4141 39.064C55.9261 38.224 54.7501 37.036 53.8861 35.5C53.0461 33.94 52.6261 32.14 52.6261 30.1C52.6261 28.084 53.0581 26.308 53.9221 24.772C54.8101 23.212 56.0101 22.024 57.5221 21.208C59.0341 20.368 60.7261 19.948 62.5981 19.948C64.4701 19.948 66.1621 20.368 67.6741 21.208C69.1861 22.024 70.3741 23.2 71.2381 24.736C72.1261 26.272 72.5701 28.06 72.5701 30.1C72.5701 32.14 72.1141 33.94 71.2021 35.5C70.3141 37.036 69.1021 38.224 67.5661 39.064C66.0301 39.904 64.3261 40.324 62.4541 40.324ZM62.4541 37.444C63.6301 37.444 64.7341 37.168 65.7661 36.616C66.7981 36.064 67.6261 35.236 68.2501 34.132C68.8981 33.028 69.2221 31.684 69.2221 30.1C69.2221 28.516 68.9101 27.172 68.2861 26.068C67.6621 24.964 66.8461 24.148 65.8381 23.62C64.8301 23.068 63.7381 22.792 62.5621 22.792C61.3621 22.792 60.2581 23.068 59.2501 23.62C58.2661 24.148 57.4741 24.964 56.8741 26.068C56.2741 27.172 55.9741 28.516 55.9741 30.1C55.9741 31.708 56.2621 33.064 56.8381 34.168C57.4381 35.272 58.2301 36.1 59.2141 36.652C60.1981 37.18 61.2781 37.444 62.4541 37.444ZM85.4815 40.324C83.6335 40.324 81.9535 39.904 80.4415 39.064C78.9535 38.224 77.7775 37.036 76.9135 35.5C76.0735 33.94 75.6535 32.14 75.6535 30.1C75.6535 28.084 76.0855 26.308 76.9495 24.772C77.8375 23.212 79.0375 22.024 80.5495 21.208C82.0615 20.368 83.7535 19.948 85.6255 19.948C87.4975 19.948 89.1895 20.368 90.7015 21.208C92.2135 22.024 93.4015 23.2 94.2655 24.736C95.1535 26.272 95.5975 28.06 95.5975 30.1C95.5975 32.14 95.1415 33.94 94.2295 35.5C93.3415 37.036 92.1295 38.224 90.5935 39.064C89.0575 39.904 87.3535 40.324 85.4815 40.324ZM85.4815 37.444C86.6575 37.444 87.7615 37.168 88.7935 36.616C89.8255 36.064 90.6535 35.236 91.2775 34.132C91.9255 33.028 92.2495 31.684 92.2495 30.1C92.2495 28.516 91.9375 27.172 91.3135 26.068C90.6895 24.964 89.8735 24.148 88.8655 23.62C87.8575 23.068 86.7655 22.792 85.5895 22.792C84.3895 22.792 83.2855 23.068 82.2775 23.62C81.2935 24.148 80.5015 24.964 79.9015 26.068C79.3015 27.172 79.0015 28.516 79.0015 30.1C79.0015 31.708 79.2895 33.064 79.8655 34.168C80.4655 35.272 81.2575 36.1 82.2415 36.652C83.2255 37.18 84.3055 37.444 85.4815 37.444ZM103.901 22.972V34.6C103.901 35.56 104.105 36.244 104.513 36.652C104.921 37.036 105.629 37.228 106.637 37.228H109.049V40H106.097C104.273 40 102.905 39.58 101.993 38.74C101.081 37.9 100.625 36.52 100.625 34.6V22.972H98.0688V20.272H100.625V15.304H103.901V20.272H109.049V22.972H103.901ZM120.002 40.324C118.49 40.324 117.134 40.072 115.934 39.568C114.734 39.04 113.786 38.32 113.09 37.408C112.394 36.472 112.01 35.404 111.938 34.204H115.322C115.418 35.188 115.874 35.992 116.69 36.616C117.53 37.24 118.622 37.552 119.966 37.552C121.214 37.552 122.198 37.276 122.918 36.724C123.638 36.172 123.998 35.476 123.998 34.636C123.998 33.772 123.614 33.136 122.846 32.728C122.078 32.296 120.89 31.876 119.282 31.468C117.818 31.084 116.618 30.7 115.682 30.316C114.77 29.908 113.978 29.32 113.306 28.552C112.658 27.76 112.334 26.728 112.334 25.456C112.334 24.448 112.634 23.524 113.234 22.684C113.834 21.844 114.686 21.184 115.79 20.704C116.894 20.2 118.154 19.948 119.57 19.948C121.754 19.948 123.518 20.5 124.862 21.604C126.206 22.708 126.926 24.22 127.022 26.14H123.746C123.674 25.108 123.254 24.28 122.486 23.656C121.742 23.032 120.734 22.72 119.462 22.72C118.286 22.72 117.35 22.972 116.654 23.476C115.958 23.98 115.61 24.64 115.61 25.456C115.61 26.104 115.814 26.644 116.222 27.076C116.654 27.484 117.182 27.82 117.806 28.084C118.454 28.324 119.342 28.6 120.47 28.912C121.886 29.296 123.038 29.68 123.926 30.064C124.814 30.424 125.57 30.976 126.194 31.72C126.842 32.464 127.178 33.436 127.202 34.636C127.202 35.716 126.902 36.688 126.302 37.552C125.702 38.416 124.85 39.1 123.746 39.604C122.666 40.084 121.418 40.324 120.002 40.324ZM135.823 22.972V34.6C135.823 35.56 136.027 36.244 136.435 36.652C136.843 37.036 137.551 37.228 138.559 37.228H140.971V40H138.019C136.195 40 134.827 39.58 133.915 38.74C133.003 37.9 132.547 36.52 132.547 34.6V22.972H129.991V20.272H132.547V15.304H135.823V20.272H140.971V22.972H135.823ZM148.216 23.476C148.792 22.348 149.608 21.472 150.664 20.848C151.744 20.224 153.052 19.912 154.588 19.912V23.296H153.724C150.052 23.296 148.216 25.288 148.216 29.272V40H144.94V20.272H148.216V23.476ZM157.146 30.064C157.146 28.048 157.554 26.284 158.37 24.772C159.186 23.236 160.302 22.048 161.718 21.208C163.158 20.368 164.754 19.948 166.506 19.948C168.234 19.948 169.734 20.32 171.006 21.064C172.278 21.808 173.226 22.744 173.85 23.872V20.272H177.162V40H173.85V36.328C173.202 37.48 172.23 38.44 170.934 39.208C169.662 39.952 168.174 40.324 166.47 40.324C164.718 40.324 163.134 39.892 161.718 39.028C160.302 38.164 159.186 36.952 158.37 35.392C157.554 33.832 157.146 32.056 157.146 30.064ZM173.85 30.1C173.85 28.612 173.55 27.316 172.95 26.212C172.35 25.108 171.534 24.268 170.502 23.692C169.494 23.092 168.378 22.792 167.154 22.792C165.93 22.792 164.814 23.08 163.806 23.656C162.798 24.232 161.994 25.072 161.394 26.176C160.794 27.28 160.494 28.576 160.494 30.064C160.494 31.576 160.794 32.896 161.394 34.024C161.994 35.128 162.798 35.98 163.806 36.58C164.814 37.156 165.93 37.444 167.154 37.444C168.378 37.444 169.494 37.156 170.502 36.58C171.534 35.98 172.35 35.128 172.95 34.024C173.55 32.896 173.85 31.588 173.85 30.1ZM185.974 23.908C186.622 22.78 187.582 21.844 188.854 21.1C190.15 20.332 191.65 19.948 193.354 19.948C195.106 19.948 196.69 20.368 198.106 21.208C199.546 22.048 200.674 23.236 201.49 24.772C202.306 26.284 202.714 28.048 202.714 30.064C202.714 32.056 202.306 33.832 201.49 35.392C200.674 36.952 199.546 38.164 198.106 39.028C196.69 39.892 195.106 40.324 193.354 40.324C191.674 40.324 190.186 39.952 188.89 39.208C187.618 38.44 186.646 37.492 185.974 36.364V49.36H182.698V20.272H185.974V23.908ZM199.366 30.064C199.366 28.576 199.066 27.28 198.466 26.176C197.866 25.072 197.05 24.232 196.018 23.656C195.01 23.08 193.894 22.792 192.67 22.792C191.47 22.792 190.354 23.092 189.322 23.692C188.314 24.268 187.498 25.12 186.874 26.248C186.274 27.352 185.974 28.636 185.974 30.1C185.974 31.588 186.274 32.896 186.874 34.024C187.498 35.128 188.314 35.98 189.322 36.58C190.354 37.156 191.47 37.444 192.67 37.444C193.894 37.444 195.01 37.156 196.018 36.58C197.05 35.98 197.866 35.128 198.466 34.024C199.066 32.896 199.366 31.576 199.366 30.064Z" fill="#A4C3B2"/>
<path d="M317.536 64.224C316.064 64.224 314.741 63.968 313.568 63.456C312.416 62.9227 311.509 62.1973 310.848 61.28C310.187 60.3413 309.845 59.264 309.824 58.048H312.928C313.035 59.0933 313.461 59.9787 314.208 60.704C314.976 61.408 316.085 61.76 317.536 61.76C318.923 61.76 320.011 61.4187 320.8 60.736C321.611 60.032 322.016 59.136 322.016 58.048C322.016 57.1947 321.781 56.5013 321.312 55.968C320.843 55.4347 320.256 55.0293 319.552 54.752C318.848 54.4747 317.899 54.176 316.704 53.856C315.232 53.472 314.048 53.088 313.152 52.704C312.277 52.32 311.52 51.7227 310.88 50.912C310.261 50.08 309.952 48.9707 309.952 47.584C309.952 46.368 310.261 45.2907 310.88 44.352C311.499 43.4133 312.363 42.688 313.472 42.176C314.603 41.664 315.893 41.408 317.344 41.408C319.435 41.408 321.141 41.9307 322.464 42.976C323.808 44.0213 324.565 45.408 324.736 47.136H321.536C321.429 46.2827 320.981 45.536 320.192 44.896C319.403 44.2347 318.357 43.904 317.056 43.904C315.84 43.904 314.848 44.224 314.08 44.864C313.312 45.4827 312.928 46.3573 312.928 47.488C312.928 48.2987 313.152 48.96 313.6 49.472C314.069 49.984 314.635 50.3787 315.296 50.656C315.979 50.912 316.928 51.2107 318.144 51.552C319.616 51.9573 320.8 52.3627 321.696 52.768C322.592 53.152 323.36 53.76 324 54.592C324.64 55.4027 324.96 56.512 324.96 57.92C324.96 59.008 324.672 60.032 324.096 60.992C323.52 61.952 322.667 62.7307 321.536 63.328C320.405 63.9253 319.072 64.224 317.536 64.224ZM347.133 68.224L342.685 63.776C341.597 64.0747 340.488 64.224 339.357 64.224C337.288 64.224 335.4 63.744 333.693 62.784C331.987 61.8027 330.632 60.448 329.629 58.72C328.648 56.9707 328.157 55.008 328.157 52.832C328.157 50.656 328.648 48.704 329.629 46.976C330.632 45.2267 331.987 43.872 333.693 42.912C335.4 41.9307 337.288 41.44 339.357 41.44C341.448 41.44 343.347 41.9307 345.053 42.912C346.76 43.872 348.104 45.216 349.085 46.944C350.067 48.672 350.557 50.6347 350.557 52.832C350.557 54.9653 350.088 56.8853 349.149 58.592C348.211 60.2987 346.92 61.6427 345.277 62.624L350.909 68.224H347.133ZM331.133 52.832C331.133 54.6027 331.485 56.16 332.189 57.504C332.915 58.848 333.896 59.8827 335.133 60.608C336.392 61.3333 337.8 61.696 339.357 61.696C340.915 61.696 342.312 61.3333 343.549 60.608C344.808 59.8827 345.789 58.848 346.493 57.504C347.219 56.16 347.581 54.6027 347.581 52.832C347.581 51.04 347.219 49.4827 346.493 48.16C345.789 46.816 344.819 45.7813 343.581 45.056C342.344 44.3307 340.936 43.968 339.357 43.968C337.779 43.968 336.371 44.3307 335.133 45.056C333.896 45.7813 332.915 46.816 332.189 48.16C331.485 49.4827 331.133 51.04 331.133 52.832ZM357.376 61.632H365.184V64H354.464V41.696H357.376V61.632Z" fill="#A4C3B2"/>
<g opacity="0.8" filter="url(#filter1_f_38_170)">
<path d="M106.376 122.832C106.376 120.656 106.867 118.704 107.848 116.976C108.829 115.227 110.163 113.861 111.848 112.88C113.555 111.899 115.443 111.408 117.512 111.408C119.944 111.408 122.067 111.995 123.88 113.168C125.693 114.341 127.016 116.005 127.848 118.16H124.36C123.741 116.816 122.845 115.781 121.672 115.056C120.52 114.331 119.133 113.968 117.512 113.968C115.955 113.968 114.557 114.331 113.32 115.056C112.083 115.781 111.112 116.816 110.408 118.16C109.704 119.483 109.352 121.04 109.352 122.832C109.352 124.603 109.704 126.16 110.408 127.504C111.112 128.827 112.083 129.851 113.32 130.576C114.557 131.301 115.955 131.664 117.512 131.664C119.133 131.664 120.52 131.312 121.672 130.608C122.845 129.883 123.741 128.848 124.36 127.504H127.848C127.016 129.637 125.693 131.291 123.88 132.464C122.067 133.616 119.944 134.192 117.512 134.192C115.443 134.192 113.555 133.712 111.848 132.752C110.163 131.771 108.829 130.416 107.848 128.688C106.867 126.96 106.376 125.008 106.376 122.832ZM139.255 134.224C137.783 134.224 136.46 133.968 135.287 133.456C134.135 132.923 133.228 132.197 132.567 131.28C131.905 130.341 131.564 129.264 131.543 128.048H134.647C134.753 129.093 135.18 129.979 135.927 130.704C136.695 131.408 137.804 131.76 139.255 131.76C140.641 131.76 141.729 131.419 142.519 130.736C143.329 130.032 143.735 129.136 143.735 128.048C143.735 127.195 143.5 126.501 143.031 125.968C142.561 125.435 141.975 125.029 141.271 124.752C140.567 124.475 139.617 124.176 138.423 123.856C136.951 123.472 135.767 123.088 134.871 122.704C133.996 122.32 133.239 121.723 132.599 120.912C131.98 120.08 131.671 118.971 131.671 117.584C131.671 116.368 131.98 115.291 132.599 114.352C133.217 113.413 134.081 112.688 135.191 112.176C136.321 111.664 137.612 111.408 139.063 111.408C141.153 111.408 142.86 111.931 144.183 112.976C145.527 114.021 146.284 115.408 146.455 117.136H143.255C143.148 116.283 142.7 115.536 141.911 114.896C141.121 114.235 140.076 113.904 138.775 113.904C137.559 113.904 136.567 114.224 135.799 114.864C135.031 115.483 134.647 116.357 134.647 117.488C134.647 118.299 134.871 118.96 135.319 119.472C135.788 119.984 136.353 120.379 137.015 120.656C137.697 120.912 138.647 121.211 139.863 121.552C141.335 121.957 142.519 122.363 143.415 122.768C144.311 123.152 145.079 123.76 145.719 124.592C146.359 125.403 146.679 126.512 146.679 127.92C146.679 129.008 146.391 130.032 145.815 130.992C145.239 131.952 144.385 132.731 143.255 133.328C142.124 133.925 140.791 134.224 139.255 134.224ZM158.036 134.224C156.564 134.224 155.241 133.968 154.068 133.456C152.916 132.923 152.009 132.197 151.348 131.28C150.687 130.341 150.345 129.264 150.324 128.048H153.428C153.535 129.093 153.961 129.979 154.708 130.704C155.476 131.408 156.585 131.76 158.036 131.76C159.423 131.76 160.511 131.419 161.3 130.736C162.111 130.032 162.516 129.136 162.516 128.048C162.516 127.195 162.281 126.501 161.812 125.968C161.343 125.435 160.756 125.029 160.052 124.752C159.348 124.475 158.399 124.176 157.204 123.856C155.732 123.472 154.548 123.088 153.652 122.704C152.777 122.32 152.02 121.723 151.38 120.912C150.761 120.08 150.452 118.971 150.452 117.584C150.452 116.368 150.761 115.291 151.38 114.352C151.999 113.413 152.863 112.688 153.972 112.176C155.103 111.664 156.393 111.408 157.844 111.408C159.935 111.408 161.641 111.931 162.964 112.976C164.308 114.021 165.065 115.408 165.236 117.136H162.036C161.929 116.283 161.481 115.536 160.692 114.896C159.903 114.235 158.857 113.904 157.556 113.904C156.34 113.904 155.348 114.224 154.58 114.864C153.812 115.483 153.428 116.357 153.428 117.488C153.428 118.299 153.652 118.96 154.1 119.472C154.569 119.984 155.135 120.379 155.796 120.656C156.479 120.912 157.428 121.211 158.644 121.552C160.116 121.957 161.3 122.363 162.196 122.768C163.092 123.152 163.86 123.76 164.5 124.592C165.14 125.403 165.46 126.512 165.46 127.92C165.46 129.008 165.172 130.032 164.596 130.992C164.02 131.952 163.167 132.731 162.036 133.328C160.905 133.925 159.572 134.224 158.036 134.224Z" fill="#A4C3B2"/>
</g>
<g filter="url(#filter2_f_38_170)">
<path d="M174.032 183.168C174.032 184.56 173.552 185.72 172.592 186.648C171.648 187.56 170.2 188.016 168.248 188.016H165.032V195H162.848V178.272H168.248C170.136 178.272 171.568 178.728 172.544 179.64C173.536 180.552 174.032 181.728 174.032 183.168ZM168.248 186.216C169.464 186.216 170.36 185.952 170.936 185.424C171.512 184.896 171.8 184.144 171.8 183.168C171.8 181.104 170.616 180.072 168.248 180.072H165.032V186.216H168.248ZM189.634 178.272V195H187.45V187.416H178.93V195H176.746V178.272H178.93V185.616H187.45V178.272H189.634ZM204.548 183.168C204.548 184.56 204.068 185.72 203.108 186.648C202.164 187.56 200.716 188.016 198.764 188.016H195.548V195H193.364V178.272H198.764C200.652 178.272 202.084 178.728 203.06 179.64C204.052 180.552 204.548 181.728 204.548 183.168ZM198.764 186.216C199.98 186.216 200.876 185.952 201.452 185.424C202.028 184.896 202.316 184.144 202.316 183.168C202.316 181.104 201.132 180.072 198.764 180.072H195.548V186.216H198.764Z" fill="#A4C3B2"/>
</g>
<path d="M277 222H274.088L262.376 204.24V222H259.464V199.664H262.376L274.088 217.392V199.664H277V222ZM289.612 222.288C287.969 222.288 286.476 221.915 285.132 221.168C283.809 220.421 282.764 219.365 281.996 218C281.249 216.613 280.876 215.013 280.876 213.2C280.876 211.408 281.26 209.829 282.028 208.464C282.817 207.077 283.884 206.021 285.228 205.296C286.572 204.549 288.076 204.176 289.74 204.176C291.404 204.176 292.908 204.549 294.252 205.296C295.596 206.021 296.652 207.067 297.42 208.432C298.209 209.797 298.604 211.387 298.604 213.2C298.604 215.013 298.199 216.613 297.388 218C296.599 219.365 295.521 220.421 294.156 221.168C292.791 221.915 291.276 222.288 289.612 222.288ZM289.612 219.728C290.657 219.728 291.639 219.483 292.556 218.992C293.473 218.501 294.209 217.765 294.764 216.784C295.34 215.803 295.628 214.608 295.628 213.2C295.628 211.792 295.351 210.597 294.796 209.616C294.241 208.635 293.516 207.909 292.62 207.44C291.724 206.949 290.753 206.704 289.708 206.704C288.641 206.704 287.66 206.949 286.764 207.44C285.889 207.909 285.185 208.635 284.652 209.616C284.119 210.597 283.852 211.792 283.852 213.2C283.852 214.629 284.108 215.835 284.62 216.816C285.153 217.797 285.857 218.533 286.732 219.024C287.607 219.493 288.567 219.728 289.612 219.728ZM309.505 222.224C308.033 222.224 306.71 221.968 305.537 221.456C304.385 220.923 303.478 220.197 302.817 219.28C302.155 218.341 301.814 217.264 301.793 216.048H304.897C305.003 217.093 305.43 217.979 306.177 218.704C306.945 219.408 308.054 219.76 309.505 219.76C310.891 219.76 311.979 219.419 312.769 218.736C313.579 218.032 313.985 217.136 313.985 216.048C313.985 215.195 313.75 214.501 313.281 213.968C312.811 213.435 312.225 213.029 311.521 212.752C310.817 212.475 309.867 212.176 308.673 211.856C307.201 211.472 306.017 211.088 305.121 210.704C304.246 210.32 303.489 209.723 302.849 208.912C302.23 208.08 301.921 206.971 301.921 205.584C301.921 204.368 302.23 203.291 302.849 202.352C303.467 201.413 304.331 200.688 305.441 200.176C306.571 199.664 307.862 199.408 309.313 199.408C311.403 199.408 313.11 199.931 314.433 200.976C315.777 202.021 316.534 203.408 316.705 205.136H313.505C313.398 204.283 312.95 203.536 312.161 202.896C311.371 202.235 310.326 201.904 309.025 201.904C307.809 201.904 306.817 202.224 306.049 202.864C305.281 203.483 304.897 204.357 304.897 205.488C304.897 206.299 305.121 206.96 305.569 207.472C306.038 207.984 306.603 208.379 307.265 208.656C307.947 208.912 308.897 209.211 310.113 209.552C311.585 209.957 312.769 210.363 313.665 210.768C314.561 211.152 315.329 211.76 315.969 212.592C316.609 213.403 316.929 214.512 316.929 215.92C316.929 217.008 316.641 218.032 316.065 218.992C315.489 219.952 314.635 220.731 313.505 221.328C312.374 221.925 311.041 222.224 309.505 222.224ZM339.102 226.224L334.654 221.776C333.566 222.075 332.457 222.224 331.326 222.224C329.257 222.224 327.369 221.744 325.662 220.784C323.955 219.803 322.601 218.448 321.598 216.72C320.617 214.971 320.126 213.008 320.126 210.832C320.126 208.656 320.617 206.704 321.598 204.976C322.601 203.227 323.955 201.872 325.662 200.912C327.369 199.931 329.257 199.44 331.326 199.44C333.417 199.44 335.315 199.931 337.022 200.912C338.729 201.872 340.073 203.216 341.054 204.944C342.035 206.672 342.526 208.635 342.526 210.832C342.526 212.965 342.057 214.885 341.118 216.592C340.179 218.299 338.889 219.643 337.246 220.624L342.878 226.224H339.102ZM323.102 210.832C323.102 212.603 323.454 214.16 324.158 215.504C324.883 216.848 325.865 217.883 327.102 218.608C328.361 219.333 329.769 219.696 331.326 219.696C332.883 219.696 334.281 219.333 335.518 218.608C336.777 217.883 337.758 216.848 338.462 215.504C339.187 214.16 339.55 212.603 339.55 210.832C339.55 209.04 339.187 207.483 338.462 206.16C337.758 204.816 336.787 203.781 335.55 203.056C334.313 202.331 332.905 201.968 331.326 201.968C329.747 201.968 328.339 202.331 327.102 203.056C325.865 203.781 324.883 204.816 324.158 206.16C323.454 207.483 323.102 209.04 323.102 210.832ZM349.345 219.632H357.153V222H346.433V199.696H349.345V219.632Z" fill="#A4C3B2"/>
<g filter="url(#filter3_f_38_170)">
<path d="M33.848 84.848V93.088C33.848 94.0053 33.5653 94.7413 33 95.296C32.4347 95.84 31.688 96.112 30.76 96.112C29.8213 96.112 29.0693 95.8347 28.504 95.28C27.9387 94.7147 27.656 93.9467 27.656 92.976H29.112C29.1227 93.52 29.2613 93.9627 29.528 94.304C29.8053 94.6453 30.216 94.816 30.76 94.816C31.304 94.816 31.7093 94.656 31.976 94.336C32.2427 94.0053 32.376 93.5893 32.376 93.088V84.848H33.848ZM36.1724 91.584C36.1724 90.688 36.3537 89.904 36.7164 89.232C37.079 88.5493 37.575 88.0213 38.2044 87.648C38.8444 87.2747 39.5537 87.088 40.3324 87.088C41.1004 87.088 41.767 87.2533 42.3324 87.584C42.8977 87.9147 43.319 88.3307 43.5964 88.832V87.232H45.0684V96H43.5964V94.368C43.3084 94.88 42.8764 95.3067 42.3004 95.648C41.735 95.9787 41.0737 96.144 40.3164 96.144C39.5377 96.144 38.8337 95.952 38.2044 95.568C37.575 95.184 37.079 94.6453 36.7164 93.952C36.3537 93.2587 36.1724 92.4693 36.1724 91.584ZM43.5964 91.6C43.5964 90.9387 43.463 90.3627 43.1964 89.872C42.9297 89.3813 42.567 89.008 42.1084 88.752C41.6604 88.4853 41.1644 88.352 40.6204 88.352C40.0764 88.352 39.5804 88.48 39.1324 88.736C38.6844 88.992 38.327 89.3653 38.0604 89.856C37.7937 90.3467 37.6604 90.9227 37.6604 91.584C37.6604 92.256 37.7937 92.8427 38.0604 93.344C38.327 93.8347 38.6844 94.2133 39.1324 94.48C39.5804 94.736 40.0764 94.864 40.6204 94.864C41.1644 94.864 41.6604 94.736 42.1084 94.48C42.567 94.2133 42.9297 93.8347 43.1964 93.344C43.463 92.8427 43.5964 92.2613 43.5964 91.6ZM50.7929 94.656L53.5129 87.232H55.0649L51.6249 96H49.9289L46.4889 87.232H48.0569L50.7929 94.656ZM55.9536 91.584C55.9536 90.688 56.135 89.904 56.4976 89.232C56.8603 88.5493 57.3563 88.0213 57.9856 87.648C58.6256 87.2747 59.335 87.088 60.1136 87.088C60.8816 87.088 61.5483 87.2533 62.1136 87.584C62.679 87.9147 63.1003 88.3307 63.3776 88.832V87.232H64.8496V96H63.3776V94.368C63.0896 94.88 62.6576 95.3067 62.0816 95.648C61.5163 95.9787 60.855 96.144 60.0976 96.144C59.319 96.144 58.615 95.952 57.9856 95.568C57.3563 95.184 56.8603 94.6453 56.4976 93.952C56.135 93.2587 55.9536 92.4693 55.9536 91.584ZM63.3776 91.6C63.3776 90.9387 63.2443 90.3627 62.9776 89.872C62.711 89.3813 62.3483 89.008 61.8896 88.752C61.4416 88.4853 60.9456 88.352 60.4016 88.352C59.8576 88.352 59.3616 88.48 58.9136 88.736C58.4656 88.992 58.1083 89.3653 57.8416 89.856C57.575 90.3467 57.4416 90.9227 57.4416 91.584C57.4416 92.256 57.575 92.8427 57.8416 93.344C58.1083 93.8347 58.4656 94.2133 58.9136 94.48C59.3616 94.736 59.8576 94.864 60.4016 94.864C60.9456 94.864 61.4416 94.736 61.8896 94.48C62.3483 94.2133 62.711 93.8347 62.9776 93.344C63.2443 92.8427 63.3776 92.2613 63.3776 91.6Z" fill="#A4C3B2"/>
</g>
<g filter="url(#filter4_f_38_170)">
<path d="M50.06 349.06L44.8 363H42.7L37.44 349.06H39.38L43.76 361.08L48.14 349.06H50.06ZM61.7756 352.04V363H59.9556V361.38C59.609 361.94 59.1223 362.38 58.4956 362.7C57.8823 363.007 57.2023 363.16 56.4556 363.16C55.6023 363.16 54.8356 362.987 54.1556 362.64C53.4756 362.28 52.9356 361.747 52.5356 361.04C52.149 360.333 51.9556 359.473 51.9556 358.46V352.04H53.7556V358.22C53.7556 359.3 54.029 360.133 54.5756 360.72C55.1223 361.293 55.869 361.58 56.8156 361.58C57.789 361.58 58.5556 361.28 59.1156 360.68C59.6756 360.08 59.9556 359.207 59.9556 358.06V352.04H61.7756ZM74.8486 357.1C74.8486 357.447 74.8286 357.813 74.7886 358.2H66.0286C66.0953 359.28 66.4619 360.127 67.1286 360.74C67.8086 361.34 68.6286 361.64 69.5886 361.64C70.3753 361.64 71.0286 361.46 71.5486 361.1C72.0819 360.727 72.4553 360.233 72.6686 359.62H74.6286C74.3353 360.673 73.7486 361.533 72.8686 362.2C71.9886 362.853 70.8953 363.18 69.5886 363.18C68.5486 363.18 67.6153 362.947 66.7886 362.48C65.9753 362.013 65.3353 361.353 64.8686 360.5C64.4019 359.633 64.1686 358.633 64.1686 357.5C64.1686 356.367 64.3953 355.373 64.8486 354.52C65.3019 353.667 65.9353 353.013 66.7486 352.56C67.5753 352.093 68.5219 351.86 69.5886 351.86C70.6286 351.86 71.5486 352.087 72.3486 352.54C73.1486 352.993 73.7619 353.62 74.1886 354.42C74.6286 355.207 74.8486 356.1 74.8486 357.1ZM72.9686 356.72C72.9686 356.027 72.8153 355.433 72.5086 354.94C72.2019 354.433 71.7819 354.053 71.2486 353.8C70.7286 353.533 70.1486 353.4 69.5086 353.4C68.5886 353.4 67.8019 353.693 67.1486 354.28C66.5086 354.867 66.1419 355.68 66.0486 356.72H72.9686ZM77.8309 363.12C77.4843 363.12 77.1909 363 76.9509 362.76C76.7109 362.52 76.5909 362.227 76.5909 361.88C76.5909 361.533 76.7109 361.24 76.9509 361C77.1909 360.76 77.4843 360.64 77.8309 360.64C78.1643 360.64 78.4443 360.76 78.6709 361C78.9109 361.24 79.0309 361.533 79.0309 361.88C79.0309 362.227 78.9109 362.52 78.6709 362.76C78.4443 363 78.1643 363.12 77.8309 363.12ZM82.4302 350.26C82.0835 350.26 81.7902 350.14 81.5502 349.9C81.3235 349.66 81.2102 349.367 81.2102 349.02C81.2102 348.673 81.3235 348.38 81.5502 348.14C81.7902 347.9 82.0835 347.78 82.4302 347.78C82.7768 347.78 83.0635 347.9 83.2902 348.14C83.5302 348.38 83.6502 348.673 83.6502 349.02C83.6502 349.367 83.5302 349.66 83.2902 349.9C83.0635 350.14 82.7768 350.26 82.4302 350.26ZM83.3302 365.38C83.3302 366.353 83.0835 367.067 82.5902 367.52C82.0968 367.973 81.3768 368.2 80.4302 368.2H79.3702V366.66H80.1302C80.6368 366.66 80.9902 366.56 81.1902 366.36C81.4035 366.16 81.5102 365.82 81.5102 365.34V352.04H83.3302V365.38ZM90.2911 363.18C89.4511 363.18 88.6978 363.04 88.0311 362.76C87.3644 362.467 86.8378 362.067 86.4511 361.56C86.0644 361.04 85.8511 360.447 85.8111 359.78H87.6911C87.7444 360.327 87.9978 360.773 88.4511 361.12C88.9178 361.467 89.5244 361.64 90.2711 361.64C90.9644 361.64 91.5111 361.487 91.9111 361.18C92.3111 360.873 92.5111 360.487 92.5111 360.02C92.5111 359.54 92.2978 359.187 91.8711 358.96C91.4444 358.72 90.7844 358.487 89.8911 358.26C89.0778 358.047 88.4111 357.833 87.8911 357.62C87.3844 357.393 86.9444 357.067 86.5711 356.64C86.2111 356.2 86.0311 355.627 86.0311 354.92C86.0311 354.36 86.1978 353.847 86.5311 353.38C86.8644 352.913 87.3378 352.547 87.9511 352.28C88.5644 352 89.2644 351.86 90.0511 351.86C91.2644 351.86 92.2444 352.167 92.9911 352.78C93.7378 353.393 94.1378 354.233 94.1911 355.3H92.3711C92.3311 354.727 92.0978 354.267 91.6711 353.92C91.2578 353.573 90.6978 353.4 89.9911 353.4C89.3378 353.4 88.8178 353.54 88.4311 353.82C88.0444 354.1 87.8511 354.467 87.8511 354.92C87.8511 355.28 87.9644 355.58 88.1911 355.82C88.4311 356.047 88.7244 356.233 89.0711 356.38C89.4311 356.513 89.9244 356.667 90.5511 356.84C91.3378 357.053 91.9778 357.267 92.4711 357.48C92.9644 357.68 93.3844 357.987 93.7311 358.4C94.0911 358.813 94.2778 359.353 94.2911 360.02C94.2911 360.62 94.1244 361.16 93.7911 361.64C93.4578 362.12 92.9844 362.5 92.3711 362.78C91.7711 363.047 91.0778 363.18 90.2911 363.18Z" fill="#A4C3B2"/>
</g>
<path d="M327.78 310.18C327.084 308.716 326.076 307.588 324.756 306.796C323.436 305.98 321.9 305.572 320.148 305.572C318.396 305.572 316.812 305.98 315.396 306.796C314.004 307.588 312.9 308.74 312.084 310.252C311.292 311.74 310.896 313.468 310.896 315.436C310.896 317.404 311.292 319.132 312.084 320.62C312.9 322.108 314.004 323.26 315.396 324.076C316.812 324.868 318.396 325.264 320.148 325.264C322.596 325.264 324.612 324.532 326.196 323.068C327.78 321.604 328.704 319.624 328.968 317.128H318.96V314.464H332.46V316.984C332.268 319.048 331.62 320.944 330.516 322.672C329.412 324.376 327.96 325.732 326.16 326.74C324.36 327.724 322.356 328.216 320.148 328.216C317.82 328.216 315.696 327.676 313.776 326.596C311.856 325.492 310.332 323.968 309.204 322.024C308.1 320.08 307.548 317.884 307.548 315.436C307.548 312.988 308.1 310.792 309.204 308.848C310.332 306.88 311.856 305.356 313.776 304.276C315.696 303.172 317.82 302.62 320.148 302.62C322.812 302.62 325.164 303.28 327.204 304.6C329.268 305.92 330.768 307.78 331.704 310.18H327.78ZM338.484 305.068C337.86 305.068 337.332 304.852 336.9 304.42C336.468 303.988 336.252 303.46 336.252 302.836C336.252 302.212 336.468 301.684 336.9 301.252C337.332 300.82 337.86 300.604 338.484 300.604C339.084 300.604 339.588 300.82 339.996 301.252C340.428 301.684 340.644 302.212 340.644 302.836C340.644 303.46 340.428 303.988 339.996 304.42C339.588 304.852 339.084 305.068 338.484 305.068ZM340.068 308.272V328H336.792V308.272H340.068ZM349.647 310.972V322.6C349.647 323.56 349.851 324.244 350.259 324.652C350.667 325.036 351.375 325.228 352.383 325.228H354.795V328H351.843C350.019 328 348.651 327.58 347.739 326.74C346.827 325.9 346.371 324.52 346.371 322.6V310.972H343.815V308.272H346.371V303.304H349.647V308.272H354.795V310.972H349.647Z" fill="#A4C3B2"/>
<g filter="url(#filter5_f_38_170)">
<path d="M148.736 314.28H141.44L140.096 318H137.792L143.84 301.368H146.36L152.384 318H150.08L148.736 314.28ZM148.112 312.504L145.088 304.056L142.064 312.504H148.112ZM161.428 304.608C163.028 304.608 164.324 305.096 165.316 306.072C166.308 307.032 166.804 308.424 166.804 310.248V318H164.644V310.56C164.644 309.248 164.316 308.248 163.66 307.56C163.004 306.856 162.108 306.504 160.972 306.504C159.82 306.504 158.9 306.864 158.212 307.584C157.54 308.304 157.204 309.352 157.204 310.728V318H155.02V304.848H157.204V306.72C157.636 306.048 158.22 305.528 158.956 305.16C159.708 304.792 160.532 304.608 161.428 304.608ZM175.795 304.632C176.931 304.632 177.923 304.88 178.771 305.376C179.635 305.872 180.275 306.496 180.691 307.248V304.848H182.899V318.288C182.899 319.488 182.643 320.552 182.131 321.48C181.619 322.424 180.883 323.16 179.923 323.688C178.979 324.216 177.875 324.48 176.611 324.48C174.883 324.48 173.443 324.072 172.291 323.256C171.139 322.44 170.459 321.328 170.251 319.92H172.411C172.651 320.72 173.147 321.36 173.899 321.84C174.651 322.336 175.555 322.584 176.611 322.584C177.811 322.584 178.787 322.208 179.539 321.456C180.307 320.704 180.691 319.648 180.691 318.288V315.528C180.259 316.296 179.619 316.936 178.771 317.448C177.923 317.96 176.931 318.216 175.795 318.216C174.627 318.216 173.563 317.928 172.603 317.352C171.659 316.776 170.915 315.968 170.371 314.928C169.827 313.888 169.555 312.704 169.555 311.376C169.555 310.032 169.827 308.856 170.371 307.848C170.915 306.824 171.659 306.032 172.603 305.472C173.563 304.912 174.627 304.632 175.795 304.632ZM180.691 311.4C180.691 310.408 180.491 309.544 180.091 308.808C179.691 308.072 179.147 307.512 178.459 307.128C177.787 306.728 177.043 306.528 176.227 306.528C175.411 306.528 174.667 306.72 173.995 307.104C173.323 307.488 172.787 308.048 172.387 308.784C171.987 309.52 171.787 310.384 171.787 311.376C171.787 312.384 171.987 313.264 172.387 314.016C172.787 314.752 173.323 315.32 173.995 315.72C174.667 316.104 175.411 316.296 176.227 316.296C177.043 316.296 177.787 316.104 178.459 315.72C179.147 315.32 179.691 314.752 180.091 314.016C180.491 313.264 180.691 312.392 180.691 311.4ZM198.254 304.848V318H196.07V316.056C195.654 316.728 195.07 317.256 194.318 317.64C193.582 318.008 192.766 318.192 191.87 318.192C190.846 318.192 189.926 317.984 189.11 317.568C188.294 317.136 187.646 316.496 187.166 315.648C186.702 314.8 186.47 313.768 186.47 312.552V304.848H188.63V312.264C188.63 313.56 188.958 314.56 189.614 315.264C190.27 315.952 191.166 316.296 192.302 316.296C193.47 316.296 194.39 315.936 195.062 315.216C195.734 314.496 196.07 313.448 196.07 312.072V304.848H198.254ZM204.126 300.24V318H201.942V300.24H204.126ZM207.032 311.376C207.032 310.032 207.304 308.856 207.848 307.848C208.392 306.824 209.136 306.032 210.08 305.472C211.04 304.912 212.104 304.632 213.272 304.632C214.424 304.632 215.424 304.88 216.272 305.376C217.12 305.872 217.752 306.496 218.168 307.248V304.848H220.376V318H218.168V315.552C217.736 316.32 217.088 316.96 216.224 317.472C215.376 317.968 214.384 318.216 213.248 318.216C212.08 318.216 211.024 317.928 210.08 317.352C209.136 316.776 208.392 315.968 207.848 314.928C207.304 313.888 207.032 312.704 207.032 311.376ZM218.168 311.4C218.168 310.408 217.968 309.544 217.568 308.808C217.168 308.072 216.624 307.512 215.936 307.128C215.264 306.728 214.52 306.528 213.704 306.528C212.888 306.528 212.144 306.72 211.472 307.104C210.8 307.488 210.264 308.048 209.864 308.784C209.464 309.52 209.264 310.384 209.264 311.376C209.264 312.384 209.464 313.264 209.864 314.016C210.264 314.752 210.8 315.32 211.472 315.72C212.144 316.104 212.888 316.296 213.704 316.296C214.52 316.296 215.264 316.104 215.936 315.72C216.624 315.32 217.168 314.752 217.568 314.016C217.968 313.264 218.168 312.392 218.168 311.4ZM226.251 306.984C226.635 306.232 227.179 305.648 227.883 305.232C228.603 304.816 229.475 304.608 230.499 304.608V306.864H229.923C227.475 306.864 226.251 308.192 226.251 310.848V318H224.067V304.848H226.251V306.984Z" fill="#A4C3B2"/>
</g>
<g filter="url(#filter6_f_38_170)">
<path d="M311.516 141.812C311.516 140.996 311.7 140.264 312.068 139.616C312.436 138.96 312.936 138.448 313.568 138.08C314.208 137.712 314.916 137.528 315.692 137.528C316.604 137.528 317.4 137.748 318.08 138.188C318.76 138.628 319.256 139.252 319.568 140.06H318.26C318.028 139.556 317.692 139.168 317.252 138.896C316.82 138.624 316.3 138.488 315.692 138.488C315.108 138.488 314.584 138.624 314.12 138.896C313.656 139.168 313.292 139.556 313.028 140.06C312.764 140.556 312.632 141.14 312.632 141.812C312.632 142.476 312.764 143.06 313.028 143.564C313.292 144.06 313.656 144.444 314.12 144.716C314.584 144.988 315.108 145.124 315.692 145.124C316.3 145.124 316.82 144.992 317.252 144.728C317.692 144.456 318.028 144.068 318.26 143.564H319.568C319.256 144.364 318.76 144.984 318.08 145.424C317.4 145.856 316.604 146.072 315.692 146.072C314.916 146.072 314.208 145.892 313.568 145.532C312.936 145.164 312.436 144.656 312.068 144.008C311.7 143.36 311.516 142.628 311.516 141.812ZM327.434 142.076H324.878V144.668H323.858V142.076H321.314V141.152H323.858V138.548H324.878V141.152H327.434V142.076ZM335.625 142.076H333.069V144.668H332.049V142.076H329.505V141.152H332.049V138.548H333.069V141.152H335.625V142.076Z" fill="#A4C3B2"/>
</g>
<path d="M22.104 193.908V219H18.828V207.624H6.048V219H2.772V193.908H6.048V204.924H18.828V193.908H22.104ZM43.1418 193.908V196.572H36.3018V219H33.0258V196.572H26.1498V193.908H43.1418ZM72.6263 194.088V219H69.3503V200.424L61.0703 219H58.7663L50.4503 200.388V219H47.1743V194.088H50.7023L59.9183 214.68L69.1343 194.088H72.6263ZM81.4582 216.336H90.2422V219H78.1822V193.908H81.4582V216.336ZM119.375 195.816H106.739V204.024C107.291 203.256 108.107 202.632 109.187 202.152C110.267 201.648 111.431 201.396 112.679 201.396C114.671 201.396 116.291 201.816 117.539 202.656C118.787 203.472 119.675 204.54 120.203 205.86C120.755 207.156 121.031 208.536 121.031 210C121.031 211.728 120.707 213.276 120.059 214.644C119.411 216.012 118.415 217.092 117.071 217.884C115.751 218.676 114.107 219.072 112.139 219.072C109.619 219.072 107.579 218.424 106.019 217.128C104.459 215.832 103.511 214.104 103.175 211.944H106.379C106.691 213.312 107.351 214.38 108.359 215.148C109.367 215.916 110.639 216.3 112.175 216.3C114.071 216.3 115.499 215.736 116.459 214.608C117.419 213.456 117.899 211.944 117.899 210.072C117.899 208.2 117.419 206.76 116.459 205.752C115.499 204.72 114.083 204.204 112.211 204.204C110.939 204.204 109.823 204.516 108.863 205.14C107.927 205.74 107.243 206.568 106.811 207.624H103.715V192.936H119.375V195.816Z" fill="#A4C3B2"/>
<path d="M190.272 371.272V383.632C190.272 385.008 189.848 386.112 189 386.944C188.152 387.76 187.032 388.168 185.64 388.168C184.232 388.168 183.104 387.752 182.256 386.92C181.408 386.072 180.984 384.92 180.984 383.464H183.168C183.184 384.28 183.392 384.944 183.792 385.456C184.208 385.968 184.824 386.224 185.64 386.224C186.456 386.224 187.064 385.984 187.464 385.504C187.864 385.008 188.064 384.384 188.064 383.632V371.272H190.272ZM193.759 381.376C193.759 380.032 194.031 378.856 194.575 377.848C195.119 376.824 195.863 376.032 196.807 375.472C197.767 374.912 198.831 374.632 199.999 374.632C201.151 374.632 202.151 374.88 202.999 375.376C203.847 375.872 204.479 376.496 204.895 377.248V374.848H207.103V388H204.895V385.552C204.463 386.32 203.815 386.96 202.951 387.472C202.103 387.968 201.111 388.216 199.975 388.216C198.807 388.216 197.751 387.928 196.807 387.352C195.863 386.776 195.119 385.968 194.575 384.928C194.031 383.888 193.759 382.704 193.759 381.376ZM204.895 381.4C204.895 380.408 204.695 379.544 204.295 378.808C203.895 378.072 203.351 377.512 202.663 377.128C201.991 376.728 201.247 376.528 200.431 376.528C199.615 376.528 198.871 376.72 198.199 377.104C197.527 377.488 196.991 378.048 196.591 378.784C196.191 379.52 195.991 380.384 195.991 381.376C195.991 382.384 196.191 383.264 196.591 384.016C196.991 384.752 197.527 385.32 198.199 385.72C198.871 386.104 199.615 386.296 200.431 386.296C201.247 386.296 201.991 386.104 202.663 385.72C203.351 385.32 203.895 384.752 204.295 384.016C204.695 383.264 204.895 382.392 204.895 381.4ZM215.689 385.984L219.769 374.848H222.097L216.937 388H214.393L209.233 374.848H211.585L215.689 385.984ZM223.43 381.376C223.43 380.032 223.702 378.856 224.246 377.848C224.79 376.824 225.534 376.032 226.478 375.472C227.438 374.912 228.502 374.632 229.67 374.632C230.822 374.632 231.822 374.88 232.67 375.376C233.518 375.872 234.15 376.496 234.566 377.248V374.848H236.774V388H234.566V385.552C234.134 386.32 233.486 386.96 232.622 387.472C231.774 387.968 230.782 388.216 229.646 388.216C228.478 388.216 227.422 387.928 226.478 387.352C225.534 386.776 224.79 385.968 224.246 384.928C223.702 383.888 223.43 382.704 223.43 381.376ZM234.566 381.4C234.566 380.408 234.366 379.544 233.966 378.808C233.566 378.072 233.022 377.512 232.334 377.128C231.662 376.728 230.918 376.528 230.102 376.528C229.286 376.528 228.542 376.72 227.87 377.104C227.198 377.488 226.662 378.048 226.262 378.784C225.862 379.52 225.662 380.384 225.662 381.376C225.662 382.384 225.862 383.264 226.262 384.016C226.662 384.752 227.198 385.32 227.87 385.72C228.542 386.104 229.286 386.296 230.102 386.296C230.918 386.296 231.662 386.104 232.334 385.72C233.022 385.32 233.566 384.752 233.966 384.016C234.366 383.264 234.566 382.392 234.566 381.4ZM245.769 388.168C244.665 388.168 243.673 387.976 242.793 387.592C241.929 387.192 241.249 386.648 240.753 385.96C240.257 385.256 240.001 384.448 239.985 383.536H242.313C242.393 384.32 242.713 384.984 243.273 385.528C243.849 386.056 244.681 386.32 245.769 386.32C246.809 386.32 247.625 386.064 248.217 385.552C248.825 385.024 249.129 384.352 249.129 383.536C249.129 382.896 248.953 382.376 248.601 381.976C248.249 381.576 247.809 381.272 247.281 381.064C246.753 380.856 246.041 380.632 245.145 380.392C244.041 380.104 243.153 379.816 242.481 379.528C241.825 379.24 241.257 378.792 240.777 378.184C240.313 377.56 240.081 376.728 240.081 375.688C240.081 374.776 240.313 373.968 240.777 373.264C241.241 372.56 241.889 372.016 242.721 371.632C243.569 371.248 244.537 371.056 245.625 371.056C247.193 371.056 248.473 371.448 249.465 372.232C250.473 373.016 251.041 374.056 251.169 375.352H248.769C248.689 374.712 248.353 374.152 247.761 373.672C247.169 373.176 246.385 372.928 245.409 372.928C244.497 372.928 243.753 373.168 243.177 373.648C242.601 374.112 242.313 374.768 242.313 375.616C242.313 376.224 242.481 376.72 242.817 377.104C243.169 377.488 243.593 377.784 244.089 377.992C244.601 378.184 245.313 378.408 246.225 378.664C247.329 378.968 248.217 379.272 248.889 379.576C249.561 379.864 250.137 380.32 250.617 380.944C251.097 381.552 251.337 382.384 251.337 383.44C251.337 384.256 251.121 385.024 250.689 385.744C250.257 386.464 249.617 387.048 248.769 387.496C247.921 387.944 246.921 388.168 245.769 388.168ZM253.735 381.4C253.735 380.04 254.007 378.856 254.551 377.848C255.095 376.824 255.847 376.032 256.807 375.472C257.783 374.912 258.895 374.632 260.143 374.632C261.759 374.632 263.087 375.024 264.127 375.808C265.183 376.592 265.879 377.68 266.215 379.072H263.863C263.639 378.272 263.199 377.64 262.543 377.176C261.903 376.712 261.103 376.48 260.143 376.48C258.895 376.48 257.887 376.912 257.119 377.776C256.351 378.624 255.967 379.832 255.967 381.4C255.967 382.984 256.351 384.208 257.119 385.072C257.887 385.936 258.895 386.368 260.143 386.368C261.103 386.368 261.903 386.144 262.543 385.696C263.183 385.248 263.623 384.608 263.863 383.776H266.215C265.863 385.12 265.159 386.2 264.103 387.016C263.047 387.816 261.727 388.216 260.143 388.216C258.895 388.216 257.783 387.936 256.807 387.376C255.847 386.816 255.095 386.024 254.551 385C254.007 383.976 253.735 382.776 253.735 381.4ZM271.313 376.984C271.697 376.232 272.241 375.648 272.945 375.232C273.665 374.816 274.537 374.608 275.561 374.608V376.864H274.985C272.537 376.864 271.313 378.192 271.313 380.848V388H269.129V374.848H271.313V376.984ZM279.21 372.712C278.794 372.712 278.442 372.568 278.154 372.28C277.866 371.992 277.722 371.64 277.722 371.224C277.722 370.808 277.866 370.456 278.154 370.168C278.442 369.88 278.794 369.736 279.21 369.736C279.61 369.736 279.946 369.88 280.218 370.168C280.506 370.456 280.65 370.808 280.65 371.224C280.65 371.64 280.506 371.992 280.218 372.28C279.946 372.568 279.61 372.712 279.21 372.712ZM280.266 374.848V388H278.082V374.848H280.266ZM286.173 377.272C286.605 376.52 287.245 375.896 288.093 375.4C288.957 374.888 289.957 374.632 291.093 374.632C292.261 374.632 293.317 374.912 294.261 375.472C295.221 376.032 295.973 376.824 296.517 377.848C297.061 378.856 297.333 380.032 297.333 381.376C297.333 382.704 297.061 383.888 296.517 384.928C295.973 385.968 295.221 386.776 294.261 387.352C293.317 387.928 292.261 388.216 291.093 388.216C289.973 388.216 288.981 387.968 288.117 387.472C287.269 386.96 286.621 386.328 286.173 385.576V394.24H283.989V374.848H286.173V377.272ZM295.101 381.376C295.101 380.384 294.901 379.52 294.501 378.784C294.101 378.048 293.557 377.488 292.869 377.104C292.197 376.72 291.453 376.528 290.637 376.528C289.837 376.528 289.093 376.728 288.405 377.128C287.733 377.512 287.189 378.08 286.773 378.832C286.373 379.568 286.173 380.424 286.173 381.4C286.173 382.392 286.373 383.264 286.773 384.016C287.189 384.752 287.733 385.32 288.405 385.72C289.093 386.104 289.837 386.296 290.637 386.296C291.453 386.296 292.197 386.104 292.869 385.72C293.557 385.32 294.101 384.752 294.501 384.016C294.901 383.264 295.101 382.384 295.101 381.376ZM302.871 376.648V384.4C302.871 385.04 303.007 385.496 303.279 385.768C303.551 386.024 304.023 386.152 304.695 386.152H306.303V388H304.335C303.119 388 302.207 387.72 301.599 387.16C300.991 386.6 300.687 385.68 300.687 384.4V376.648H298.983V374.848H300.687V371.536H302.871V374.848H306.303V376.648H302.871Z" fill="#A4C3B2"/>
<g filter="url(#filter7_f_38_170)">
<path d="M316.88 272L313.56 266.3H311.36V272H309.54V258.06H314.04C315.093 258.06 315.98 258.24 316.7 258.6C317.433 258.96 317.98 259.447 318.34 260.06C318.7 260.673 318.88 261.373 318.88 262.16C318.88 263.12 318.6 263.967 318.04 264.7C317.493 265.433 316.667 265.92 315.56 266.16L319.06 272H316.88ZM311.36 264.84H314.04C315.027 264.84 315.767 264.6 316.26 264.12C316.753 263.627 317 262.973 317 262.16C317 261.333 316.753 260.693 316.26 260.24C315.78 259.787 315.04 259.56 314.04 259.56H311.36V264.84ZM331.708 266.1C331.708 266.447 331.688 266.813 331.648 267.2H322.888C322.955 268.28 323.321 269.127 323.988 269.74C324.668 270.34 325.488 270.64 326.448 270.64C327.235 270.64 327.888 270.46 328.408 270.1C328.941 269.727 329.315 269.233 329.528 268.62H331.488C331.195 269.673 330.608 270.533 329.728 271.2C328.848 271.853 327.755 272.18 326.448 272.18C325.408 272.18 324.475 271.947 323.648 271.48C322.835 271.013 322.195 270.353 321.728 269.5C321.261 268.633 321.028 267.633 321.028 266.5C321.028 265.367 321.255 264.373 321.708 263.52C322.161 262.667 322.795 262.013 323.608 261.56C324.435 261.093 325.381 260.86 326.448 260.86C327.488 260.86 328.408 261.087 329.208 261.54C330.008 261.993 330.621 262.62 331.048 263.42C331.488 264.207 331.708 265.1 331.708 266.1ZM329.828 265.72C329.828 265.027 329.675 264.433 329.368 263.94C329.061 263.433 328.641 263.053 328.108 262.8C327.588 262.533 327.008 262.4 326.368 262.4C325.448 262.4 324.661 262.693 324.008 263.28C323.368 263.867 323.001 264.68 322.908 265.72H329.828ZM333.43 266.48C333.43 265.36 333.657 264.38 334.11 263.54C334.564 262.687 335.184 262.027 335.97 261.56C336.77 261.093 337.657 260.86 338.63 260.86C339.59 260.86 340.424 261.067 341.13 261.48C341.837 261.893 342.364 262.413 342.71 263.04V261.04H344.55V272H342.71V269.96C342.35 270.6 341.81 271.133 341.09 271.56C340.384 271.973 339.557 272.18 338.61 272.18C337.637 272.18 336.757 271.94 335.97 271.46C335.184 270.98 334.564 270.307 334.11 269.44C333.657 268.573 333.43 267.587 333.43 266.48ZM342.71 266.5C342.71 265.673 342.544 264.953 342.21 264.34C341.877 263.727 341.424 263.26 340.85 262.94C340.29 262.607 339.67 262.44 338.99 262.44C338.31 262.44 337.69 262.6 337.13 262.92C336.57 263.24 336.124 263.707 335.79 264.32C335.457 264.933 335.29 265.653 335.29 266.48C335.29 267.32 335.457 268.053 335.79 268.68C336.124 269.293 336.57 269.767 337.13 270.1C337.69 270.42 338.31 270.58 338.99 270.58C339.67 270.58 340.29 270.42 340.85 270.1C341.424 269.767 341.877 269.293 342.21 268.68C342.544 268.053 342.71 267.327 342.71 266.5ZM346.946 266.5C346.946 265.367 347.173 264.38 347.626 263.54C348.079 262.687 348.706 262.027 349.506 261.56C350.319 261.093 351.246 260.86 352.286 260.86C353.633 260.86 354.739 261.187 355.606 261.84C356.486 262.493 357.066 263.4 357.346 264.56H355.386C355.199 263.893 354.833 263.367 354.286 262.98C353.753 262.593 353.086 262.4 352.286 262.4C351.246 262.4 350.406 262.76 349.766 263.48C349.126 264.187 348.806 265.193 348.806 266.5C348.806 267.82 349.126 268.84 349.766 269.56C350.406 270.28 351.246 270.64 352.286 270.64C353.086 270.64 353.753 270.453 354.286 270.08C354.819 269.707 355.186 269.173 355.386 268.48H357.346C357.053 269.6 356.466 270.5 355.586 271.18C354.706 271.847 353.606 272.18 352.286 272.18C351.246 272.18 350.319 271.947 349.506 271.48C348.706 271.013 348.079 270.353 347.626 269.5C347.173 268.647 346.946 267.647 346.946 266.5ZM361.994 262.54V269C361.994 269.533 362.108 269.913 362.334 270.14C362.561 270.353 362.954 270.46 363.514 270.46H364.854V272H363.214C362.201 272 361.441 271.767 360.934 271.3C360.428 270.833 360.174 270.067 360.174 269V262.54H358.754V261.04H360.174V258.28H361.994V261.04H364.854V262.54H361.994Z" fill="#A4C3B2"/>
</g>
<g filter="url(#filter8_f_38_170)">
<path d="M22.5 272H20.68L13.36 260.9V272H11.54V258.04H13.36L20.68 269.12V258.04H22.5V272ZM30.3825 272.18C29.3558 272.18 28.4225 271.947 27.5825 271.48C26.7558 271.013 26.1025 270.353 25.6225 269.5C25.1558 268.633 24.9225 267.633 24.9225 266.5C24.9225 265.38 25.1625 264.393 25.6425 263.54C26.1358 262.673 26.8025 262.013 27.6425 261.56C28.4825 261.093 29.4225 260.86 30.4625 260.86C31.5025 260.86 32.4425 261.093 33.2825 261.56C34.1225 262.013 34.7825 262.667 35.2625 263.52C35.7558 264.373 36.0025 265.367 36.0025 266.5C36.0025 267.633 35.7492 268.633 35.2425 269.5C34.7492 270.353 34.0758 271.013 33.2225 271.48C32.3692 271.947 31.4225 272.18 30.3825 272.18ZM30.3825 270.58C31.0358 270.58 31.6492 270.427 32.2225 270.12C32.7958 269.813 33.2558 269.353 33.6025 268.74C33.9625 268.127 34.1425 267.38 34.1425 266.5C34.1425 265.62 33.9692 264.873 33.6225 264.26C33.2758 263.647 32.8225 263.193 32.2625 262.9C31.7025 262.593 31.0958 262.44 30.4425 262.44C29.7758 262.44 29.1625 262.593 28.6025 262.9C28.0558 263.193 27.6158 263.647 27.2825 264.26C26.9492 264.873 26.7825 265.62 26.7825 266.5C26.7825 267.393 26.9425 268.147 27.2625 268.76C27.5958 269.373 28.0358 269.833 28.5825 270.14C29.1292 270.433 29.7292 270.58 30.3825 270.58ZM37.7155 266.48C37.7155 265.36 37.9421 264.38 38.3955 263.54C38.8488 262.687 39.4688 262.027 40.2555 261.56C41.0555 261.093 41.9488 260.86 42.9355 260.86C43.7888 260.86 44.5821 261.06 45.3155 261.46C46.0488 261.847 46.6088 262.36 46.9955 263V257.2H48.8355V272H46.9955V269.94C46.6355 270.593 46.1021 271.133 45.3955 271.56C44.6888 271.973 43.8621 272.18 42.9155 272.18C41.9421 272.18 41.0555 271.94 40.2555 271.46C39.4688 270.98 38.8488 270.307 38.3955 269.44C37.9421 268.573 37.7155 267.587 37.7155 266.48ZM46.9955 266.5C46.9955 265.673 46.8288 264.953 46.4955 264.34C46.1621 263.727 45.7088 263.26 45.1355 262.94C44.5755 262.607 43.9555 262.44 43.2755 262.44C42.5955 262.44 41.9755 262.6 41.4155 262.92C40.8555 263.24 40.4088 263.707 40.0755 264.32C39.7421 264.933 39.5755 265.653 39.5755 266.48C39.5755 267.32 39.7421 268.053 40.0755 268.68C40.4088 269.293 40.8555 269.767 41.4155 270.1C41.9755 270.42 42.5955 270.58 43.2755 270.58C43.9555 270.58 44.5755 270.42 45.1355 270.1C45.7088 269.767 46.1621 269.293 46.4955 268.68C46.8288 268.053 46.9955 267.327 46.9955 266.5ZM61.9111 266.1C61.9111 266.447 61.8911 266.813 61.8511 267.2H53.0911C53.1578 268.28 53.5244 269.127 54.1911 269.74C54.8711 270.34 55.6911 270.64 56.6511 270.64C57.4378 270.64 58.0911 270.46 58.6111 270.1C59.1444 269.727 59.5178 269.233 59.7311 268.62H61.6911C61.3978 269.673 60.8111 270.533 59.9311 271.2C59.0511 271.853 57.9578 272.18 56.6511 272.18C55.6111 272.18 54.6778 271.947 53.8511 271.48C53.0378 271.013 52.3978 270.353 51.9311 269.5C51.4644 268.633 51.2311 267.633 51.2311 266.5C51.2311 265.367 51.4578 264.373 51.9111 263.52C52.3644 262.667 52.9978 262.013 53.8111 261.56C54.6378 261.093 55.5844 260.86 56.6511 260.86C57.6911 260.86 58.6111 261.087 59.4111 261.54C60.2111 261.993 60.8244 262.62 61.2511 263.42C61.6911 264.207 61.9111 265.1 61.9111 266.1ZM60.0311 265.72C60.0311 265.027 59.8778 264.433 59.5711 263.94C59.2644 263.433 58.8444 263.053 58.3111 262.8C57.7911 262.533 57.2111 262.4 56.5711 262.4C55.6511 262.4 54.8644 262.693 54.2111 263.28C53.5711 263.867 53.2044 264.68 53.1111 265.72H60.0311ZM64.8934 272.12C64.5468 272.12 64.2534 272 64.0134 271.76C63.7734 271.52 63.6534 271.227 63.6534 270.88C63.6534 270.533 63.7734 270.24 64.0134 270C64.2534 269.76 64.5468 269.64 64.8934 269.64C65.2268 269.64 65.5068 269.76 65.7334 270C65.9734 270.24 66.0934 270.533 66.0934 270.88C66.0934 271.227 65.9734 271.52 65.7334 271.76C65.5068 272 65.2268 272.12 64.8934 272.12ZM69.4927 259.26C69.146 259.26 68.8527 259.14 68.6127 258.9C68.386 258.66 68.2727 258.367 68.2727 258.02C68.2727 257.673 68.386 257.38 68.6127 257.14C68.8527 256.9 69.146 256.78 69.4927 256.78C69.8393 256.78 70.126 256.9 70.3527 257.14C70.5927 257.38 70.7127 257.673 70.7127 258.02C70.7127 258.367 70.5927 258.66 70.3527 258.9C70.126 259.14 69.8393 259.26 69.4927 259.26ZM70.3927 274.38C70.3927 275.353 70.146 276.067 69.6527 276.52C69.1593 276.973 68.4393 277.2 67.4927 277.2H66.4327V275.66H67.1927C67.6993 275.66 68.0527 275.56 68.2527 275.36C68.466 275.16 68.5727 274.82 68.5727 274.34V261.04H70.3927V274.38ZM77.3536 272.18C76.5136 272.18 75.7603 272.04 75.0936 271.76C74.4269 271.467 73.9003 271.067 73.5136 270.56C73.1269 270.04 72.9136 269.447 72.8736 268.78H74.7536C74.8069 269.327 75.0603 269.773 75.5136 270.12C75.9803 270.467 76.5869 270.64 77.3336 270.64C78.0269 270.64 78.5736 270.487 78.9736 270.18C79.3736 269.873 79.5736 269.487 79.5736 269.02C79.5736 268.54 79.3603 268.187 78.9336 267.96C78.5069 267.72 77.8469 267.487 76.9536 267.26C76.1403 267.047 75.4736 266.833 74.9536 266.62C74.4469 266.393 74.0069 266.067 73.6336 265.64C73.2736 265.2 73.0936 264.627 73.0936 263.92C73.0936 263.36 73.2603 262.847 73.5936 262.38C73.9269 261.913 74.4003 261.547 75.0136 261.28C75.6269 261 76.3269 260.86 77.1136 260.86C78.3269 260.86 79.3069 261.167 80.0536 261.78C80.8003 262.393 81.2003 263.233 81.2536 264.3H79.4336C79.3936 263.727 79.1603 263.267 78.7336 262.92C78.3203 262.573 77.7603 262.4 77.0536 262.4C76.4003 262.4 75.8803 262.54 75.4936 262.82C75.1069 263.1 74.9136 263.467 74.9136 263.92C74.9136 264.28 75.0269 264.58 75.2536 264.82C75.4936 265.047 75.7869 265.233 76.1336 265.38C76.4936 265.513 76.9869 265.667 77.6136 265.84C78.4003 266.053 79.0403 266.267 79.5336 266.48C80.0269 266.68 80.4469 266.987 80.7936 267.4C81.1536 267.813 81.3403 268.353 81.3536 269.02C81.3536 269.62 81.1869 270.16 80.8536 270.64C80.5203 271.12 80.0469 271.5 79.4336 271.78C78.8336 272.047 78.1403 272.18 77.3536 272.18Z" fill="#A4C3B2"/>
</g>
<defs>
<filter id="filter0_f_38_170" x="222.54" y="91.2" width="67.5425" height="21.96" filterUnits="userSpaceOnUse" color-interpolation-filters="sRGB">
<feFlood flood-opacity="0" result="BackgroundImageFix"/>
<feBlend mode="normal" in="SourceGraphic" in2="BackgroundImageFix" result="shape"/>
<feGaussianBlur stdDeviation="0.5" result="effect1_foregroundBlur_38_170"/>
</filter>
<filter id="filter1_f_38_170" x="105.376" y="110.408" width="61.084" height="24.816" filterUnits="userSpaceOnUse" color-interpolation-filters="sRGB">
<feFlood flood-opacity="0" result="BackgroundImageFix"/>
<feBlend mode="normal" in="SourceGraphic" in2="BackgroundImageFix" result="shape"/>
<feGaussianBlur stdDeviation="0.5" result="effect1_foregroundBlur_38_170"/>
</filter>
<filter id="filter2_f_38_170" x="161.848" y="177.272" width="43.6997" height="18.728" filterUnits="userSpaceOnUse" color-interpolation-filters="sRGB">
<feFlood flood-opacity="0" result="BackgroundImageFix"/>
<feBlend mode="normal" in="SourceGraphic" in2="BackgroundImageFix" result="shape"/>
<feGaussianBlur stdDeviation="0.5" result="effect1_foregroundBlur_38_170"/>
</filter>
<filter id="filter3_f_38_170" x="26.6558" y="83.848" width="39.1938" height="13.296" filterUnits="userSpaceOnUse" color-interpolation-filters="sRGB">
<feFlood flood-opacity="0" result="BackgroundImageFix"/>
<feBlend mode="normal" in="SourceGraphic" in2="BackgroundImageFix" result="shape"/>
<feGaussianBlur stdDeviation="0.5" result="effect1_foregroundBlur_38_170"/>
</filter>
<filter id="filter4_f_38_170" x="36.4399" y="346.78" width="58.8511" height="22.42" filterUnits="userSpaceOnUse" color-interpolation-filters="sRGB">
<feFlood flood-opacity="0" result="BackgroundImageFix"/>
<feBlend mode="normal" in="SourceGraphic" in2="BackgroundImageFix" result="shape"/>
<feGaussianBlur stdDeviation="0.5" result="effect1_foregroundBlur_38_170"/>
</filter>
<filter id="filter5_f_38_170" x="136.792" y="299.24" width="94.7065" height="26.24" filterUnits="userSpaceOnUse" color-interpolation-filters="sRGB">
<feFlood flood-opacity="0" result="BackgroundImageFix"/>
<feBlend mode="normal" in="SourceGraphic" in2="BackgroundImageFix" result="shape"/>
<feGaussianBlur stdDeviation="0.5" result="effect1_foregroundBlur_38_170"/>
</filter>
<filter id="filter6_f_38_170" x="310.516" y="136.528" width="26.1089" height="10.544" filterUnits="userSpaceOnUse" color-interpolation-filters="sRGB">
<feFlood flood-opacity="0" result="BackgroundImageFix"/>
<feBlend mode="normal" in="SourceGraphic" in2="BackgroundImageFix" result="shape"/>
<feGaussianBlur stdDeviation="0.5" result="effect1_foregroundBlur_38_170"/>
</filter>
<filter id="filter7_f_38_170" x="308.54" y="257.06" width="57.3145" height="16.12" filterUnits="userSpaceOnUse" color-interpolation-filters="sRGB">
<feFlood flood-opacity="0" result="BackgroundImageFix"/>
<feBlend mode="normal" in="SourceGraphic" in2="BackgroundImageFix" result="shape"/>
<feGaussianBlur stdDeviation="0.5" result="effect1_foregroundBlur_38_170"/>
</filter>
<filter id="filter8_f_38_170" x="10.54" y="255.78" width="71.8135" height="22.42" filterUnits="userSpaceOnUse" color-interpolation-filters="sRGB">
<feFlood flood-opacity="0" result="BackgroundImageFix"/>
<feBlend mode="normal" in="SourceGraphic" in2="BackgroundImageFix" result="shape"/>
<feGaussianBlur stdDeviation="0.5" result="effect1_foregroundBlur_38_170"/>
</filter>
</defs>
</svg>
