<svg viewBox="0 0 1440 1024" fill="none" xmlns="http://www.w3.org/2000/svg">
<path opacity="0.2" d="M124 668.575C28.3203 756.803 -6 976.61 -6 976.61V1024H1441V-9H1260.5C1260.5 -9 1191.81 172.062 1101.5 247.107C1006.69 325.898 905.354 283.122 806 356.003C700.935 433.074 713.497 550.872 605.5 623.706C448.536 729.564 263.352 540.077 124 668.575Z" fill="#CCE3DE"/>
<path opacity="0.1" d="M-1.5 650V1021.5H1441V0H1057.5C1057.5 0 1001.7 72.7504 957 110C846.794 201.835 764 143 639.5 228.5C503.71 321.754 470.438 622.806 257 669.5C158.102 691.136 -1.5 650 -1.5 650Z" fill="#6B9080"/>
<path opacity="0.7" d="M1234.8 946.249C1234.19 946.128 1233.67 945.729 1233.39 945.169L1138.2 751.214C1137.36 749.496 1134.82 749.829 1134.45 751.706L1101.53 917.8C1101.32 918.883 1100.26 919.588 1099.18 919.373L1006.96 901.098C1005.88 900.883 1005.17 899.83 1005.39 898.747L1082.64 508.962C1082.85 507.878 1083.9 507.174 1084.99 507.389L1177.2 525.664C1178.29 525.879 1178.99 526.931 1178.78 528.015L1146.08 692.978C1145.71 694.856 1147.94 696.133 1149.37 694.864L1309.98 552.782C1310.45 552.368 1311.09 552.197 1311.7 552.318L1419.68 573.717C1421.32 574.042 1421.86 576.118 1420.58 577.202L1233.78 736.118C1233.07 736.719 1232.87 737.726 1233.29 738.552L1349.45 965.669C1350.21 967.157 1348.92 968.866 1347.28 968.542L1234.8 946.249Z" fill="#6B9080"/>
<path opacity="0.8" d="M1198.8 921.249C1198.19 921.128 1197.67 920.729 1197.39 920.169L1102.2 726.214C1101.36 724.496 1098.82 724.829 1098.45 726.706L1065.53 892.8C1065.32 893.883 1064.26 894.588 1063.18 894.373L970.962 876.098C969.878 875.883 969.174 874.83 969.389 873.747L1046.64 483.962C1046.85 482.878 1047.9 482.174 1048.99 482.389L1141.2 500.664C1142.29 500.879 1142.99 501.931 1142.78 503.015L1110.08 667.978C1109.71 669.856 1111.94 671.133 1113.37 669.864L1273.98 527.782C1274.45 527.368 1275.09 527.197 1275.7 527.318L1383.68 548.717C1385.32 549.042 1385.86 551.118 1384.58 552.202L1197.78 711.118C1197.07 711.719 1196.87 712.726 1197.29 713.552L1313.45 940.669C1314.21 942.157 1312.92 943.866 1311.28 943.542L1198.8 921.249Z" fill="#A4C3B2"/>
</svg>
