<svg width="15" height="13" viewBox="0 0 15 13" fill="none" xmlns="http://www.w3.org/2000/svg">
<g clip-path="url(#clip0_56_671)">
<path d="M3.25542 10.879C2.2626 11.2473 0.510742 11.358 0.510742 11.358C0.510742 11.358 1.80252 12.285 2.74478 12.5553C3.54269 12.7843 4.02522 12.7686 4.85117 12.7606C5.60268 12.7534 6.03221 12.7291 6.76606 12.5553C7.63638 12.3493 8.12219 12.1582 8.90436 11.7001C9.44736 11.382 9.73555 11.1643 10.2129 10.7422C10.7159 10.2973 10.9827 10.0192 11.3937 9.4764C11.9016 8.80566 12.1167 8.36661 12.4788 7.59482C12.8053 6.89884 12.9998 6.50189 13.181 5.74745C13.4084 4.79976 13.3724 3.25008 13.3724 3.25008C13.3724 3.25008 13.812 2.95423 14.0427 2.70271C14.319 2.40144 14.6171 1.81324 14.6171 1.81324C14.6171 1.81324 14.1435 2.04016 13.8193 2.08692C13.5722 2.12256 13.181 2.08692 13.181 2.08692C13.181 2.08692 13.6059 1.81712 13.8193 1.57376C14.0608 1.29827 14.298 0.752712 14.298 0.752712L12.4788 1.26587C12.4788 1.26587 11.0107 -0.513078 8.90436 0.58166C6.79798 1.6764 7.5001 4.13955 7.5001 4.13955C7.5001 4.13955 5.83283 4.05726 4.85117 3.66061C3.26657 3.02033 1.46819 0.752712 1.46819 0.752712C1.46819 0.752712 0.829891 2.08692 1.21287 3.35271C1.59585 4.6185 2.32989 5.16587 2.32989 5.16587L1.02138 4.82376C1.02138 4.82376 1.02138 5.99521 1.72351 6.80797C2.42564 7.62075 3.19159 7.93692 3.19159 7.93692H2.07457C2.07457 7.93692 2.07457 8.75797 3.38308 9.61324C3.97221 9.99831 4.85117 10.1264 4.85117 10.1264C4.85117 10.1264 3.95671 10.619 3.25542 10.879Z" fill="#6B9080"/>
</g>
<defs>
<clipPath id="clip0_56_671">
<rect width="15" height="13" fill="white"/>
</clipPath>
</defs>
</svg>
