<svg width="100" height="99" viewBox="0 0 100 99" fill="none" xmlns="http://www.w3.org/2000/svg">
<rect width="100" height="99" fill="#D3D3D3"/>
<path d="M35.5455 73H29.6364L46.7273 26.4545H52.5455L69.6364 73H63.7273L49.8182 33.8182H49.4545L35.5455 73ZM37.7273 54.8182H61.5455V59.8182H37.7273V54.8182Z" fill="white"/>
<path d="M35.5455 73V74H36.2516L36.4878 73.3345L35.5455 73ZM29.6364 73L28.6976 72.6553L28.2039 74H29.6364V73ZM46.7273 26.4545V25.4545H46.0292L45.7886 26.1099L46.7273 26.4545ZM52.5455 26.4545L53.4842 26.1099L53.2436 25.4545H52.5455V26.4545ZM69.6364 73V74H71.0688L70.5751 72.6553L69.6364 73ZM63.7273 73L62.7849 73.3345L63.0211 74H63.7273V73ZM49.8182 33.8182L50.7606 33.4836L50.5243 32.8182H49.8182V33.8182ZM49.4545 33.8182V32.8182H48.7484L48.5122 33.4836L49.4545 33.8182ZM37.7273 54.8182V53.8182H36.7273V54.8182H37.7273ZM61.5455 54.8182H62.5455V53.8182H61.5455V54.8182ZM61.5455 59.8182V60.8182H62.5455V59.8182H61.5455ZM37.7273 59.8182H36.7273V60.8182H37.7273V59.8182ZM35.5455 72H29.6364V74H35.5455V72ZM30.5751 73.3447L47.666 26.7992L45.7886 26.1099L28.6976 72.6553L30.5751 73.3447ZM46.7273 27.4545H52.5455V25.4545H46.7273V27.4545ZM51.6067 26.7992L68.6976 73.3447L70.5751 72.6553L53.4842 26.1099L51.6067 26.7992ZM69.6364 72H63.7273V74H69.6364V72ZM64.6697 72.6655L50.7606 33.4836L48.8758 34.1527L62.7849 73.3345L64.6697 72.6655ZM49.8182 32.8182H49.4545V34.8182H49.8182V32.8182ZM48.5122 33.4836L34.6031 72.6655L36.4878 73.3345L50.3969 34.1527L48.5122 33.4836ZM37.7273 55.8182H61.5455V53.8182H37.7273V55.8182ZM60.5455 54.8182V59.8182H62.5455V54.8182H60.5455ZM61.5455 58.8182H37.7273V60.8182H61.5455V58.8182ZM38.7273 59.8182V54.8182H36.7273V59.8182H38.7273Z" fill="black" fill-opacity="0.21"/>
</svg>
