<svg width="98" height="99" viewBox="0 0 98 99" fill="none" xmlns="http://www.w3.org/2000/svg">
<rect width="98" height="99" fill="#556B2F"/>
<path d="M33.6364 73V26.4545H49.9091C53.1515 26.4545 55.8258 27.0152 57.9318 28.1364C60.0379 29.2424 61.6061 30.7348 62.6364 32.6136C63.6667 34.4773 64.1818 36.5455 64.1818 38.8182C64.1818 40.8182 63.8258 42.4697 63.1136 43.7727C62.4167 45.0758 61.4924 46.1061 60.3409 46.8636C59.2045 47.6212 57.9697 48.1818 56.6364 48.5455V49C58.0606 49.0909 59.4924 49.5909 60.9318 50.5C62.3712 51.4091 63.5758 52.7121 64.5455 54.4091C65.5152 56.1061 66 58.1818 66 60.6364C66 62.9697 65.4697 65.0682 64.4091 66.9318C63.3485 68.7955 61.6742 70.2727 59.3864 71.3636C57.0985 72.4545 54.1212 73 50.4545 73H33.6364ZM39.2727 68H50.4545C54.1364 68 56.75 67.2879 58.2955 65.8636C59.8561 64.4242 60.6364 62.6818 60.6364 60.6364C60.6364 59.0606 60.2348 57.6061 59.4318 56.2727C58.6288 54.9242 57.4848 53.8485 56 53.0455C54.5152 52.2273 52.7576 51.8182 50.7273 51.8182H39.2727V68ZM39.2727 46.9091H49.7273C51.4242 46.9091 52.9545 46.5758 54.3182 45.9091C55.697 45.2424 56.7879 44.303 57.5909 43.0909C58.4091 41.8788 58.8182 40.4545 58.8182 38.8182C58.8182 36.7727 58.1061 35.0379 56.6818 33.6136C55.2576 32.1742 53 31.4545 49.9091 31.4545H39.2727V46.9091Z" fill="white"/>
<path d="M33.6364 73H32.6364V74H33.6364V73ZM33.6364 26.4545V25.4545H32.6364V26.4545H33.6364ZM57.9318 28.1364L57.4619 29.0191L57.4669 29.0217L57.9318 28.1364ZM62.6364 32.6136L61.7595 33.0945L61.7612 33.0975L62.6364 32.6136ZM63.1136 43.7727L62.2361 43.2931L62.2319 43.3011L63.1136 43.7727ZM60.3409 46.8636L59.7913 46.0282L59.7862 46.0316L60.3409 46.8636ZM56.6364 48.5455L56.3732 47.5807L55.6364 47.7817V48.5455H56.6364ZM56.6364 49H55.6364V49.9382L56.5727 49.998L56.6364 49ZM60.9318 50.5L60.3978 51.3455L60.3978 51.3455L60.9318 50.5ZM64.4091 66.9318L65.2782 67.4264L65.2782 67.4264L64.4091 66.9318ZM59.3864 71.3636L58.956 70.461L58.956 70.461L59.3864 71.3636ZM39.2727 68H38.2727V69H39.2727V68ZM58.2955 65.8636L58.9731 66.599L58.9734 66.5987L58.2955 65.8636ZM59.4318 56.2727L58.5726 56.7844L58.5752 56.7887L59.4318 56.2727ZM56 53.0455L55.5174 53.9213L55.5243 53.9251L56 53.0455ZM39.2727 51.8182V50.8182H38.2727V51.8182H39.2727ZM39.2727 46.9091H38.2727V47.9091H39.2727V46.9091ZM54.3182 45.9091L53.8829 45.0088L53.879 45.0107L54.3182 45.9091ZM57.5909 43.0909L56.762 42.5314L56.7573 42.5386L57.5909 43.0909ZM56.6818 33.6136L55.971 34.317L55.9747 34.3207L56.6818 33.6136ZM39.2727 31.4545V30.4545H38.2727V31.4545H39.2727ZM34.6364 73V26.4545H32.6364V73H34.6364ZM33.6364 27.4545H49.9091V25.4545H33.6364V27.4545ZM49.9091 27.4545C53.0438 27.4545 55.543 27.9975 57.4619 29.0191L58.4017 27.2537C56.1085 26.0328 53.2593 25.4545 49.9091 25.4545V27.4545ZM57.4669 29.0217C59.4188 30.0468 60.834 31.4068 61.7596 33.0945L63.5132 32.1328C62.3781 30.0629 60.657 28.438 58.3968 27.251L57.4669 29.0217ZM61.7612 33.0975C62.7041 34.803 63.1818 36.7029 63.1818 38.8182H65.1818C65.1818 36.388 64.6292 34.1515 63.5115 32.1298L61.7612 33.0975ZM63.1818 38.8182C63.1818 40.7063 62.8448 42.1794 62.2361 43.2932L63.9911 44.2523C64.8067 42.76 65.1818 40.93 65.1818 38.8182H63.1818ZM62.2319 43.3011C61.6077 44.468 60.7935 45.3689 59.7913 46.0282L60.8905 47.6991C62.1913 46.8432 63.2256 45.6836 63.9954 44.2444L62.2319 43.3011ZM59.7862 46.0316C58.7404 46.7288 57.6041 47.245 56.3732 47.5807L56.8995 49.5102C58.3353 49.1186 59.6687 48.5136 60.8956 47.6957L59.7862 46.0316ZM55.6364 48.5455V49H57.6364V48.5455H55.6364ZM56.5727 49.998C57.8004 50.0763 59.0727 50.5086 60.3978 51.3455L61.4658 49.6545C59.9121 48.6732 58.3208 48.1055 56.7001 48.002L56.5727 49.998ZM60.3978 51.3455C61.6796 52.1551 62.7766 53.3291 63.6772 54.9052L65.4137 53.913C64.3749 52.0951 63.0628 50.6631 61.4658 49.6545L60.3978 51.3455ZM63.6772 54.9052C64.5411 56.4171 65 58.312 65 60.6364H67C67 58.0517 66.4892 55.795 65.4137 53.913L63.6772 54.9052ZM65 60.6364C65 62.812 64.5073 64.7374 63.54 66.4372L65.2782 67.4264C66.4321 65.399 67 63.1274 67 60.6364H65ZM63.54 66.4372C62.5978 68.0927 61.0938 69.4417 58.956 70.461L59.8168 72.2663C62.2547 71.1038 64.0992 69.4982 65.2782 67.4264L63.54 66.4372ZM58.956 70.461C56.8488 71.4657 54.0338 72 50.4545 72V74C54.2086 74 57.3482 73.4433 59.8168 72.2663L58.956 70.461ZM50.4545 72H33.6364V74H50.4545V72ZM39.2727 69H50.4545V67H39.2727V69ZM50.4545 69C54.2149 69 57.1466 68.2823 58.9731 66.599L57.6178 65.1283C56.3534 66.2935 54.0578 67 50.4545 67V69ZM58.9734 66.5987C60.7305 64.9781 61.6364 62.9728 61.6364 60.6364H59.6364C59.6364 62.3908 58.9816 63.8704 57.6175 65.1286L58.9734 66.5987ZM61.6364 60.6364C61.6364 58.8812 61.1865 57.2479 60.2885 55.7568L58.5752 56.7887C59.2832 57.9642 59.6364 59.24 59.6364 60.6364H61.6364ZM60.291 55.7611C59.3887 54.2459 58.1068 53.048 56.4757 52.1658L55.5243 53.9251C56.8629 54.649 57.8689 55.6026 58.5726 56.7844L60.291 55.7611ZM56.4826 52.1696C54.8233 51.2553 52.8931 50.8182 50.7273 50.8182V52.8182C52.6221 52.8182 54.207 53.1992 55.5174 53.9213L56.4826 52.1696ZM50.7273 50.8182H39.2727V52.8182H50.7273V50.8182ZM38.2727 51.8182V68H40.2727V51.8182H38.2727ZM39.2727 47.9091H49.7273V45.9091H39.2727V47.9091ZM49.7273 47.9091C51.5583 47.9091 53.2416 47.5485 54.7574 46.8075L53.879 45.0107C52.6675 45.603 51.2901 45.9091 49.7273 45.9091V47.9091ZM54.7535 46.8094C56.2849 46.0689 57.517 45.0131 58.4246 43.6432L56.7573 42.5386C56.0587 43.593 55.109 44.4159 53.8829 45.0088L54.7535 46.8094ZM58.4198 43.6504C59.3625 42.2537 59.8182 40.6293 59.8182 38.8182H57.8182C57.8182 40.2798 57.4557 41.5039 56.7621 42.5314L58.4198 43.6504ZM59.8182 38.8182C59.8182 36.5121 59.0039 34.5216 57.3889 32.9065L55.9747 34.3207C57.2082 35.5542 57.8182 37.0333 57.8182 38.8182H59.8182ZM57.3927 32.9103C55.7017 31.2013 53.1289 30.4545 49.9091 30.4545V32.4545C52.8711 32.4545 54.8134 33.1471 55.971 34.317L57.3927 32.9103ZM49.9091 30.4545H39.2727V32.4545H49.9091V30.4545ZM38.2727 31.4545V46.9091H40.2727V31.4545H38.2727Z" fill="black" fill-opacity="0.21"/>
</svg>
