<svg width="103" height="99" viewBox="0 0 103 99" fill="none" xmlns="http://www.w3.org/2000/svg">
<rect width="103" height="99" fill="#8B4513"/>
<path d="M71.0909 41H65.4545C65.1212 39.3788 64.5379 37.9545 63.7045 36.7273C62.8864 35.5 61.8864 34.4697 60.7045 33.6364C59.5379 32.7879 58.2424 32.1515 56.8182 31.7273C55.3939 31.303 53.9091 31.0909 52.3636 31.0909C49.5455 31.0909 46.9924 31.803 44.7045 33.2273C42.4318 34.6515 40.6212 36.75 39.2727 39.5227C37.9394 42.2955 37.2727 45.697 37.2727 49.7273C37.2727 53.7576 37.9394 57.1591 39.2727 59.9318C40.6212 62.7045 42.4318 64.803 44.7045 66.2273C46.9924 67.6515 49.5455 68.3636 52.3636 68.3636C53.9091 68.3636 55.3939 68.1515 56.8182 67.7273C58.2424 67.303 59.5379 66.6742 60.7045 65.8409C61.8864 64.9924 62.8864 63.9545 63.7045 62.7273C64.5379 61.4848 65.1212 60.0606 65.4545 58.4545H71.0909C70.6667 60.8333 69.8939 62.9621 68.7727 64.8409C67.6515 66.7197 66.2576 68.3182 64.5909 69.6364C62.9242 70.9394 61.053 71.9318 58.9773 72.6136C56.9167 73.2955 54.7121 73.6364 52.3636 73.6364C48.3939 73.6364 44.8636 72.6667 41.7727 70.7273C38.6818 68.7879 36.25 66.0303 34.4773 62.4545C32.7045 58.8788 31.8182 54.6364 31.8182 49.7273C31.8182 44.8182 32.7045 40.5758 34.4773 37C36.25 33.4242 38.6818 30.6667 41.7727 28.7273C44.8636 26.7879 48.3939 25.8182 52.3636 25.8182C54.7121 25.8182 56.9167 26.1591 58.9773 26.8409C61.053 27.5227 62.9242 28.5227 64.5909 29.8409C66.2576 31.1439 67.6515 32.7348 68.7727 34.6136C69.8939 36.4773 70.6667 38.6061 71.0909 41Z" fill="white"/>
<path d="M71.0909 41V42H72.2837L72.0756 40.8255L71.0909 41ZM65.4545 41L64.475 41.2014L64.6392 42H65.4545V41ZM63.7045 36.7273L62.8725 37.282L62.8772 37.289L63.7045 36.7273ZM60.7045 33.6364L60.1164 34.4451L60.1223 34.4494L60.1283 34.4536L60.7045 33.6364ZM56.8182 31.7273L56.5327 32.6857L56.5327 32.6857L56.8182 31.7273ZM44.7045 33.2273L44.1761 32.3783L44.1735 32.3799L44.7045 33.2273ZM39.2727 39.5227L38.3734 39.0854L38.3715 39.0894L39.2727 39.5227ZM39.2727 59.9318L38.3715 60.3652L38.3734 60.3692L39.2727 59.9318ZM44.7045 66.2273L44.1735 67.0746L44.1761 67.0762L44.7045 66.2273ZM56.8182 67.7273L56.5327 66.7689L56.5327 66.7689L56.8182 67.7273ZM60.7045 65.8409L61.2858 66.6546L61.2878 66.6532L60.7045 65.8409ZM63.7045 62.7273L62.8741 62.1702L62.8725 62.1726L63.7045 62.7273ZM65.4545 58.4545V57.4545H64.6408L64.4754 58.2513L65.4545 58.4545ZM71.0909 58.4545L72.0754 58.6301L72.285 57.4545H71.0909V58.4545ZM68.7727 64.8409L67.914 64.3285L67.914 64.3285L68.7727 64.8409ZM64.5909 69.6364L65.2068 70.4242L65.2112 70.4207L64.5909 69.6364ZM58.9773 72.6136L58.6652 71.6636L58.6631 71.6643L58.9773 72.6136ZM41.7727 70.7273L41.2412 71.5743L41.2412 71.5743L41.7727 70.7273ZM34.4773 62.4545L35.3732 62.0104L35.3732 62.0104L34.4773 62.4545ZM34.4773 37L33.5813 36.5558L34.4773 37ZM58.9773 26.8409L58.6631 27.7903L58.6652 27.791L58.9773 26.8409ZM64.5909 29.8409L63.9706 30.6253L63.975 30.6287L64.5909 29.8409ZM68.7727 34.6136L67.914 35.1261L67.9159 35.1292L68.7727 34.6136ZM71.0909 40H65.4545V42H71.0909V40ZM66.4341 40.7986C66.0773 39.0633 65.4473 37.5137 64.5319 36.1655L62.8772 37.289C63.6285 38.3954 64.1652 39.6942 64.475 41.2014L66.4341 40.7986ZM64.5366 36.1726C63.6515 34.8449 62.5654 33.7249 61.2808 32.8191L60.1283 34.4536C61.2073 35.2145 62.1213 36.1551 62.8725 37.282L64.5366 36.1726ZM61.2927 32.8276C60.0316 31.9105 58.6332 31.2245 57.1037 30.7689L56.5327 32.6857C57.8516 33.0785 59.0442 33.6653 60.1164 34.4451L61.2927 32.8276ZM57.1037 30.7689C55.5831 30.316 54.0019 30.0909 52.3636 30.0909V32.0909C53.8163 32.0909 55.2048 32.2901 56.5327 32.6857L57.1037 30.7689ZM52.3636 30.0909C49.3676 30.0909 46.63 30.8507 44.1761 32.3783L45.233 34.0762C47.3549 32.7553 49.7233 32.0909 52.3636 32.0909V30.0909ZM44.1735 32.3799C41.7194 33.9178 39.7913 36.1699 38.3734 39.0854L40.172 39.9601C41.4511 37.3301 43.1442 35.3852 45.2356 34.0746L44.1735 32.3799ZM38.3715 39.0894C36.9563 42.0325 36.2727 45.5915 36.2727 49.7273H38.2727C38.2727 45.8024 38.9225 42.5585 40.1739 39.9561L38.3715 39.0894ZM36.2727 49.7273C36.2727 53.863 36.9563 57.4221 38.3715 60.3652L40.1739 59.4984C38.9225 56.8961 38.2727 53.6521 38.2727 49.7273H36.2727ZM38.3734 60.3692C39.7913 63.2846 41.7194 65.5367 44.1735 67.0746L45.2356 65.3799C43.1442 64.0693 41.4511 62.1245 40.172 59.4945L38.3734 60.3692ZM44.1761 67.0762C46.63 68.6038 49.3676 69.3636 52.3636 69.3636V67.3636C49.7233 67.3636 47.3549 66.6992 45.233 65.3783L44.1761 67.0762ZM52.3636 69.3636C54.0019 69.3636 55.5831 69.1386 57.1037 68.6857L56.5327 66.7689C55.2048 67.1644 53.8163 67.3636 52.3636 67.3636V69.3636ZM57.1037 68.6857C58.6299 68.231 60.0259 67.5545 61.2858 66.6546L60.1233 65.0272C59.0498 65.794 57.855 66.375 56.5327 66.7689L57.1037 68.6857ZM61.2878 66.6532C62.5687 65.7336 63.6526 64.608 64.5366 63.282L62.8725 62.1726C62.1201 63.3011 61.204 64.2513 60.1213 65.0286L61.2878 66.6532ZM64.535 63.2843C65.4469 61.9247 66.0766 60.378 66.4337 58.6578L64.4754 58.2513C64.1658 59.7432 63.6288 61.045 62.8741 62.1702L64.535 63.2843ZM65.4545 59.4545H71.0909V57.4545H65.4545V59.4545ZM70.1064 58.279C69.7012 60.5512 68.9672 62.5637 67.914 64.3285L69.6314 65.3534C70.8207 63.3605 71.6321 61.1155 72.0754 58.6301L70.1064 58.279ZM67.914 64.3285C66.8532 66.106 65.5391 67.6115 63.9706 68.852L65.2112 70.4207C66.9761 69.0249 68.4498 67.3334 69.6314 65.3534L67.914 64.3285ZM63.975 68.8486C62.4024 70.078 60.6347 71.0167 58.6652 71.6636L59.2893 73.5637C61.4714 72.847 63.446 71.8008 65.2068 70.4242L63.975 68.8486ZM58.6631 71.6643C56.7119 72.3099 54.6141 72.6364 52.3636 72.6364V74.6364C54.8101 74.6364 57.1215 74.281 59.2914 73.563L58.6631 71.6643ZM52.3636 72.6364C48.5648 72.6364 45.2219 71.7109 42.3042 69.8802L41.2412 71.5743C44.5053 73.6224 48.2231 74.6364 52.3636 74.6364V72.6364ZM42.3042 69.8802C39.3841 68.048 37.0719 65.4368 35.3732 62.0104L33.5813 62.8987C35.4281 66.6238 37.9795 69.5278 41.2412 71.5743L42.3042 69.8802ZM35.3732 62.0104C33.6829 58.6008 32.8182 54.5171 32.8182 49.7273H30.8182C30.8182 54.7557 31.7262 59.1568 33.5813 62.8987L35.3732 62.0104ZM32.8182 49.7273C32.8182 44.9375 33.6829 40.8538 35.3732 37.4442L33.5813 36.5558C31.7262 40.2978 30.8182 44.6989 30.8182 49.7273H32.8182ZM35.3732 37.4442C37.0719 34.0177 39.3841 31.4065 42.3042 29.5743L41.2412 27.8802C37.9795 29.9268 35.4281 32.8308 33.5813 36.5558L35.3732 37.4442ZM42.3042 29.5743C45.2219 27.7436 48.5648 26.8182 52.3636 26.8182V24.8182C48.2231 24.8182 44.5053 25.8321 41.2412 27.8802L42.3042 29.5743ZM52.3636 26.8182C54.6141 26.8182 56.7119 27.1446 58.6631 27.7903L59.2914 25.8915C57.1215 25.1735 54.8101 24.8182 52.3636 24.8182V26.8182ZM58.6652 27.791C60.6325 28.4371 62.3987 29.3821 63.9706 30.6252L65.2112 29.0566C63.4498 27.6634 61.4736 26.6083 59.2893 25.8908L58.6652 27.791ZM63.975 30.6287C65.5411 31.8531 66.8538 33.3496 67.914 35.1261L69.6314 34.1012C68.4492 32.1201 66.9741 30.4347 65.2068 29.0531L63.975 30.6287ZM67.9159 35.1292C68.967 36.8763 69.7009 38.887 70.1063 41.1745L72.0756 40.8255C71.6325 38.3252 70.8209 36.0783 69.6296 34.0981L67.9159 35.1292Z" fill="black" fill-opacity="0.21"/>
</svg>
