<svg width="102" height="99" viewBox="0 0 102 99" fill="none" xmlns="http://www.w3.org/2000/svg">
<rect width="102" height="99" fill="#483D8B"/>
<path d="M48 73H33.6364V26.4545H48.6364C53.1515 26.4545 57.0152 27.3864 60.2273 29.25C63.4394 31.0985 65.9015 33.7576 67.6136 37.2273C69.3258 40.6818 70.1818 44.8182 70.1818 49.6364C70.1818 54.4848 69.3182 58.6591 67.5909 62.1591C65.8636 65.6439 63.3485 68.3258 60.0455 70.2045C56.7424 72.0682 52.7273 73 48 73ZM39.2727 68H47.6364C51.4848 68 54.6742 67.2576 57.2045 65.7727C59.7348 64.2879 61.6212 62.1742 62.8636 59.4318C64.1061 56.6894 64.7273 53.4242 64.7273 49.6364C64.7273 45.8788 64.1136 42.6439 62.8864 39.9318C61.6591 37.2045 59.8258 35.1136 57.3864 33.6591C54.947 32.1894 51.9091 31.4545 48.2727 31.4545H39.2727V68Z" fill="white"/>
<path d="M33.6364 73H32.6364V74H33.6364V73ZM33.6364 26.4545V25.4545H32.6364V26.4545H33.6364ZM60.2273 29.25L59.7254 30.115L59.7285 30.1167L60.2273 29.25ZM67.6136 37.2273L66.7169 37.6698L66.7176 37.6713L67.6136 37.2273ZM67.5909 62.1591L68.4869 62.6032L68.4877 62.6016L67.5909 62.1591ZM60.0455 70.2045L60.5369 71.0755L60.5399 71.0738L60.0455 70.2045ZM39.2727 68H38.2727V69H39.2727V68ZM57.2045 65.7727L56.6984 64.9103L57.2045 65.7727ZM62.8864 39.9318L61.9744 40.3422L61.9753 40.3441L62.8864 39.9318ZM57.3864 33.6591L56.8703 34.5156L56.8742 34.518L57.3864 33.6591ZM39.2727 31.4545V30.4545H38.2727V31.4545H39.2727ZM48 72H33.6364V74H48V72ZM34.6364 73V26.4545H32.6364V73H34.6364ZM33.6364 27.4545H48.6364V25.4545H33.6364V27.4545ZM48.6364 27.4545C53.0132 27.4545 56.6955 28.357 59.7254 30.115L60.7291 28.385C57.3348 26.4157 53.2898 25.4545 48.6364 25.4545V27.4545ZM59.7285 30.1167C62.761 31.8619 65.0884 34.3695 66.7169 37.6698L68.5104 36.7848C66.7147 33.1456 64.1178 30.3351 60.726 28.3833L59.7285 30.1167ZM66.7176 37.6713C68.3464 40.9577 69.1818 44.9347 69.1818 49.6364H71.1818C71.1818 44.7017 70.3051 40.4059 68.5096 36.7832L66.7176 37.6713ZM69.1818 49.6364C69.1818 54.3677 68.3391 58.3834 66.6942 61.7165L68.4877 62.6016C70.2973 58.9347 71.1818 54.602 71.1818 49.6364H69.1818ZM66.6949 61.715C65.0539 65.0258 62.6766 67.5575 59.551 69.3353L60.5399 71.0738C64.0204 69.094 66.6733 66.2621 68.4869 62.6032L66.6949 61.715ZM59.5541 69.3336C56.4337 71.0942 52.597 72 48 72V74C52.8576 74 57.0512 73.0422 60.5369 71.0755L59.5541 69.3336ZM39.2727 69H47.6364V67H39.2727V69ZM47.6364 69C51.6088 69 54.9862 68.234 57.7107 66.6352L56.6984 64.9103C54.3623 66.2812 51.3609 67 47.6364 67V69ZM57.7107 66.6352C60.424 65.0429 62.4492 62.7698 63.7745 59.8445L61.9528 59.0192C60.7932 61.5787 59.0457 63.5328 56.6984 64.9103L57.7107 66.6352ZM63.7745 59.8445C65.0888 56.9435 65.7273 53.531 65.7273 49.6364H63.7273C63.7273 53.3175 63.1233 56.4353 61.9528 59.0192L63.7745 59.8445ZM65.7273 49.6364C65.7273 45.7727 65.0966 42.3905 63.7974 39.5195L61.9753 40.3441C63.1307 42.8974 63.7273 45.9849 63.7273 49.6364H65.7273ZM63.7983 39.5215C62.4916 36.6177 60.5236 34.3655 57.8985 32.8002L56.8742 34.518C59.1279 35.8618 60.8266 37.7914 61.9744 40.3422L63.7983 39.5215ZM57.9024 32.8025C55.2696 31.2163 52.0414 30.4545 48.2727 30.4545V32.4545C51.7768 32.4545 54.6243 33.1625 56.8703 34.5156L57.9024 32.8025ZM48.2727 30.4545H39.2727V32.4545H48.2727V30.4545ZM38.2727 31.4545V68H40.2727V31.4545H38.2727Z" fill="black" fill-opacity="0.21"/>
</svg>
