<svg width="95" height="99" viewBox="0 0 95 99" fill="none" xmlns="http://www.w3.org/2000/svg">
<rect width="95" height="99" fill="#3CB371"/>
<path d="M33.6364 73V26.4545H61.7273V31.4545H39.2727V47.1818H60.2727V52.1818H39.2727V68H62.0909V73H33.6364Z" fill="white"/>
<path d="M33.6364 73H32.6364V74H33.6364V73ZM33.6364 26.4545V25.4545H32.6364V26.4545H33.6364ZM61.7273 26.4545H62.7273V25.4545H61.7273V26.4545ZM61.7273 31.4545V32.4545H62.7273V31.4545H61.7273ZM39.2727 31.4545V30.4545H38.2727V31.4545H39.2727ZM39.2727 47.1818H38.2727V48.1818H39.2727V47.1818ZM60.2727 47.1818H61.2727V46.1818H60.2727V47.1818ZM60.2727 52.1818V53.1818H61.2727V52.1818H60.2727ZM39.2727 52.1818V51.1818H38.2727V52.1818H39.2727ZM39.2727 68H38.2727V69H39.2727V68ZM62.0909 68H63.0909V67H62.0909V68ZM62.0909 73V74H63.0909V73H62.0909ZM34.6364 73V26.4545H32.6364V73H34.6364ZM33.6364 27.4545H61.7273V25.4545H33.6364V27.4545ZM60.7273 26.4545V31.4545H62.7273V26.4545H60.7273ZM61.7273 30.4545H39.2727V32.4545H61.7273V30.4545ZM38.2727 31.4545V47.1818H40.2727V31.4545H38.2727ZM39.2727 48.1818H60.2727V46.1818H39.2727V48.1818ZM59.2727 47.1818V52.1818H61.2727V47.1818H59.2727ZM60.2727 51.1818H39.2727V53.1818H60.2727V51.1818ZM38.2727 52.1818V68H40.2727V52.1818H38.2727ZM39.2727 69H62.0909V67H39.2727V69ZM61.0909 68V73H63.0909V68H61.0909ZM62.0909 72H33.6364V74H62.0909V72Z" fill="black" fill-opacity="0.21"/>
</svg>
