<svg width="94" height="99" viewBox="0 0 94 99" fill="none" xmlns="http://www.w3.org/2000/svg">
<rect width="94" height="99" fill="#008B8B"/>
<path d="M33.6364 73V26.4545H61.5455V31.4545H39.2727V47.1818H59.4545V52.1818H39.2727V73H33.6364Z" fill="white"/>
<path d="M33.6364 73H32.6364V74H33.6364V73ZM33.6364 26.4545V25.4545H32.6364V26.4545H33.6364ZM61.5455 26.4545H62.5455V25.4545H61.5455V26.4545ZM61.5455 31.4545V32.4545H62.5455V31.4545H61.5455ZM39.2727 31.4545V30.4545H38.2727V31.4545H39.2727ZM39.2727 47.1818H38.2727V48.1818H39.2727V47.1818ZM59.4545 47.1818H60.4545V46.1818H59.4545V47.1818ZM59.4545 52.1818V53.1818H60.4545V52.1818H59.4545ZM39.2727 52.1818V51.1818H38.2727V52.1818H39.2727ZM39.2727 73V74H40.2727V73H39.2727ZM34.6364 73V26.4545H32.6364V73H34.6364ZM33.6364 27.4545H61.5455V25.4545H33.6364V27.4545ZM60.5455 26.4545V31.4545H62.5455V26.4545H60.5455ZM61.5455 30.4545H39.2727V32.4545H61.5455V30.4545ZM38.2727 31.4545V47.1818H40.2727V31.4545H38.2727ZM39.2727 48.1818H59.4545V46.1818H39.2727V48.1818ZM58.4545 47.1818V52.1818H60.4545V47.1818H58.4545ZM59.4545 51.1818H39.2727V53.1818H59.4545V51.1818ZM38.2727 52.1818V73H40.2727V52.1818H38.2727ZM39.2727 72H33.6364V74H39.2727V72Z" fill="black" fill-opacity="0.21"/>
</svg>
