<svg width="104" height="99" viewBox="0 0 104 99" fill="none" xmlns="http://www.w3.org/2000/svg">
<rect width="104" height="99" fill="#4682B4"/>
<path d="M65.4545 41C64.9545 39.4697 64.2955 38.0985 63.4773 36.8864C62.6742 35.6591 61.7121 34.6136 60.5909 33.75C59.4849 32.8864 58.2273 32.2273 56.8182 31.7727C55.4091 31.3182 53.8636 31.0909 52.1818 31.0909C49.4242 31.0909 46.9167 31.803 44.6591 33.2273C42.4015 34.6515 40.6061 36.75 39.2727 39.5227C37.9394 42.2955 37.2727 45.697 37.2727 49.7273C37.2727 53.7576 37.947 57.1591 39.2955 59.9318C40.6439 62.7045 42.4697 64.803 44.7727 66.2273C47.0758 67.6515 49.6667 68.3636 52.5455 68.3636C55.2121 68.3636 57.5606 67.7955 59.5909 66.6591C61.6364 65.5076 63.2273 63.8864 64.3636 61.7955C65.5152 59.6894 66.0909 57.2121 66.0909 54.3636L67.8182 54.7273H53.8182V49.7273H71.5455V54.7273C71.5455 58.5606 70.7273 61.8939 69.0909 64.7273C67.4697 67.5606 65.2273 69.7576 62.3636 71.3182C59.5152 72.8636 56.2424 73.6364 52.5455 73.6364C48.4242 73.6364 44.803 72.6667 41.6818 70.7273C38.5758 68.7879 36.1515 66.0303 34.4091 62.4545C32.6818 58.8788 31.8182 54.6364 31.8182 49.7273C31.8182 46.0455 32.3106 42.7348 33.2955 39.7955C34.2955 36.8409 35.7045 34.3258 37.5227 32.25C39.3409 30.1742 41.4924 28.5833 43.9773 27.4773C46.4621 26.3712 49.197 25.8182 52.1818 25.8182C54.6364 25.8182 56.9242 26.1894 59.0455 26.9318C61.1818 27.6591 63.0833 28.697 64.75 30.0455C66.4318 31.3788 67.8333 32.9773 68.9545 34.8409C70.0758 36.6894 70.8485 38.7424 71.2727 41H65.4545Z" fill="white"/>
<path d="M65.4545 41L64.504 41.3106L64.7293 42H65.4545V41ZM63.4773 36.8864L62.6405 37.4339L62.6444 37.4399L62.6484 37.4458L63.4773 36.8864ZM60.5909 33.75L59.9755 34.5382L59.9807 34.5422L60.5909 33.75ZM56.8182 31.7727L57.1252 30.821L57.1252 30.821L56.8182 31.7727ZM39.2727 39.5227L40.1739 39.9561L40.1739 39.9561L39.2727 39.5227ZM39.2955 59.9318L38.3962 60.3692L38.3962 60.3692L39.2955 59.9318ZM44.7727 66.2273L44.2468 67.0778L44.7727 66.2273ZM59.5909 66.6591L60.0793 67.5317L60.0815 67.5305L59.5909 66.6591ZM64.3636 61.7955L63.4862 61.3157L63.485 61.3179L64.3636 61.7955ZM66.0909 54.3636L66.2969 53.3851L65.0909 53.1312V54.3636H66.0909ZM67.8182 54.7273V55.7273L68.0242 53.7487L67.8182 54.7273ZM53.8182 54.7273H52.8182V55.7273H53.8182V54.7273ZM53.8182 49.7273V48.7273H52.8182V49.7273H53.8182ZM71.5455 49.7273H72.5455V48.7273H71.5455V49.7273ZM69.0909 64.7273L68.225 64.2271L68.223 64.2306L69.0909 64.7273ZM62.3636 71.3182L62.8405 72.1971L62.8422 72.1963L62.3636 71.3182ZM41.6818 70.7273L41.1522 71.5755L41.154 71.5767L41.6818 70.7273ZM34.4091 62.4545L33.5086 62.8895L33.5101 62.8926L34.4091 62.4545ZM33.2955 39.7955L32.3482 39.4749L32.3473 39.4778L33.2955 39.7955ZM37.5227 32.25L38.275 32.9089L38.275 32.9089L37.5227 32.25ZM43.9773 27.4773L43.5706 26.5637L43.9773 27.4773ZM59.0455 26.9318L58.7151 27.8757L58.7232 27.8785L59.0455 26.9318ZM64.75 30.0455L64.121 30.8229L64.1288 30.8291L64.75 30.0455ZM68.9545 34.8409L68.0977 35.3564L68.0995 35.3595L68.9545 34.8409ZM71.2727 41V42H72.4782L72.2555 40.8153L71.2727 41ZM66.4051 40.6894C65.8792 39.0797 65.1812 37.6232 64.3061 36.3269L62.6484 37.4458C63.4098 38.5737 64.0299 39.8597 64.504 41.3106L66.4051 40.6894ZM64.3141 36.3388C63.452 35.0213 62.4142 33.8922 61.2011 32.9578L59.9807 34.5422C61.01 35.3351 61.8965 36.2968 62.6405 37.4339L64.3141 36.3388ZM61.2063 32.9618C60.0029 32.0221 58.6397 31.3096 57.1252 30.821L56.5112 32.7244C57.8149 33.145 58.9668 33.7506 59.9755 34.5382L61.2063 32.9618ZM57.1252 30.821C55.6045 30.3305 53.9539 30.0909 52.1818 30.0909V32.0909C53.7734 32.0909 55.2137 32.3059 56.5112 32.7244L57.1252 30.821ZM52.1818 30.0909C49.242 30.0909 46.5483 30.8531 44.1255 32.3815L45.1927 34.073C47.285 32.753 49.6065 32.0909 52.1818 32.0909V30.0909ZM44.1255 32.3815C41.686 33.9205 39.7736 36.1737 38.3715 39.0894L40.1739 39.9561C41.4386 37.3263 43.117 35.3825 45.1927 34.073L44.1255 32.3815ZM38.3715 39.0894C36.9563 42.0325 36.2727 45.5915 36.2727 49.7273H38.2727C38.2727 45.8024 38.9225 42.5585 40.1739 39.9561L38.3715 39.0894ZM36.2727 49.7273C36.2727 53.8644 36.9643 57.425 38.3962 60.3692L40.1947 59.4945C38.9296 56.8932 38.2727 53.6508 38.2727 49.7273H36.2727ZM38.3962 60.3692C39.8157 63.288 41.7612 65.5407 44.2468 67.0778L45.2987 65.3768C43.1782 64.0654 41.4722 62.1211 40.1947 59.4945L38.3962 60.3692ZM44.2468 67.0778C46.7179 68.606 49.4931 69.3636 52.5455 69.3636V67.3636C49.8402 67.3636 47.4336 66.697 45.2987 65.3768L44.2468 67.0778ZM52.5455 69.3636C55.3578 69.3636 57.8792 68.7631 60.0793 67.5317L59.1025 65.7865C57.2421 66.8278 55.0664 67.3636 52.5455 67.3636V69.3636ZM60.0815 67.5305C62.2931 66.2854 64.0174 64.5266 65.2423 62.273L63.485 61.3179C62.4371 63.2461 60.9796 64.7297 59.1003 65.7877L60.0815 67.5305ZM65.241 62.2752C66.4868 59.9968 67.0909 57.3485 67.0909 54.3636H65.0909C65.0909 57.0758 64.5435 59.382 63.4862 61.3157L65.241 62.2752ZM65.8849 55.3422L67.6122 55.7058L68.0242 53.7487L66.2969 53.3851L65.8849 55.3422ZM67.8182 53.7273H53.8182V55.7273H67.8182V53.7273ZM54.8182 54.7273V49.7273H52.8182V54.7273H54.8182ZM53.8182 50.7273H71.5455V48.7273H53.8182V50.7273ZM70.5455 49.7273V54.7273H72.5455V49.7273H70.5455ZM70.5455 54.7273C70.5455 58.4154 69.7595 61.5702 68.225 64.2271L69.9569 65.2274C71.6951 62.2177 72.5455 58.7058 72.5455 54.7273H70.5455ZM68.223 64.2306C66.6936 66.9034 64.586 68.9682 61.8851 70.4401L62.8422 72.1963C65.8686 70.5469 68.2458 68.2178 69.9589 65.2239L68.223 64.2306ZM61.8868 70.4392C59.2042 71.8947 56.0996 72.6364 52.5455 72.6364V74.6364C56.3853 74.6364 59.8261 73.8326 62.8405 72.1971L61.8868 70.4392ZM52.5455 72.6364C48.5875 72.6364 45.1537 71.7072 42.2096 69.8779L41.154 71.5767C44.4524 73.6261 48.261 74.6364 52.5455 74.6364V72.6364ZM42.2114 69.879C39.2782 68.0476 36.9756 65.4387 35.308 62.0165L33.5101 62.8926C35.3274 66.6219 37.8733 69.5282 41.1522 71.5755L42.2114 69.879ZM35.3095 62.0196C33.6614 58.6077 32.8182 54.5205 32.8182 49.7273H30.8182C30.8182 54.7522 31.7022 59.1499 33.5086 62.8895L35.3095 62.0196ZM32.8182 49.7273C32.8182 46.1337 33.2989 42.933 34.2436 40.1131L32.3473 39.4778C31.3224 42.5367 30.8182 45.9572 30.8182 49.7273H32.8182ZM34.2427 40.116C35.206 37.2698 36.554 34.8737 38.275 32.9089L36.7705 31.5911C34.8551 33.7778 33.3849 36.412 32.3482 39.4749L34.2427 40.116ZM38.275 32.9089C39.9992 30.9404 42.0333 29.4372 44.3839 28.3909L43.5706 26.5637C40.9515 27.7295 38.6826 29.4081 36.7705 31.5911L38.275 32.9089ZM44.3839 28.3909C46.7288 27.3471 49.3233 26.8182 52.1818 26.8182V24.8182C49.0706 24.8182 46.1955 25.3953 43.5706 26.5637L44.3839 28.3909ZM52.1818 26.8182C54.5342 26.8182 56.7094 27.1737 58.7151 27.8757L59.3758 25.988C57.1391 25.2051 54.7385 24.8182 52.1818 24.8182V26.8182ZM58.7232 27.8785C60.7541 28.5698 62.5506 29.5522 64.121 30.8229L65.379 29.268C63.6161 27.8417 61.6096 26.7483 59.3677 25.9852L58.7232 27.8785ZM64.1288 30.8291C65.7153 32.0869 67.0374 33.5942 68.0977 35.3564L69.8114 34.3254C68.6292 32.3604 67.1483 30.6707 65.3712 29.2618L64.1288 30.8291ZM68.0995 35.3595C69.1546 37.099 69.8865 39.0377 70.2899 41.1847L72.2555 40.8153C71.8105 38.4471 70.9969 36.2798 69.8096 34.3223L68.0995 35.3595ZM71.2727 40H65.4545V42H71.2727V40Z" fill="black" fill-opacity="0.21"/>
</svg>
