<svg width="104" height="99" viewBox="0 0 104 99" fill="none" xmlns="http://www.w3.org/2000/svg">
<rect width="104" height="99" fill="#000080"/>
<path d="M33.6364 73V26.4545H39.2727V47.1818H64.0909V26.4545H69.7273V73H64.0909V52.1818H39.2727V73H33.6364Z" fill="white"/>
<path d="M33.6364 73H32.6364V74H33.6364V73ZM33.6364 26.4545V25.4545H32.6364V26.4545H33.6364ZM39.2727 26.4545H40.2727V25.4545H39.2727V26.4545ZM39.2727 47.1818H38.2727V48.1818H39.2727V47.1818ZM64.0909 47.1818V48.1818H65.0909V47.1818H64.0909ZM64.0909 26.4545V25.4545H63.0909V26.4545H64.0909ZM69.7273 26.4545H70.7273V25.4545H69.7273V26.4545ZM69.7273 73V74H70.7273V73H69.7273ZM64.0909 73H63.0909V74H64.0909V73ZM64.0909 52.1818H65.0909V51.1818H64.0909V52.1818ZM39.2727 52.1818V51.1818H38.2727V52.1818H39.2727ZM39.2727 73V74H40.2727V73H39.2727ZM34.6364 73V26.4545H32.6364V73H34.6364ZM33.6364 27.4545H39.2727V25.4545H33.6364V27.4545ZM38.2727 26.4545V47.1818H40.2727V26.4545H38.2727ZM39.2727 48.1818H64.0909V46.1818H39.2727V48.1818ZM65.0909 47.1818V26.4545H63.0909V47.1818H65.0909ZM64.0909 27.4545H69.7273V25.4545H64.0909V27.4545ZM68.7273 26.4545V73H70.7273V26.4545H68.7273ZM69.7273 72H64.0909V74H69.7273V72ZM65.0909 73V52.1818H63.0909V73H65.0909ZM64.0909 51.1818H39.2727V53.1818H64.0909V51.1818ZM38.2727 52.1818V73H40.2727V52.1818H38.2727ZM39.2727 72H33.6364V74H39.2727V72Z" fill="black" fill-opacity="0.21"/>
</svg>
