<svg width="100" height="100" viewBox="0 0 100 100" fill="none" xmlns="http://www.w3.org/2000/svg">
<rect width="100" height="100" fill="#DAA520"/>
<path d="M55.9545 26.9545H61.5909V60.2273C61.5909 63.197 61.0455 65.7197 59.9545 67.7955C58.8636 69.8712 57.3258 71.447 55.3409 72.5227C53.3561 73.5985 51.0152 74.1364 48.3182 74.1364C45.7727 74.1364 43.5076 73.6742 41.5227 72.75C39.5379 71.8106 37.9773 70.4773 36.8409 68.75C35.7045 67.0227 35.1364 64.9697 35.1364 62.5909H40.6818C40.6818 63.9091 41.0076 65.0606 41.6591 66.0455C42.3258 67.0152 43.2348 67.7727 44.3864 68.3182C45.5379 68.8636 46.8485 69.1364 48.3182 69.1364C49.9394 69.1364 51.3182 68.7955 52.4545 68.1136C53.5909 67.4318 54.4545 66.4318 55.0455 65.1136C55.6515 63.7803 55.9545 62.1515 55.9545 60.2273V26.9545Z" fill="white"/>
<path d="M55.9545 26.9545V25.9545H54.9545V26.9545H55.9545ZM61.5909 26.9545H62.5909V25.9545H61.5909V26.9545ZM59.9545 67.7955L60.8397 68.2607L60.8397 68.2607L59.9545 67.7955ZM55.3409 72.5227L55.8174 73.4019L55.8174 73.4019L55.3409 72.5227ZM41.5227 72.75L41.0949 73.6539L41.1006 73.6565L41.5227 72.75ZM36.8409 68.75L36.0055 69.2996L36.0055 69.2996L36.8409 68.75ZM35.1364 62.5909V61.5909H34.1364V62.5909H35.1364ZM40.6818 62.5909H41.6818V61.5909H40.6818V62.5909ZM41.6591 66.0455L40.8251 66.5972L40.83 66.6046L40.835 66.612L41.6591 66.0455ZM44.3864 68.3182L44.8145 67.4144L44.8145 67.4144L44.3864 68.3182ZM52.4545 68.1136L51.9401 67.2561L51.9401 67.2561L52.4545 68.1136ZM55.0455 65.1136L54.1351 64.6998L54.1329 64.7046L55.0455 65.1136ZM55.9545 27.9545H61.5909V25.9545H55.9545V27.9545ZM60.5909 26.9545V60.2273H62.5909V26.9545H60.5909ZM60.5909 60.2273C60.5909 63.077 60.0674 65.4311 59.0693 67.3302L60.8397 68.2607C62.0235 66.0083 62.5909 63.3169 62.5909 60.2273H60.5909ZM59.0693 67.3302C58.0669 69.2377 56.668 70.666 54.8644 71.6436L55.8174 73.4019C57.9835 72.2279 59.6604 70.5047 60.8397 68.2607L59.0693 67.3302ZM54.8644 71.6436C53.0518 72.6259 50.881 73.1364 48.3182 73.1364V75.1364C51.1493 75.1364 53.6603 74.571 55.8174 73.4019L54.8644 71.6436ZM48.3182 73.1364C45.895 73.1364 43.7777 72.6969 41.9449 71.8435L41.1006 73.6565C43.2375 74.6516 45.6505 75.1364 48.3182 75.1364V73.1364ZM41.9505 71.8461C40.1207 70.9801 38.7055 69.7648 37.6763 68.2004L36.0055 69.2996C37.249 71.1897 38.955 72.6411 41.0949 73.6539L41.9505 71.8461ZM37.6763 68.2004C36.6628 66.6598 36.1364 64.8045 36.1364 62.5909H34.1364C34.1364 65.1349 34.7463 67.3856 36.0055 69.2996L37.6763 68.2004ZM35.1364 63.5909H40.6818V61.5909H35.1364V63.5909ZM39.6818 62.5909C39.6818 64.0817 40.0529 65.43 40.8251 66.5972L42.4931 65.4937C41.9622 64.6912 41.6818 63.7365 41.6818 62.5909H39.6818ZM40.835 66.612C41.6099 67.739 42.661 68.6074 43.9583 69.2219L44.8145 67.4144C43.8087 66.938 43.0417 66.2913 42.4831 65.4789L40.835 66.612ZM43.9583 69.2219C45.2627 69.8398 46.7231 70.1364 48.3182 70.1364V68.1364C46.9739 68.1364 45.8131 67.8875 44.8145 67.4144L43.9583 69.2219ZM48.3182 70.1364C50.0802 70.1364 51.6459 69.765 52.969 68.9711L51.9401 67.2561C50.9904 67.8259 49.7986 68.1364 48.3182 68.1364V70.1364ZM52.969 68.9711C54.2967 68.1745 55.2913 67.0099 55.958 65.5227L54.1329 64.7046C53.6178 65.8537 52.8851 66.6891 51.9401 67.2561L52.969 68.9711ZM55.9558 65.5274C56.6364 64.0302 56.9545 62.2515 56.9545 60.2273H54.9545C54.9545 62.0515 54.6666 63.5305 54.1351 64.6998L55.9558 65.5274ZM56.9545 60.2273V26.9545H54.9545V60.2273H56.9545Z" fill="black" fill-opacity="0.21"/>
</svg>
