<svg width="98" height="99" viewBox="0 0 98 99" fill="none" xmlns="http://www.w3.org/2000/svg">
<rect width="98" height="99" fill="#8B008B"/>
<path d="M33.6364 73V26.4545H39.2727V49.5455H39.8182L60.7273 26.4545H68.0909L48.5455 47.4545L68.0909 73H61.2727L45.0909 51.3636L39.2727 57.9091V73H33.6364Z" fill="white"/>
<path d="M33.6364 73H32.6364V74H33.6364V73ZM33.6364 26.4545V25.4545H32.6364V26.4545H33.6364ZM39.2727 26.4545H40.2727V25.4545H39.2727V26.4545ZM39.2727 49.5455H38.2727V50.5455H39.2727V49.5455ZM39.8182 49.5455V50.5455H40.2617L40.5594 50.2167L39.8182 49.5455ZM60.7273 26.4545V25.4545H60.2837L59.986 25.7833L60.7273 26.4545ZM68.0909 26.4545L68.8229 27.1358L70.3878 25.4545H68.0909V26.4545ZM48.5455 47.4545L47.8135 46.7732L47.2381 47.3915L47.7513 48.0622L48.5455 47.4545ZM68.0909 73V74H70.1152L68.8851 72.3923L68.0909 73ZM61.2727 73L60.4719 73.5989L60.7719 74H61.2727V73ZM45.0909 51.3636L45.8917 50.7647L45.1577 49.7833L44.3435 50.6993L45.0909 51.3636ZM39.2727 57.9091L38.5253 57.2447L38.2727 57.5289V57.9091H39.2727ZM39.2727 73V74H40.2727V73H39.2727ZM34.6364 73V26.4545H32.6364V73H34.6364ZM33.6364 27.4545H39.2727V25.4545H33.6364V27.4545ZM38.2727 26.4545V49.5455H40.2727V26.4545H38.2727ZM39.2727 50.5455H39.8182V48.5455H39.2727V50.5455ZM40.5594 50.2167L61.4685 27.1258L59.986 25.7833L39.0769 48.8742L40.5594 50.2167ZM60.7273 27.4545H68.0909V25.4545H60.7273V27.4545ZM67.3589 25.7732L47.8135 46.7732L49.2775 48.1358L68.8229 27.1358L67.3589 25.7732ZM47.7513 48.0622L67.2967 73.6077L68.8851 72.3923L49.3397 46.8469L47.7513 48.0622ZM68.0909 72H61.2727V74H68.0909V72ZM62.0735 72.4011L45.8917 50.7647L44.2901 51.9626L60.4719 73.5989L62.0735 72.4011ZM44.3435 50.6993L38.5253 57.2447L40.0201 58.5735L45.8383 52.028L44.3435 50.6993ZM38.2727 57.9091V73H40.2727V57.9091H38.2727ZM39.2727 72H33.6364V74H39.2727V72Z" fill="black" fill-opacity="0.21"/>
</svg>
