<svg width="92" height="99" viewBox="0 0 92 99" fill="none" xmlns="http://www.w3.org/2000/svg">
<rect width="92" height="99" fill="#FF0000"/>
<path d="M33.6364 73V26.4545H39.2727V68H60.9091V73H33.6364Z" fill="white"/>
<path d="M33.6364 73H32.6364V74H33.6364V73ZM33.6364 26.4545V25.4545H32.6364V26.4545H33.6364ZM39.2727 26.4545H40.2727V25.4545H39.2727V26.4545ZM39.2727 68H38.2727V69H39.2727V68ZM60.9091 68H61.9091V67H60.9091V68ZM60.9091 73V74H61.9091V73H60.9091ZM34.6364 73V26.4545H32.6364V73H34.6364ZM33.6364 27.4545H39.2727V25.4545H33.6364V27.4545ZM38.2727 26.4545V68H40.2727V26.4545H38.2727ZM39.2727 69H60.9091V67H39.2727V69ZM59.9091 68V73H61.9091V68H59.9091ZM60.9091 72H33.6364V74H60.9091V72Z" fill="black" fill-opacity="0.21"/>
</svg>
