<svg width="100" height="100" viewBox="0 0 100 100" fill="none" xmlns="http://www.w3.org/2000/svg">
<rect width="100" height="100" fill="#FFFF00"/>
<path d="M27.1364 26.9545H33.8636L49.6818 65.5909H50.2273L66.0455 26.9545H72.7727V73.5H67.5V38.1364H67.0455L52.5 73.5H47.4091L32.8636 38.1364H32.4091V73.5H27.1364V26.9545Z" fill="white"/>
<path d="M27.1364 26.9545V25.9545H26.1364V26.9545H27.1364ZM33.8636 26.9545L34.7891 26.5757L34.5348 25.9545H33.8636V26.9545ZM49.6818 65.5909L48.7564 65.9698L49.0107 66.5909H49.6818V65.5909ZM50.2273 65.5909V66.5909H50.8984L51.1527 65.9698L50.2273 65.5909ZM66.0455 26.9545V25.9545H65.3743L65.12 26.5757L66.0455 26.9545ZM72.7727 26.9545H73.7727V25.9545H72.7727V26.9545ZM72.7727 73.5V74.5H73.7727V73.5H72.7727ZM67.5 73.5H66.5V74.5H67.5V73.5ZM67.5 38.1364H68.5V37.1364H67.5V38.1364ZM67.0455 38.1364V37.1364H66.3755L66.1206 37.756L67.0455 38.1364ZM52.5 73.5V74.5H53.17L53.4248 73.8804L52.5 73.5ZM47.4091 73.5L46.4843 73.8804L46.7391 74.5H47.4091V73.5ZM32.8636 38.1364L33.7885 37.756L33.5336 37.1364H32.8636V38.1364ZM32.4091 38.1364V37.1364H31.4091V38.1364H32.4091ZM32.4091 73.5V74.5H33.4091V73.5H32.4091ZM27.1364 73.5H26.1364V74.5H27.1364V73.5ZM27.1364 27.9545H33.8636V25.9545H27.1364V27.9545ZM32.9382 27.3334L48.7564 65.9698L50.6073 65.212L34.7891 26.5757L32.9382 27.3334ZM49.6818 66.5909H50.2273V64.5909H49.6818V66.5909ZM51.1527 65.9698L66.9709 27.3334L65.12 26.5757L49.3018 65.212L51.1527 65.9698ZM66.0455 27.9545H72.7727V25.9545H66.0455V27.9545ZM71.7727 26.9545V73.5H73.7727V26.9545H71.7727ZM72.7727 72.5H67.5V74.5H72.7727V72.5ZM68.5 73.5V38.1364H66.5V73.5H68.5ZM67.5 37.1364H67.0455V39.1364H67.5V37.1364ZM66.1206 37.756L51.5752 73.1196L53.4248 73.8804L67.9703 38.5168L66.1206 37.756ZM52.5 72.5H47.4091V74.5H52.5V72.5ZM48.3339 73.1196L33.7885 37.756L31.9388 38.5168L46.4843 73.8804L48.3339 73.1196ZM32.8636 37.1364H32.4091V39.1364H32.8636V37.1364ZM31.4091 38.1364V73.5H33.4091V38.1364H31.4091ZM32.4091 72.5H27.1364V74.5H32.4091V72.5ZM28.1364 73.5V26.9545H26.1364V73.5H28.1364Z" fill="black" fill-opacity="0.21"/>
</svg>
