<svg width="105" height="99" viewBox="0 0 105 99" fill="none" xmlns="http://www.w3.org/2000/svg">
<rect width="105" height="99" fill="#00FF00"/>
<path d="M70.5455 26.4545V73H65.0909L39.7273 36.4545H39.2727V73H33.6364V26.4545H39.0909L64.5455 63.0909H65V26.4545H70.5455Z" fill="white"/>
<path d="M70.5455 26.4545H71.5455V25.4545H70.5455V26.4545ZM70.5455 73V74H71.5455V73H70.5455ZM65.0909 73L64.2694 73.5702L64.5677 74H65.0909V73ZM39.7273 36.4545L40.5488 35.8844L40.2505 35.4545H39.7273V36.4545ZM39.2727 36.4545V35.4545H38.2727V36.4545H39.2727ZM39.2727 73V74H40.2727V73H39.2727ZM33.6364 73H32.6364V74H33.6364V73ZM33.6364 26.4545V25.4545H32.6364V26.4545H33.6364ZM39.0909 26.4545L39.9121 25.884L39.6138 25.4545H39.0909V26.4545ZM64.5455 63.0909L63.7242 63.6615L64.0226 64.0909H64.5455V63.0909ZM65 63.0909V64.0909H66V63.0909H65ZM65 26.4545V25.4545H64V26.4545H65ZM69.5455 26.4545V73H71.5455V26.4545H69.5455ZM70.5455 72H65.0909V74H70.5455V72ZM65.9124 72.4298L40.5488 35.8844L38.9057 37.0247L64.2694 73.5702L65.9124 72.4298ZM39.7273 35.4545H39.2727V37.4545H39.7273V35.4545ZM38.2727 36.4545V73H40.2727V36.4545H38.2727ZM39.2727 72H33.6364V74H39.2727V72ZM34.6364 73V26.4545H32.6364V73H34.6364ZM33.6364 27.4545H39.0909V25.4545H33.6364V27.4545ZM38.2697 27.0251L63.7242 63.6615L65.3667 62.5203L39.9121 25.884L38.2697 27.0251ZM64.5455 64.0909H65V62.0909H64.5455V64.0909ZM66 63.0909V26.4545H64V63.0909H66ZM65 27.4545H70.5455V25.4545H65V27.4545Z" fill="black" fill-opacity="0.21"/>
</svg>
