<svg width="105" height="99" viewBox="0 0 105 99" fill="none" xmlns="http://www.w3.org/2000/svg">
<rect width="105" height="99" fill="#8A2BE2"/>
<path d="M72.9091 49.7273C72.9091 54.6364 72.0227 58.8788 70.25 62.4545C68.4773 66.0303 66.0455 68.7879 62.9545 70.7273C59.8636 72.6667 56.3333 73.6364 52.3636 73.6364C48.3939 73.6364 44.8636 72.6667 41.7727 70.7273C38.6818 68.7879 36.25 66.0303 34.4773 62.4545C32.7045 58.8788 31.8182 54.6364 31.8182 49.7273C31.8182 44.8182 32.7045 40.5758 34.4773 37C36.25 33.4242 38.6818 30.6667 41.7727 28.7273C44.8636 26.7879 48.3939 25.8182 52.3636 25.8182C56.3333 25.8182 59.8636 26.7879 62.9545 28.7273C66.0455 30.6667 68.4773 33.4242 70.25 37C72.0227 40.5758 72.9091 44.8182 72.9091 49.7273ZM67.4545 49.7273C67.4545 45.697 66.7803 42.2955 65.4318 39.5227C64.0985 36.75 62.2879 34.6515 60 33.2273C57.7273 31.803 55.1818 31.0909 52.3636 31.0909C49.5455 31.0909 46.9924 31.803 44.7045 33.2273C42.4318 34.6515 40.6212 36.75 39.2727 39.5227C37.9394 42.2955 37.2727 45.697 37.2727 49.7273C37.2727 53.7576 37.9394 57.1591 39.2727 59.9318C40.6212 62.7045 42.4318 64.803 44.7045 66.2273C46.9924 67.6515 49.5455 68.3636 52.3636 68.3636C55.1818 68.3636 57.7273 67.6515 60 66.2273C62.2879 64.803 64.0985 62.7045 65.4318 59.9318C66.7803 57.1591 67.4545 53.7576 67.4545 49.7273Z" fill="white"/>
<path d="M70.25 62.4545L69.3541 62.0104L69.3541 62.0104L70.25 62.4545ZM62.9545 70.7273L63.486 71.5743L63.486 71.5743L62.9545 70.7273ZM41.7727 70.7273L41.2412 71.5743L41.2412 71.5743L41.7727 70.7273ZM34.4773 62.4545L35.3732 62.0104L35.3732 62.0104L34.4773 62.4545ZM34.4773 37L33.5813 36.5558L34.4773 37ZM62.9545 28.7273L63.486 27.8802L63.486 27.8802L62.9545 28.7273ZM70.25 37L69.3541 37.4442L69.3541 37.4442L70.25 37ZM65.4318 39.5227L64.5306 39.9561L64.5325 39.9601L65.4318 39.5227ZM60 33.2273L59.469 34.0746L59.4715 34.0762L60 33.2273ZM44.7045 33.2273L44.1761 32.3783L44.1735 32.3799L44.7045 33.2273ZM39.2727 39.5227L38.3734 39.0854L38.3715 39.0894L39.2727 39.5227ZM39.2727 59.9318L38.3715 60.3652L38.3734 60.3692L39.2727 59.9318ZM44.7045 66.2273L44.1735 67.0746L44.1761 67.0762L44.7045 66.2273ZM60 66.2273L59.4715 65.3783L59.469 65.3799L60 66.2273ZM65.4318 59.9318L64.5325 59.4945L64.5306 59.4984L65.4318 59.9318ZM71.9091 49.7273C71.9091 54.5171 71.0444 58.6008 69.3541 62.0104L71.1459 62.8987C73.0011 59.1568 73.9091 54.7557 73.9091 49.7273H71.9091ZM69.3541 62.0104C67.6554 65.4368 65.3431 68.048 62.4231 69.8802L63.486 71.5743C66.7478 69.5278 69.2992 66.6238 71.1459 62.8987L69.3541 62.0104ZM62.4231 69.8802C59.5053 71.7109 56.1625 72.6364 52.3636 72.6364V74.6364C56.5042 74.6364 60.2219 73.6224 63.486 71.5743L62.4231 69.8802ZM52.3636 72.6364C48.5648 72.6364 45.2219 71.7109 42.3042 69.8802L41.2412 71.5743C44.5053 73.6224 48.2231 74.6364 52.3636 74.6364V72.6364ZM42.3042 69.8802C39.3841 68.048 37.0719 65.4368 35.3732 62.0104L33.5813 62.8987C35.4281 66.6238 37.9795 69.5278 41.2412 71.5743L42.3042 69.8802ZM35.3732 62.0104C33.6829 58.6008 32.8182 54.5171 32.8182 49.7273H30.8182C30.8182 54.7557 31.7262 59.1568 33.5813 62.8987L35.3732 62.0104ZM32.8182 49.7273C32.8182 44.9375 33.6829 40.8538 35.3732 37.4442L33.5813 36.5558C31.7262 40.2978 30.8182 44.6989 30.8182 49.7273H32.8182ZM35.3732 37.4442C37.0719 34.0177 39.3841 31.4065 42.3042 29.5743L41.2412 27.8802C37.9795 29.9268 35.4281 32.8308 33.5813 36.5558L35.3732 37.4442ZM42.3042 29.5743C45.2219 27.7436 48.5648 26.8182 52.3636 26.8182V24.8182C48.2231 24.8182 44.5053 25.8321 41.2412 27.8802L42.3042 29.5743ZM52.3636 26.8182C56.1625 26.8182 59.5053 27.7436 62.4231 29.5743L63.486 27.8802C60.2219 25.8321 56.5042 24.8182 52.3636 24.8182V26.8182ZM62.4231 29.5743C65.3431 31.4065 67.6554 34.0177 69.3541 37.4442L71.1459 36.5558C69.2992 32.8308 66.7478 29.9268 63.486 27.8802L62.4231 29.5743ZM69.3541 37.4442C71.0444 40.8538 71.9091 44.9375 71.9091 49.7273H73.9091C73.9091 44.6989 73.0011 40.2978 71.1459 36.5558L69.3541 37.4442ZM68.4545 49.7273C68.4545 45.5902 67.763 42.0296 66.3311 39.0854L64.5325 39.9601C65.7976 42.5613 66.4545 45.8038 66.4545 49.7273H68.4545ZM66.333 39.0894C64.9294 36.1704 62.9994 33.9165 60.5285 32.3783L59.4715 34.0762C61.5763 35.3865 63.2676 37.3296 64.5306 39.9561L66.333 39.0894ZM60.531 32.3799C58.0909 30.8508 55.3597 30.0909 52.3636 30.0909V32.0909C55.004 32.0909 57.3637 32.7553 59.469 34.0746L60.531 32.3799ZM52.3636 30.0909C49.3676 30.0909 46.63 30.8507 44.1761 32.3783L45.233 34.0762C47.3549 32.7553 49.7233 32.0909 52.3636 32.0909V30.0909ZM44.1735 32.3799C41.7194 33.9178 39.7913 36.1699 38.3734 39.0854L40.172 39.9601C41.4511 37.3301 43.1442 35.3852 45.2356 34.0746L44.1735 32.3799ZM38.3715 39.0894C36.9563 42.0325 36.2727 45.5915 36.2727 49.7273H38.2727C38.2727 45.8024 38.9225 42.5585 40.1739 39.9561L38.3715 39.0894ZM36.2727 49.7273C36.2727 53.863 36.9563 57.4221 38.3715 60.3652L40.1739 59.4984C38.9225 56.8961 38.2727 53.6521 38.2727 49.7273H36.2727ZM38.3734 60.3692C39.7913 63.2846 41.7194 65.5367 44.1735 67.0746L45.2356 65.3799C43.1442 64.0693 41.4511 62.1245 40.172 59.4945L38.3734 60.3692ZM44.1761 67.0762C46.63 68.6038 49.3676 69.3636 52.3636 69.3636V67.3636C49.7233 67.3636 47.3549 66.6992 45.233 65.3783L44.1761 67.0762ZM52.3636 69.3636C55.3597 69.3636 58.0909 68.6038 60.531 67.0746L59.469 65.3799C57.3637 66.6992 55.004 67.3636 52.3636 67.3636V69.3636ZM60.5285 67.0762C62.9994 65.538 64.9294 63.2842 66.333 60.3652L64.5306 59.4984C63.2676 62.1249 61.5763 64.0681 59.4715 65.3783L60.5285 67.0762ZM66.3311 60.3692C67.763 57.425 68.4545 53.8644 68.4545 49.7273H66.4545C66.4545 53.6508 65.7976 56.8932 64.5325 59.4945L66.3311 60.3692Z" fill="black" fill-opacity="0.21"/>
</svg>
