<svg width="97" height="99" viewBox="0 0 97 99" fill="none" xmlns="http://www.w3.org/2000/svg">
<rect width="97" height="99" fill="#00FF7F"/>
<path d="M33.6364 73V26.4545H49.3636C53.0152 26.4545 56 27.1136 58.3182 28.4318C60.6515 29.7348 62.3788 31.5 63.5 33.7273C64.6212 35.9545 65.1818 38.4394 65.1818 41.1818C65.1818 43.9242 64.6212 46.4167 63.5 48.6591C62.3939 50.9015 60.6818 52.6894 58.3636 54.0227C56.0455 55.3409 53.0758 56 49.4545 56H38.1818V51H49.2727C51.7727 51 53.7803 50.5682 55.2955 49.7045C56.8106 48.8409 57.9091 47.6742 58.5909 46.2045C59.2879 44.7197 59.6364 43.0455 59.6364 41.1818C59.6364 39.3182 59.2879 37.6515 58.5909 36.1818C57.9091 34.7121 56.803 33.5606 55.2727 32.7273C53.7424 31.8788 51.7121 31.4545 49.1818 31.4545H39.2727V73H33.6364Z" fill="white"/>
<path d="M33.6364 73H32.6364V74H33.6364V73ZM33.6364 26.4545V25.4545H32.6364V26.4545H33.6364ZM58.3182 28.4318L57.8239 29.3011L57.8306 29.3049L58.3182 28.4318ZM63.5 33.7273L62.6068 34.1769L62.6068 34.1769L63.5 33.7273ZM63.5 48.6591L62.6056 48.2119L62.6032 48.2167L63.5 48.6591ZM58.3636 54.0227L58.8579 54.892L58.8622 54.8896L58.3636 54.0227ZM38.1818 56H37.1818V57H38.1818V56ZM38.1818 51V50H37.1818V51H38.1818ZM55.2955 49.7045L54.8003 48.8358L54.8003 48.8358L55.2955 49.7045ZM58.5909 46.2045L57.6857 45.7796L57.6838 45.7837L58.5909 46.2045ZM58.5909 36.1818L57.6837 36.6027L57.6874 36.6103L58.5909 36.1818ZM55.2727 32.7273L54.7878 33.6019L54.7945 33.6055L55.2727 32.7273ZM39.2727 31.4545V30.4545H38.2727V31.4545H39.2727ZM39.2727 73V74H40.2727V73H39.2727ZM34.6364 73V26.4545H32.6364V73H34.6364ZM33.6364 27.4545H49.3636V25.4545H33.6364V27.4545ZM49.3636 27.4545C52.9031 27.4545 55.7019 28.0945 57.8239 29.3011L58.8125 27.5625C56.2981 26.1328 53.1272 25.4545 49.3636 25.4545V27.4545ZM57.8306 29.3049C60.0026 30.5178 61.582 32.1412 62.6068 34.1769L64.3932 33.2776C63.1756 30.8588 61.3004 28.9519 58.8057 27.5587L57.8306 29.3049ZM62.6068 34.1769C63.651 36.2512 64.1818 38.5797 64.1818 41.1818H66.1818C66.1818 38.2991 65.5914 35.6579 64.3932 33.2776L62.6068 34.1769ZM64.1818 41.1818C64.1818 43.7838 63.651 46.121 62.6056 48.2119L64.3944 49.1063C65.5914 46.7123 66.1818 44.0647 66.1818 41.1818H64.1818ZM62.6032 48.2167C61.591 50.2687 60.0239 51.9142 57.8651 53.1559L58.8622 54.8896C61.3397 53.4646 63.1969 51.5343 64.3968 49.1014L62.6032 48.2167ZM57.8693 53.1534C55.7462 54.3607 52.962 55 49.4545 55V57C53.1896 57 56.3447 56.3211 58.8579 54.892L57.8693 53.1534ZM49.4545 55H38.1818V57H49.4545V55ZM39.1818 56V51H37.1818V56H39.1818ZM38.1818 52H49.2727V50H38.1818V52ZM49.2727 52C51.8756 52 54.0732 51.5523 55.7907 50.5733L54.8003 48.8358C53.4874 49.5841 51.6699 50 49.2727 50V52ZM55.7907 50.5733C57.4718 49.6151 58.722 48.2982 59.498 46.6254L57.6838 45.7837C57.0962 47.0503 56.1495 48.0667 54.8003 48.8358L55.7907 50.5733ZM59.4961 46.6295C60.2635 44.9946 60.6364 43.1723 60.6364 41.1818H58.6364C58.6364 42.9186 58.3122 44.4448 57.6857 45.7796L59.4961 46.6295ZM60.6364 41.1818C60.6364 39.1916 60.2636 37.3752 59.4945 35.7533L57.6874 36.6103C58.3122 37.9278 58.6364 39.4448 58.6364 41.1818H60.6364ZM59.498 35.761C58.719 34.0818 57.4545 32.7767 55.751 31.849L54.7945 33.6055C56.1516 34.3445 57.0992 35.3425 57.6838 36.6027L59.498 35.761ZM55.7576 31.8527C54.0274 30.8934 51.811 30.4545 49.1818 30.4545V32.4545C51.6133 32.4545 53.4575 32.8642 54.7878 33.6018L55.7576 31.8527ZM49.1818 30.4545H39.2727V32.4545H49.1818V30.4545ZM38.2727 31.4545V73H40.2727V31.4545H38.2727ZM39.2727 72H33.6364V74H39.2727V72Z" fill="black" fill-opacity="0.21"/>
</svg>
