<svg width="97" height="99" viewBox="0 0 97 99" fill="none" xmlns="http://www.w3.org/2000/svg">
<rect width="97" height="99" fill="#00FFFF"/>
<path d="M33.6364 73V26.4545H49.3636C53 26.4545 55.9848 27.0758 58.3182 28.3182C60.6515 29.5455 62.3788 31.2348 63.5 33.3864C64.6212 35.5379 65.1818 37.9848 65.1818 40.7273C65.1818 43.4697 64.6212 45.9015 63.5 48.0227C62.3788 50.1439 60.6591 51.8106 58.3409 53.0227C56.0227 54.2197 53.0606 54.8182 49.4545 54.8182H36.7273V49.7273H49.2727C51.7576 49.7273 53.7576 49.3636 55.2727 48.6364C56.803 47.9091 57.9091 46.8788 58.5909 45.5455C59.2879 44.197 59.6364 42.5909 59.6364 40.7273C59.6364 38.8636 59.2879 37.2348 58.5909 35.8409C57.8939 34.447 56.7803 33.3712 55.25 32.6136C53.7197 31.8409 51.697 31.4545 49.1818 31.4545H39.2727V73H33.6364ZM55.5455 52.0909L67 73H60.4545L49.1818 52.0909H55.5455Z" fill="white"/>
<path d="M33.6364 73H32.6364V74H33.6364V73ZM33.6364 26.4545V25.4545H32.6364V26.4545H33.6364ZM58.3182 28.3182L57.8482 29.2009L57.8527 29.2032L58.3182 28.3182ZM63.5 33.3864L62.6132 33.8485L62.6132 33.8485L63.5 33.3864ZM63.5 48.0227L62.6159 47.5554L62.6159 47.5554L63.5 48.0227ZM58.3409 53.0227L58.7997 53.9113L58.8043 53.9089L58.3409 53.0227ZM36.7273 54.8182H35.7273V55.8182H36.7273V54.8182ZM36.7273 49.7273V48.7273H35.7273V49.7273H36.7273ZM55.2727 48.6364L54.8435 47.7332L54.84 47.7348L55.2727 48.6364ZM58.5909 45.5455L57.7025 45.0863L57.7006 45.0902L58.5909 45.5455ZM55.25 32.6136L54.7992 33.5063L54.8063 33.5098L55.25 32.6136ZM39.2727 31.4545V30.4545H38.2727V31.4545H39.2727ZM39.2727 73V74H40.2727V73H39.2727ZM55.5455 52.0909L56.4225 51.6105L56.1379 51.0909H55.5455V52.0909ZM67 73V74H68.6881L67.877 72.5195L67 73ZM60.4545 73L59.5743 73.4746L59.8576 74H60.4545V73ZM49.1818 52.0909V51.0909H47.5066L48.3016 52.5655L49.1818 52.0909ZM34.6364 73V26.4545H32.6364V73H34.6364ZM33.6364 27.4545H49.3636V25.4545H33.6364V27.4545ZM49.3636 27.4545C52.8946 27.4545 55.7036 28.0589 57.8482 29.2009L58.7882 27.4355C56.2661 26.0926 53.1054 25.4545 49.3636 25.4545V27.4545ZM57.8527 29.2032C60.0222 30.3443 61.5943 31.8933 62.6132 33.8485L64.3868 32.9242C63.1633 30.5764 61.2808 28.7466 58.7837 27.4331L57.8527 29.2032ZM62.6132 33.8485C63.6508 35.8396 64.1818 38.1246 64.1818 40.7273H66.1818C66.1818 37.8451 65.5916 35.2361 64.3868 32.9242L62.6132 33.8485ZM64.1818 40.7273C64.1818 43.3303 63.6507 45.5976 62.6159 47.5554L64.3841 48.49C65.5917 46.2054 66.1818 43.6091 66.1818 40.7273H64.1818ZM62.6159 47.5554C61.5979 49.4814 60.0333 51.0094 57.8776 52.1366L58.8043 53.9089C61.2849 52.6118 63.1597 50.8065 64.3841 48.49L62.6159 47.5554ZM57.8821 52.1342C55.7495 53.2354 52.9587 53.8182 49.4545 53.8182V55.8182C53.1625 55.8182 56.296 55.204 58.7997 53.9113L57.8821 52.1342ZM49.4545 53.8182H36.7273V55.8182H49.4545V53.8182ZM37.7273 54.8182V49.7273H35.7273V54.8182H37.7273ZM36.7273 50.7273H49.2727V48.7273H36.7273V50.7273ZM49.2727 50.7273C51.8416 50.7273 54.0064 50.3534 55.7055 49.5379L54.84 47.7348C53.5088 48.3738 51.6736 48.7273 49.2727 48.7273V50.7273ZM55.702 49.5396C57.4037 48.7308 58.6862 47.5555 59.4813 46.0007L57.7006 45.0902C57.132 46.2021 56.2024 47.0873 54.8435 47.7332L55.702 49.5396ZM59.4793 46.0046C60.2645 44.4854 60.6364 42.7148 60.6364 40.7273H58.6364C58.6364 42.467 58.3113 43.9085 57.7026 45.0863L59.4793 46.0046ZM60.6364 40.7273C60.6364 38.7385 60.2641 36.9511 59.4853 35.3937L57.6965 36.2881C58.3117 37.5186 58.6364 38.9888 58.6364 40.7273H60.6364ZM59.4853 35.3937C58.6816 33.7862 57.3993 32.5618 55.6937 31.7174L54.8063 33.5098C56.1613 34.1806 57.1063 35.1077 57.6965 36.2881L59.4853 35.3937ZM55.7007 31.721C53.9808 30.8525 51.786 30.4545 49.1818 30.4545V32.4545C51.608 32.4545 53.4586 32.8293 54.7993 33.5063L55.7007 31.721ZM49.1818 30.4545H39.2727V32.4545H49.1818V30.4545ZM38.2727 31.4545V73H40.2727V31.4545H38.2727ZM39.2727 72H33.6364V74H39.2727V72ZM54.6684 52.5714L66.123 73.4805L67.877 72.5195L56.4225 51.6105L54.6684 52.5714ZM67 72H60.4545V74H67V72ZM61.3348 72.5254L50.062 51.6164L48.3016 52.5655L59.5743 73.4746L61.3348 72.5254ZM49.1818 53.0909H55.5455V51.0909H49.1818V53.0909Z" fill="black" fill-opacity="0.21"/>
</svg>
