<svg width="97" height="99" viewBox="0 0 97 99" fill="none" xmlns="http://www.w3.org/2000/svg">
<rect width="97" height="99" fill="#0000FF"/>
<path d="M59.0909 38.0909C58.8182 35.7879 57.7121 34 55.7727 32.7273C53.8333 31.4545 51.4545 30.8182 48.6364 30.8182C46.5758 30.8182 44.7727 31.1515 43.2273 31.8182C41.697 32.4848 40.5 33.4015 39.6364 34.5682C38.7879 35.7348 38.3636 37.0606 38.3636 38.5455C38.3636 39.7879 38.6591 40.8561 39.25 41.75C39.8561 42.6288 40.6288 43.3636 41.5682 43.9545C42.5076 44.5303 43.4924 45.0076 44.5227 45.3864C45.553 45.75 46.5 46.0455 47.3636 46.2727L52.0909 47.5455C53.303 47.8636 54.6515 48.303 56.1364 48.8636C57.6364 49.4242 59.0682 50.1894 60.4318 51.1591C61.8106 52.1136 62.947 53.3409 63.8409 54.8409C64.7349 56.3409 65.1818 58.1818 65.1818 60.3636C65.1818 62.8788 64.5227 65.1515 63.2045 67.1818C61.9015 69.2121 59.9924 70.8258 57.4773 72.0227C54.9773 73.2197 51.9394 73.8182 48.3636 73.8182C45.0303 73.8182 42.1439 73.2803 39.7045 72.2045C37.2803 71.1288 35.3712 69.6288 33.9773 67.7045C32.5985 65.7803 31.8182 63.5455 31.6364 61H37.4545C37.6061 62.7576 38.197 64.2121 39.2273 65.3636C40.2727 66.5 41.5909 67.3485 43.1818 67.9091C44.7879 68.4545 46.5152 68.7273 48.3636 68.7273C50.5152 68.7273 52.447 68.3788 54.1591 67.6818C55.8712 66.9697 57.2273 65.9848 58.2273 64.7273C59.2273 63.4545 59.7273 61.9697 59.7273 60.2727C59.7273 58.7273 59.2955 57.4697 58.4318 56.5C57.5682 55.5303 56.4318 54.7424 55.0227 54.1364C53.6136 53.5303 52.0909 53 50.4545 52.5455L44.7273 50.9091C41.0909 49.8636 38.2121 48.3712 36.0909 46.4318C33.9697 44.4924 32.9091 41.9545 32.9091 38.8182C32.9091 36.2121 33.6136 33.9394 35.0227 32C36.447 30.0455 38.3561 28.5303 40.75 27.4545C43.1591 26.3636 45.8485 25.8182 48.8182 25.8182C51.8182 25.8182 54.4848 26.3561 56.8182 27.4318C59.1515 28.4924 61 29.947 62.3636 31.7955C63.7424 33.6439 64.4697 35.7424 64.5455 38.0909H59.0909Z" fill="white"/>
<path d="M59.0909 38.0909L58.0978 38.2085L58.2023 39.0909H59.0909V38.0909ZM55.7727 32.7273L55.2241 33.5633L55.2241 33.5633L55.7727 32.7273ZM43.2273 31.8182L42.8312 30.9L42.8279 30.9014L43.2273 31.8182ZM39.6364 34.5682L38.8326 33.9732L38.8276 33.98L39.6364 34.5682ZM39.25 41.75L38.4158 42.3014L38.4212 42.3096L38.4268 42.3177L39.25 41.75ZM41.5682 43.9545L41.0357 44.8011L41.0456 44.8071L41.5682 43.9545ZM44.5227 45.3864L44.1776 46.325L44.1899 46.3294L44.5227 45.3864ZM47.3636 46.2727L47.6236 45.3071L47.6181 45.3057L47.3636 46.2727ZM52.0909 47.5455L51.8309 48.5111L51.837 48.5127L52.0909 47.5455ZM56.1364 48.8636L55.7831 49.7992L55.7863 49.8004L56.1364 48.8636ZM60.4318 51.1591L59.8523 51.9741L59.8626 51.9813L60.4318 51.1591ZM63.8409 54.8409L64.6999 54.329L64.6999 54.329L63.8409 54.8409ZM63.2045 67.1818L62.3658 66.6373L62.363 66.6417L63.2045 67.1818ZM57.4773 72.0227L57.0476 71.1198L57.0454 71.1208L57.4773 72.0227ZM39.7045 72.2045L39.2989 73.1186L39.301 73.1195L39.7045 72.2045ZM33.9773 67.7045L33.1644 68.287L33.1674 68.2912L33.9773 67.7045ZM31.6364 61V60H30.5624L30.6389 61.0712L31.6364 61ZM37.4545 61L38.4509 60.9141L38.372 60H37.4545V61ZM39.2273 65.3636L38.482 66.0305L38.4913 66.0407L39.2273 65.3636ZM43.1818 67.9091L42.8494 68.8523L42.8602 68.856L43.1818 67.9091ZM54.1591 67.6818L54.5361 68.608L54.5431 68.6051L54.1591 67.6818ZM58.2273 64.7273L59.01 65.3497L59.0136 65.3451L58.2273 64.7273ZM58.4318 56.5L59.1786 55.8349L59.1786 55.8349L58.4318 56.5ZM55.0227 54.1364L54.6276 55.055L54.6276 55.055L55.0227 54.1364ZM50.4545 52.5455L50.1798 53.507L50.1869 53.509L50.4545 52.5455ZM44.7273 50.9091L44.451 51.8702L44.4526 51.8706L44.7273 50.9091ZM36.0909 46.4318L35.4161 47.1698L35.4161 47.1698L36.0909 46.4318ZM35.0227 32L34.2145 31.4111L34.2137 31.4122L35.0227 32ZM40.75 27.4545L41.1599 28.3667L41.1625 28.3655L40.75 27.4545ZM56.8182 27.4318L56.3995 28.34L56.4044 28.3422L56.8182 27.4318ZM62.3636 31.7955L61.5589 32.3891L61.5621 32.3933L62.3636 31.7955ZM64.5455 38.0909V39.0909H65.5782L65.5449 38.0587L64.5455 38.0909ZM60.084 37.9733C59.7765 35.3768 58.5077 33.326 56.3214 31.8912L55.2241 33.5633C56.9166 34.674 57.8599 36.1989 58.0978 38.2085L60.084 37.9733ZM56.3214 31.8912C54.1869 30.4905 51.6072 29.8182 48.6364 29.8182V31.8182C51.3019 31.8182 53.4798 32.4186 55.2241 33.5633L56.3214 31.8912ZM48.6364 29.8182C46.4693 29.8182 44.5264 30.1687 42.8312 30.9L43.6234 32.7364C45.019 32.1343 46.6822 31.8182 48.6364 31.8182V29.8182ZM42.8279 30.9014C41.1614 31.6274 39.8153 32.6457 38.8326 33.9732L40.4401 35.1632C41.1847 34.1573 42.2326 33.3423 43.6267 32.735L42.8279 30.9014ZM38.8276 33.98C37.851 35.3229 37.3636 36.8559 37.3636 38.5455H39.3636C39.3636 37.2653 39.7248 36.1468 40.4451 35.1564L38.8276 33.98ZM37.3636 38.5455C37.3636 39.9519 37.7003 41.2191 38.4158 42.3014L40.0842 41.1986C39.6178 40.493 39.3636 39.6238 39.3636 38.5455H37.3636ZM38.4268 42.3177C39.1129 43.3126 39.9862 44.1408 41.0357 44.801L42.1006 43.1081C41.2714 42.5865 40.5992 41.945 40.0732 41.1823L38.4268 42.3177ZM41.0456 44.8071C42.041 45.4172 43.0853 45.9233 44.1777 46.3249L44.8678 44.4478C43.8996 44.0918 42.9742 43.6434 42.0907 43.1019L41.0456 44.8071ZM44.1899 46.3294C45.2405 46.7002 46.214 47.0042 47.1091 47.2398L47.6181 45.3057C46.786 45.0867 45.8655 44.7998 44.8555 44.4434L44.1899 46.3294ZM47.1037 47.2383L51.8309 48.5111L52.3509 46.5798L47.6236 45.3071L47.1037 47.2383ZM51.837 48.5127C53.008 48.8201 54.3227 49.2478 55.7831 49.7992L56.4896 47.9281C54.9803 47.3583 53.598 46.9072 52.3448 46.5782L51.837 48.5127ZM55.7863 49.8004C57.2012 50.3292 58.5563 51.0525 59.8523 51.974L61.0113 50.3441C59.58 49.3263 58.0715 48.5193 56.4864 47.9269L55.7863 49.8004ZM59.8626 51.9813C61.1188 52.851 62.1581 53.9706 62.9819 55.3529L64.6999 54.329C63.7358 52.7112 62.5024 51.3763 61.001 50.3369L59.8626 51.9813ZM62.9819 55.3528C63.7631 56.6638 64.1818 58.3175 64.1818 60.3636H66.1818C66.1818 58.0461 65.7066 56.018 64.6999 54.329L62.9819 55.3528ZM64.1818 60.3636C64.1818 62.6935 63.5745 64.7756 62.3658 66.6373L64.0433 67.7264C65.471 65.5274 66.1818 63.0641 66.1818 60.3636H64.1818ZM62.363 66.6417C61.1755 68.492 59.4208 69.9903 57.0476 71.1198L57.907 72.9257C60.564 71.6612 62.6276 69.9323 64.0461 67.7219L62.363 66.6417ZM57.0454 71.1208C54.7134 72.2373 51.8317 72.8182 48.3636 72.8182V74.8182C52.0471 74.8182 55.2411 74.2021 57.9091 72.9247L57.0454 71.1208ZM48.3636 72.8182C45.1355 72.8182 42.3927 72.2971 40.108 71.2896L39.301 73.1195C41.8952 74.2635 44.9251 74.8182 48.3636 74.8182V72.8182ZM40.1102 71.2905C37.828 70.2778 36.0659 68.8832 34.7871 67.1179L33.1674 68.2912C34.6765 70.3744 36.7326 71.9798 39.2989 73.1186L40.1102 71.2905ZM34.7901 67.1221C33.5273 65.3597 32.8036 63.305 32.6338 60.9288L30.6389 61.0712C30.8328 63.7859 31.6697 66.2009 33.1644 68.287L34.7901 67.1221ZM31.6364 62H37.4545V60H31.6364V62ZM36.4582 61.0859C36.6256 63.0273 37.2874 64.6952 38.482 66.0304L39.9725 64.6968C39.1066 63.729 38.5865 62.4879 38.4509 60.9141L36.4582 61.0859ZM38.4913 66.0407C39.6575 67.3083 41.1189 68.2424 42.8495 68.8522L43.5142 66.9659C42.063 66.4546 40.8879 65.6917 39.9632 64.6866L38.4913 66.0407ZM42.8602 68.856C44.5788 69.4396 46.4156 69.7273 48.3636 69.7273V67.7273C46.6147 67.7273 44.997 67.4695 43.5034 66.9622L42.8602 68.856ZM48.3636 69.7273C50.6235 69.7273 52.6863 69.361 54.5361 68.608L53.7821 66.7556C52.2076 67.3965 50.4068 67.7273 48.3636 67.7273V69.7273ZM54.5431 68.6051C56.3872 67.8381 57.8894 66.7588 59.01 65.3497L57.4446 64.1049C56.5651 65.2109 55.3553 66.1012 53.7751 66.7585L54.5431 68.6051ZM59.0136 65.3451C60.1591 63.8872 60.7273 62.1821 60.7273 60.2727H58.7273C58.7273 61.7573 58.2955 63.0219 57.441 64.1095L59.0136 65.3451ZM60.7273 60.2727C60.7273 58.5312 60.2353 57.0214 59.1786 55.8349L57.6851 57.1651C58.3556 57.918 58.7273 58.9233 58.7273 60.2727H60.7273ZM59.1786 55.8349C58.2016 54.738 56.9372 53.8712 55.4178 53.2177L54.6276 55.055C55.9265 55.6136 56.9347 56.3226 57.6851 57.1651L59.1786 55.8349ZM55.4178 53.2177C53.9632 52.5921 52.3975 52.0473 50.7222 51.5819L50.1869 53.509C51.7844 53.9527 53.2641 54.4685 54.6276 55.055L55.4178 53.2177ZM50.7293 51.5839L45.002 49.9476L44.4526 51.8706L50.1798 53.507L50.7293 51.5839ZM45.0036 49.948C41.4704 48.9322 38.7429 47.5015 36.7657 45.6938L35.4161 47.1698C37.6813 49.2409 40.7114 50.795 44.451 51.8702L45.0036 49.948ZM36.7657 45.6938C34.8719 43.9623 33.9091 41.7024 33.9091 38.8182H31.9091C31.9091 42.2067 33.0675 45.0225 35.4161 47.1698L36.7657 45.6938ZM33.9091 38.8182C33.9091 36.4039 34.5577 34.3413 35.8317 32.5878L34.2137 31.4122C32.6696 33.5375 31.9091 36.0203 31.9091 38.8182H33.9091ZM35.8309 32.5889C37.1441 30.7868 38.9106 29.3774 41.1599 28.3667L40.3401 26.5424C37.8015 27.6832 35.7498 29.3042 34.2145 31.4111L35.8309 32.5889ZM41.1625 28.3655C43.4269 27.3401 45.9732 26.8182 48.8182 26.8182V24.8182C45.7238 24.8182 42.8913 25.3872 40.3375 26.5436L41.1625 28.3655ZM48.8182 26.8182C51.6977 26.8182 54.2177 27.334 56.3995 28.3399L57.2369 26.5237C54.752 25.3781 51.9387 24.8182 48.8182 24.8182V26.8182ZM56.4044 28.3422C58.6009 29.3406 60.3078 30.6931 61.5589 32.3891L63.1684 31.2018C61.6922 29.2008 59.7022 27.6443 57.232 26.5214L56.4044 28.3422ZM61.5621 32.3933C62.8162 34.0747 63.4767 35.9749 63.546 38.1231L65.5449 38.0587C65.4627 35.51 64.6687 33.2132 63.1652 31.1976L61.5621 32.3933ZM64.5455 37.0909H59.0909V39.0909H64.5455V37.0909Z" fill="black" fill-opacity="0.21"/>
</svg>
