<svg width="98" height="99" viewBox="0 0 98 99" fill="none" xmlns="http://www.w3.org/2000/svg">
<rect width="98" height="99" fill="#FF7F50"/>
<path d="M31.0909 31.4545V26.4545H66V31.4545H51.3636V73H45.7273V31.4545H31.0909Z" fill="white"/>
<path d="M31.0909 31.4545H30.0909V32.4545H31.0909V31.4545ZM31.0909 26.4545V25.4545H30.0909V26.4545H31.0909ZM66 26.4545H67V25.4545H66V26.4545ZM66 31.4545V32.4545H67V31.4545H66ZM51.3636 31.4545V30.4545H50.3636V31.4545H51.3636ZM51.3636 73V74H52.3636V73H51.3636ZM45.7273 73H44.7273V74H45.7273V73ZM45.7273 31.4545H46.7273V30.4545H45.7273V31.4545ZM32.0909 31.4545V26.4545H30.0909V31.4545H32.0909ZM31.0909 27.4545H66V25.4545H31.0909V27.4545ZM65 26.4545V31.4545H67V26.4545H65ZM66 30.4545H51.3636V32.4545H66V30.4545ZM50.3636 31.4545V73H52.3636V31.4545H50.3636ZM51.3636 72H45.7273V74H51.3636V72ZM46.7273 73V31.4545H44.7273V73H46.7273ZM45.7273 30.4545H31.0909V32.4545H45.7273V30.4545Z" fill="black" fill-opacity="0.21"/>
</svg>
