<svg width="104" height="99" viewBox="0 0 104 99" fill="none" xmlns="http://www.w3.org/2000/svg">
<rect width="104" height="99" fill="#FF00FF"/>
<path d="M64.1818 26.4545H69.8182V57.2727C69.8182 60.4545 69.0682 63.2955 67.5682 65.7955C66.0833 68.2803 63.9849 70.2424 61.2727 71.6818C58.5606 73.1061 55.3788 73.8182 51.7273 73.8182C48.0758 73.8182 44.8939 73.1061 42.1818 71.6818C39.4697 70.2424 37.3636 68.2803 35.8636 65.7955C34.3788 63.2955 33.6364 60.4545 33.6364 57.2727V26.4545H39.2727V56.8182C39.2727 59.0909 39.7727 61.1136 40.7727 62.8864C41.7727 64.6439 43.197 66.0303 45.0455 67.0455C46.9091 68.0455 49.1364 68.5455 51.7273 68.5455C54.3182 68.5455 56.5455 68.0455 58.4091 67.0455C60.2727 66.0303 61.697 64.6439 62.6818 62.8864C63.6818 61.1136 64.1818 59.0909 64.1818 56.8182V26.4545Z" fill="white"/>
<path d="M64.1818 26.4545V25.4545H63.1818V26.4545H64.1818ZM69.8182 26.4545H70.8182V25.4545H69.8182V26.4545ZM67.5682 65.7955L66.7107 65.281L66.7098 65.2825L67.5682 65.7955ZM61.2727 71.6818L61.7377 72.5672L61.7415 72.5651L61.2727 71.6818ZM42.1818 71.6818L41.713 72.5651L41.7169 72.5672L42.1818 71.6818ZM35.8636 65.7955L35.0038 66.3061L35.0075 66.3123L35.8636 65.7955ZM33.6364 26.4545V25.4545H32.6364V26.4545H33.6364ZM39.2727 26.4545H40.2727V25.4545H39.2727V26.4545ZM40.7727 62.8864L39.9017 63.3777L39.9036 63.3809L40.7727 62.8864ZM45.0455 67.0455L44.5641 67.922L44.5726 67.9266L45.0455 67.0455ZM58.4091 67.0455L58.8819 67.9266L58.8874 67.9236L58.4091 67.0455ZM62.6818 62.8864L61.8108 62.395L61.8094 62.3975L62.6818 62.8864ZM64.1818 27.4545H69.8182V25.4545H64.1818V27.4545ZM68.8182 26.4545V57.2727H70.8182V26.4545H68.8182ZM68.8182 57.2727C68.8182 60.2904 68.109 62.9504 66.7107 65.281L68.4257 66.31C70.0273 63.6405 70.8182 60.6187 70.8182 57.2727H68.8182ZM66.7098 65.2825C65.3243 67.601 63.365 69.4393 60.8039 70.7985L61.7415 72.5651C64.6047 71.0456 66.8424 68.9596 68.4266 66.3084L66.7098 65.2825ZM60.8078 70.7965C58.2642 72.1322 55.2478 72.8182 51.7273 72.8182V74.8182C55.5098 74.8182 58.857 74.0799 61.7377 72.5672L60.8078 70.7965ZM51.7273 72.8182C48.2068 72.8182 45.1904 72.1322 42.6467 70.7965L41.7169 72.5672C44.5975 74.0799 47.9447 74.8182 51.7273 74.8182V72.8182ZM42.6506 70.7985C40.0888 69.4389 38.1207 67.5995 36.7197 65.2787L35.0075 66.3123C36.6066 68.9612 38.8506 71.046 41.713 72.5651L42.6506 70.7985ZM36.7234 65.2848C35.3389 62.9537 34.6364 60.2923 34.6364 57.2727H32.6364C32.6364 60.6168 33.4187 63.6372 35.0039 66.3061L36.7234 65.2848ZM34.6364 57.2727V26.4545H32.6364V57.2727H34.6364ZM33.6364 27.4545H39.2727V25.4545H33.6364V27.4545ZM38.2727 26.4545V56.8182H40.2727V26.4545H38.2727ZM38.2727 56.8182C38.2727 59.2426 38.8076 61.4381 39.9017 63.3777L41.6437 62.395C40.7378 60.7891 40.2727 58.9393 40.2727 56.8182H38.2727ZM39.9036 63.3809C40.999 65.3063 42.5608 66.8218 44.5641 67.922L45.5268 66.1689C43.8331 65.2388 42.5464 63.9816 41.6419 62.3918L39.9036 63.3809ZM44.5726 67.9266C46.6109 69.0203 49.0081 69.5455 51.7273 69.5455V67.5455C49.2647 67.5455 47.2073 67.0706 45.5183 66.1643L44.5726 67.9266ZM51.7273 69.5455C54.4465 69.5455 56.8437 69.0203 58.8819 67.9266L57.9363 66.1643C56.2473 67.0706 54.1899 67.5455 51.7273 67.5455V69.5455ZM58.8874 67.9236C60.9072 66.8234 62.4723 65.306 63.5542 63.3752L61.8094 62.3975C60.9217 63.9819 59.6382 65.2372 57.9307 66.1673L58.8874 67.9236ZM63.5528 63.3777C64.6469 61.4381 65.1818 59.2426 65.1818 56.8182H63.1818C63.1818 58.9393 62.7167 60.7891 61.8108 62.395L63.5528 63.3777ZM65.1818 56.8182V26.4545H63.1818V56.8182H65.1818Z" fill="black" fill-opacity="0.21"/>
</svg>
