<svg width="100" height="99" viewBox="0 0 100 99" fill="none" xmlns="http://www.w3.org/2000/svg">
<rect width="100" height="99" fill="#1E90FF"/>
<path d="M35.5455 26.4545L49.3636 65.6364H49.9091L63.7273 26.4545H69.6364L52.5455 73H46.7273L29.6364 26.4545H35.5455Z" fill="white"/>
<path d="M35.5455 26.4545L36.4885 26.122L36.2532 25.4545H35.5455V26.4545ZM49.3636 65.6364L48.4206 65.969L48.6559 66.6364H49.3636V65.6364ZM49.9091 65.6364V66.6364H50.6168L50.8522 65.969L49.9091 65.6364ZM63.7273 26.4545V25.4545H63.0196L62.7842 26.122L63.7273 26.4545ZM69.6364 26.4545L70.5751 26.7992L71.0688 25.4545H69.6364V26.4545ZM52.5455 73V74H53.2436L53.4842 73.3447L52.5455 73ZM46.7273 73L45.7886 73.3447L46.0292 74H46.7273V73ZM29.6364 26.4545V25.4545H28.2039L28.6976 26.7992L29.6364 26.4545ZM34.6024 26.7871L48.4206 65.969L50.3067 65.3038L36.4885 26.122L34.6024 26.7871ZM49.3636 66.6364H49.9091V64.6364H49.3636V66.6364ZM50.8522 65.969L64.6703 26.7871L62.7842 26.122L48.966 65.3038L50.8522 65.969ZM63.7273 27.4545H69.6364V25.4545H63.7273V27.4545ZM68.6976 26.1099L51.6067 72.6553L53.4842 73.3447L70.5751 26.7992L68.6976 26.1099ZM52.5455 72H46.7273V74H52.5455V72ZM47.666 72.6553L30.5751 26.1099L28.6976 26.7992L45.7886 73.3447L47.666 72.6553ZM29.6364 27.4545H35.5455V25.4545H29.6364V27.4545Z" fill="black" fill-opacity="0.21"/>
</svg>
