<svg width="100" height="100" viewBox="0 0 100 100" fill="none" xmlns="http://www.w3.org/2000/svg">
<rect width="100" height="100" fill="#DB7093"/>
<path d="M33.5909 73.5L20.8636 26.9545H26.5909L36.3182 64.8636H36.7727L46.6818 26.9545H53.0455L62.9545 64.8636H63.4091L73.1364 26.9545H78.8636L66.1364 73.5H60.3182L50.0455 36.4091H49.6818L39.4091 73.5H33.5909Z" fill="white"/>
<path d="M33.5909 73.5L32.6263 73.7638L32.8276 74.5H33.5909V73.5ZM20.8636 26.9545V25.9545H19.5535L19.899 27.2183L20.8636 26.9545ZM26.5909 26.9545L27.5595 26.706L27.3667 25.9545H26.5909V26.9545ZM36.3182 64.8636L35.3496 65.1122L35.5424 65.8636H36.3182V64.8636ZM36.7727 64.8636V65.8636H37.5449L37.7402 65.1165L36.7727 64.8636ZM46.6818 26.9545V25.9545H45.9096L45.7143 26.7016L46.6818 26.9545ZM53.0455 26.9545L54.0129 26.7016L53.8177 25.9545H53.0455V26.9545ZM62.9545 64.8636L61.9871 65.1165L62.1823 65.8636H62.9545V64.8636ZM63.4091 64.8636V65.8636H64.1849L64.3777 65.1122L63.4091 64.8636ZM73.1364 26.9545V25.9545H72.3606L72.1677 26.706L73.1364 26.9545ZM78.8636 26.9545L79.8282 27.2183L80.1738 25.9545H78.8636V26.9545ZM66.1364 73.5V74.5H66.8996L67.101 73.7638L66.1364 73.5ZM60.3182 73.5L59.3545 73.7669L59.5575 74.5H60.3182V73.5ZM50.0455 36.4091L51.0092 36.1422L50.8061 35.4091H50.0455V36.4091ZM49.6818 36.4091V35.4091H48.9211L48.7181 36.1422L49.6818 36.4091ZM39.4091 73.5V74.5H40.1698L40.3728 73.7669L39.4091 73.5ZM34.5555 73.2362L21.8282 26.6908L19.899 27.2183L32.6263 73.7638L34.5555 73.2362ZM20.8636 27.9545H26.5909V25.9545H20.8636V27.9545ZM25.6223 27.2031L35.3496 65.1122L37.2868 64.6151L27.5595 26.706L25.6223 27.2031ZM36.3182 65.8636H36.7727V63.8636H36.3182V65.8636ZM37.7402 65.1165L47.6493 27.2074L45.7143 26.7016L35.8052 64.6107L37.7402 65.1165ZM46.6818 27.9545H53.0455V25.9545H46.6818V27.9545ZM52.078 27.2074L61.9871 65.1165L63.922 64.6107L54.0129 26.7016L52.078 27.2074ZM62.9545 65.8636H63.4091V63.8636H62.9545V65.8636ZM64.3777 65.1122L74.105 27.2031L72.1677 26.706L62.4405 64.6151L64.3777 65.1122ZM73.1364 27.9545H78.8636V25.9545H73.1364V27.9545ZM77.8991 26.6908L65.1718 73.2362L67.101 73.7638L79.8282 27.2183L77.8991 26.6908ZM66.1364 72.5H60.3182V74.5H66.1364V72.5ZM61.2819 73.2331L51.0092 36.1422L49.0817 36.676L59.3545 73.7669L61.2819 73.2331ZM50.0455 35.4091H49.6818V37.4091H50.0455V35.4091ZM48.7181 36.1422L38.4454 73.2331L40.3728 73.7669L50.6455 36.676L48.7181 36.1422ZM39.4091 72.5H33.5909V74.5H39.4091V72.5Z" fill="black" fill-opacity="0.21"/>
</svg>
