<svg width="98" height="99" viewBox="0 0 98 99" fill="none" xmlns="http://www.w3.org/2000/svg">
<rect width="98" height="99" fill="#F0E68C"/>
<path d="M36.3636 26.4545L48.3636 45.8182H48.7273L60.7273 26.4545H67.3636L52.7273 49.7273L67.3636 73H60.7273L48.7273 54H48.3636L36.3636 73H29.7273L44.7273 49.7273L29.7273 26.4545H36.3636Z" fill="white"/>
<path d="M36.3636 26.4545L37.2136 25.9278L36.9204 25.4545H36.3636V26.4545ZM48.3636 45.8182L47.5136 46.3449L47.8069 46.8182H48.3636V45.8182ZM48.7273 45.8182V46.8182H49.284L49.5773 46.3449L48.7273 45.8182ZM60.7273 26.4545V25.4545H60.1705L59.8773 25.9278L60.7273 26.4545ZM67.3636 26.4545L68.2101 26.9869L69.1739 25.4545H67.3636V26.4545ZM52.7273 49.7273L51.8808 49.1949L51.546 49.7273L51.8808 50.2596L52.7273 49.7273ZM67.3636 73V74H69.1739L68.2101 72.4676L67.3636 73ZM60.7273 73L59.8818 73.534L60.1761 74H60.7273V73ZM48.7273 54L49.5728 53.466L49.2784 53H48.7273V54ZM48.3636 54V53H47.8125L47.5181 53.466L48.3636 54ZM36.3636 73V74H36.9148L37.2091 73.534L36.3636 73ZM29.7273 73L28.8867 72.4582L27.893 74H29.7273V73ZM44.7273 49.7273L45.5678 50.269L45.917 49.7273L45.5678 49.1855L44.7273 49.7273ZM29.7273 26.4545V25.4545H27.893L28.8867 26.9963L29.7273 26.4545ZM35.5136 26.9813L47.5136 46.3449L49.2136 45.2914L37.2136 25.9278L35.5136 26.9813ZM48.3636 46.8182H48.7273V44.8182H48.3636V46.8182ZM49.5773 46.3449L61.5773 26.9813L59.8773 25.9278L47.8773 45.2914L49.5773 46.3449ZM60.7273 27.4545H67.3636V25.4545H60.7273V27.4545ZM66.5171 25.9222L51.8808 49.1949L53.5738 50.2596L68.2101 26.9869L66.5171 25.9222ZM51.8808 50.2596L66.5171 73.5324L68.2101 72.4676L53.5738 49.1949L51.8808 50.2596ZM67.3636 72H60.7273V74H67.3636V72ZM61.5728 72.466L49.5728 53.466L47.8818 54.534L59.8818 73.534L61.5728 72.466ZM48.7273 53H48.3636V55H48.7273V53ZM47.5181 53.466L35.5181 72.466L37.2091 73.534L49.2091 54.534L47.5181 53.466ZM36.3636 72H29.7273V74H36.3636V72ZM30.5678 73.5418L45.5678 50.269L43.8867 49.1855L28.8867 72.4582L30.5678 73.5418ZM45.5678 49.1855L30.5678 25.9128L28.8867 26.9963L43.8867 50.269L45.5678 49.1855ZM29.7273 27.4545H36.3636V25.4545H29.7273V27.4545Z" fill="black" fill-opacity="0.21"/>
</svg>
