<svg width="99" height="99" viewBox="0 0 99 99" fill="none" xmlns="http://www.w3.org/2000/svg">
<rect width="99" height="99" fill="#FF1493"/>
<path d="M29.6364 26.4545H36.0909L49 48.1818H49.5455L62.4545 26.4545H68.9091L52.0909 53.8182V73H46.4545V53.8182L29.6364 26.4545Z" fill="white"/>
<path d="M29.6364 26.4545V25.4545H27.848L28.7844 26.9782L29.6364 26.4545ZM36.0909 26.4545L36.9506 25.9438L36.66 25.4545H36.0909V26.4545ZM49 48.1818L48.1403 48.6926L48.431 49.1818H49V48.1818ZM49.5455 48.1818V49.1818H50.1145L50.4052 48.6926L49.5455 48.1818ZM62.4545 26.4545V25.4545H61.8855L61.5948 25.9438L62.4545 26.4545ZM68.9091 26.4545L69.761 26.9782L70.6975 25.4545H68.9091V26.4545ZM52.0909 53.8182L51.239 53.2946L51.0909 53.5354V53.8182H52.0909ZM52.0909 73V74H53.0909V73H52.0909ZM46.4545 73H45.4545V74H46.4545V73ZM46.4545 53.8182H47.4545V53.5354L47.3065 53.2946L46.4545 53.8182ZM29.6364 27.4545H36.0909V25.4545H29.6364V27.4545ZM35.2312 26.9653L48.1403 48.6926L49.8597 47.671L36.9506 25.9438L35.2312 26.9653ZM49 49.1818H49.5455V47.1818H49V49.1818ZM50.4052 48.6926L63.3143 26.9653L61.5948 25.9438L48.6857 47.671L50.4052 48.6926ZM62.4545 27.4545H68.9091V25.4545H62.4545V27.4545ZM68.0571 25.9309L51.239 53.2946L52.9429 54.3418L69.761 26.9782L68.0571 25.9309ZM51.0909 53.8182V73H53.0909V53.8182H51.0909ZM52.0909 72H46.4545V74H52.0909V72ZM47.4545 73V53.8182H45.4545V73H47.4545ZM47.3065 53.2946L30.4883 25.9309L28.7844 26.9782L45.6026 54.3418L47.3065 53.2946Z" fill="black" fill-opacity="0.21"/>
</svg>
