<svg width="96" height="99" viewBox="0 0 96 99" fill="none" xmlns="http://www.w3.org/2000/svg">
<rect width="96" height="99" fill="#EE82EE"/>
<path d="M32.0909 73V68.9091L57.1818 31.4545H31.8182V26.4545H63.9091V30.5455L38.8182 68H64.1818V73H32.0909Z" fill="white"/>
<path d="M32.0909 73H31.0909V74H32.0909V73ZM32.0909 68.9091L31.2601 68.3525L31.0909 68.6051V68.9091H32.0909ZM57.1818 31.4545L58.0126 32.0111L59.0554 30.4545H57.1818V31.4545ZM31.8182 31.4545H30.8182V32.4545H31.8182V31.4545ZM31.8182 26.4545V25.4545H30.8182V26.4545H31.8182ZM63.9091 26.4545H64.9091V25.4545H63.9091V26.4545ZM63.9091 30.5455L64.7399 31.102L64.9091 30.8494V30.5455H63.9091ZM38.8182 68L37.9874 67.4434L36.9446 69H38.8182V68ZM64.1818 68H65.1818V67H64.1818V68ZM64.1818 73V74H65.1818V73H64.1818ZM33.0909 73V68.9091H31.0909V73H33.0909ZM32.9217 69.4657L58.0126 32.0111L56.351 30.898L31.2601 68.3525L32.9217 69.4657ZM57.1818 30.4545H31.8182V32.4545H57.1818V30.4545ZM32.8182 31.4545V26.4545H30.8182V31.4545H32.8182ZM31.8182 27.4545H63.9091V25.4545H31.8182V27.4545ZM62.9091 26.4545V30.5455H64.9091V26.4545H62.9091ZM63.0783 29.9889L37.9874 67.4434L39.649 68.5566L64.7399 31.102L63.0783 29.9889ZM38.8182 69H64.1818V67H38.8182V69ZM63.1818 68V73H65.1818V68H63.1818ZM64.1818 72H32.0909V74H64.1818V72Z" fill="black" fill-opacity="0.21"/>
</svg>
