<svg fill="none" xmlns="http://www.w3.org/2000/svg">
<path opacity="0.2" d="M124 668.575C28.3203 756.803 -6 976.61 -6 976.61V1024H1441V-9H1260.5C1260.5 -9 1191.81 172.062 1101.5 247.107C1006.69 325.898 905.354 283.122 806 356.003C700.935 433.074 713.497 550.872 605.5 623.706C448.536 729.564 263.352 540.077 124 668.575Z" fill="#CCE3DE"/>
<path opacity="0.1" d="M-1.5 650V1021.5H1441V0H1057.5C1057.5 0 1001.7 72.7504 957 110C846.794 201.835 764 143 639.5 228.5C503.71 321.754 470.438 622.806 257 669.5C158.102 691.136 -1.5 650 -1.5 650Z" fill="#6B9080"/>
</svg>
