<svg width="27" height="26" viewBox="0 0 27 26" fill="none" xmlns="http://www.w3.org/2000/svg">
<path d="M1.62632 20.9383V12.6427H3.00023V17.134V17.7812L3.57912 17.4917C4.18695 17.1878 4.88679 16.9905 5.57414 16.9905C7.74453 16.9905 9.52197 18.7679 9.52197 20.9383C9.52197 23.1087 7.74453 24.8861 5.57414 24.8861C3.40375 24.8861 1.62632 23.1087 1.62632 20.9383ZM5.57414 18.3644C4.15758 18.3644 3.00023 19.5217 3.00023 20.9383C3.00023 22.3549 4.15758 23.5122 5.57414 23.5122C6.99071 23.5122 8.14806 22.3549 8.14806 20.9383C8.14806 19.5217 6.99071 18.3644 5.57414 18.3644ZM5.97414 0.689996C16.8483 0.900231 25.6122 9.66412 25.8225 20.5383H24.4483C24.2387 10.4182 16.0942 2.27377 5.97414 2.06418V0.689996ZM5.97414 6.12628C13.807 6.33665 20.1758 12.7055 20.3862 20.5383H19.0117C18.8023 13.4595 13.053 7.7102 5.97414 7.50074V6.12628ZM5.97414 11.5639C10.867 11.7653 14.7472 15.6455 14.9485 20.5383H13.5733C13.3748 16.4004 10.112 13.1376 5.97414 12.9392V11.5639Z" stroke="#6B9080" stroke-width="0.8"/>
</svg>
