<svg width="26" height="25" viewBox="0 0 26 25" fill="none" xmlns="http://www.w3.org/2000/svg">
<g clip-path="url(#clip0_123_2278)">
<path d="M21.6604 10.8261C21.6322 11.3984 21.198 12.1049 20.4984 12.7839V21.7316C20.4977 21.962 20.4069 22.1574 20.2535 22.3099C20.0994 22.4595 19.8995 22.548 19.6645 22.5495H5.08252C4.84907 22.548 4.64839 22.4594 4.49429 22.3099C4.34092 22.1574 4.25093 21.962 4.25015 21.7316V7.43259C4.25093 7.20296 4.34092 7.00686 4.49429 6.85427C4.64839 6.70471 4.84907 6.61624 5.08252 6.61472H12.8271C13.4535 5.79226 14.1836 4.94998 15.0106 4.17791C15.0145 4.17332 15.0175 4.16873 15.0213 4.16419H5.08252C4.16699 4.1634 3.32549 4.53191 2.72656 5.12092C2.12461 5.70994 1.74922 6.53391 1.75 7.43264V21.7317C1.74922 22.6304 2.12461 23.4559 2.72656 24.0434C3.32544 24.6323 4.16699 25 5.08252 25H19.6646C20.5816 25 21.4232 24.6323 22.0221 24.0433C22.6225 23.4558 22.9986 22.6303 22.9979 21.7316V9.93504C22.9979 9.93504 22.9918 9.92742 22.9818 9.91975C22.6026 10.2448 22.1609 10.5545 21.6604 10.8261Z" fill="black"/>
<path d="M25.4195 0C25.4195 0 24.6535 1.14443 19.6502 2.83735C14.5484 4.56392 11.4081 11.5876 11.4081 11.5876C10.6521 13.0265 7.66359 19.0048 7.66359 19.0048C6.8404 20.549 8.3487 21.4615 9.23371 19.8669C10.9297 16.806 12.0245 14.0091 14.6033 13.9297C18.3653 13.8138 20.938 10.5286 20.1285 10.6812C19.0634 11.145 16.7151 10.7163 18.0983 10.5026C21.4186 10.2364 23.4648 7.74077 22.798 7.57144C21.6208 8.02461 20.5229 7.59434 20.3078 7.4646C26.168 6.752 25.4195 0 25.4195 0Z" fill="black"/>
</g>
<defs>
<clipPath id="clip0_123_2278">
<rect width="25" height="25" fill="white" transform="translate(0.75)"/>
</clipPath>
</defs>
</svg>
