<svg width="25" height="25" viewBox="0 0 25 25" fill="none" xmlns="http://www.w3.org/2000/svg">
<path fill-rule="evenodd" clip-rule="evenodd" d="M12.4997 2.86462C7.17818 2.86462 2.86426 7.17855 2.86426 12.5C2.86426 17.8215 7.17818 22.1355 12.4997 22.1355C17.8211 22.1355 22.1351 17.8215 22.1351 12.5C22.1351 7.17855 17.8211 2.86462 12.4997 2.86462ZM1.30176 12.5C1.30176 6.3156 6.31524 1.30212 12.4997 1.30212C18.6842 1.30212 23.6976 6.3156 23.6976 12.5C23.6976 18.6845 18.6842 23.698 12.4997 23.698C6.31524 23.698 1.30176 18.6845 1.30176 12.5Z" fill="black"/>
<path fill-rule="evenodd" clip-rule="evenodd" d="M8.82257 8.82257C9.12767 8.51748 9.62233 8.51748 9.92742 8.82257L16.1774 15.0726C16.4825 15.3777 16.4825 15.8723 16.1774 16.1774C15.8723 16.4825 15.3776 16.4825 15.0725 16.1774L8.82257 9.92742C8.51748 9.62232 8.51748 9.12766 8.82257 8.82257Z" fill="black"/>
<path fill-rule="evenodd" clip-rule="evenodd" d="M16.1774 8.82257C16.4825 9.12767 16.4825 9.62233 16.1774 9.92742L9.92742 16.1774C9.62232 16.4825 9.12766 16.4825 8.82257 16.1774C8.51748 15.8723 8.51748 15.3776 8.82257 15.0725L15.0726 8.82257C15.3777 8.51748 15.8723 8.51748 16.1774 8.82257Z" fill="black"/>
</svg>
