<svg width="50" height="50" viewBox="0 0 50 50" fill="none" xmlns="http://www.w3.org/2000/svg">
<path fill-rule="evenodd" clip-rule="evenodd" d="M25.0003 5.72913C14.3573 5.72913 5.72949 14.357 5.72949 25C5.72949 35.6429 14.3573 44.2708 25.0003 44.2708C35.6432 44.2708 44.2712 35.6429 44.2712 25C44.2712 14.357 35.6432 5.72913 25.0003 5.72913ZM2.60449 25C2.60449 12.6311 12.6315 2.60413 25.0003 2.60413C37.3693 2.60413 47.3962 12.6311 47.3962 25C47.3962 37.3689 37.3693 47.3958 25.0003 47.3958C12.6315 47.3958 2.60449 37.3689 2.60449 25Z" fill="black"/>
<path fill-rule="evenodd" clip-rule="evenodd" d="M17.6451 17.6451C18.2553 17.035 19.2447 17.035 19.8548 17.6451L32.3548 30.1452C32.965 30.7554 32.965 31.7446 32.3548 32.3548C31.7446 32.965 30.7552 32.965 30.145 32.3548L17.6451 19.8548C17.035 19.2446 17.035 18.2553 17.6451 17.6451Z" fill="black"/>
<path fill-rule="evenodd" clip-rule="evenodd" d="M32.3548 17.6451C32.965 18.2553 32.965 19.2447 32.3548 19.8548L19.8548 32.3548C19.2446 32.965 18.2553 32.965 17.6451 32.3548C17.035 31.7446 17.035 30.7552 17.6451 30.145L30.1452 17.6451C30.7554 17.035 31.7446 17.035 32.3548 17.6451Z" fill="black"/>
</svg>
