<svg width="50" height="50" viewBox="0 0 50 50" fill="none" xmlns="http://www.w3.org/2000/svg">
<path d="M1.5625 11.7969C1.01562 11.7969 0.585938 11.3672 0.585938 10.8203C0.585938 10.2734 1.01562 9.84375 1.5625 9.84375L47.4609 9.92187C48.0078 9.92187 48.4375 10.3516 48.4375 10.8984C48.4375 11.4453 48.0078 11.875 47.4609 11.875L1.5625 11.7969ZM9.10156 13.7891C9.10156 13.2422 9.53125 12.8125 10.0781 12.8125C10.625 12.8125 11.0547 13.2422 11.0547 13.7891V47.4219L39.6484 47.1094V14.1406C39.6484 13.5938 40.0781 13.1641 40.625 13.1641C41.1719 13.1641 41.6016 13.5938 41.6016 14.1406V49.1406L9.0625 49.4922V13.7891H9.10156Z" fill="black"/>
<path d="M33.3203 42.3438C32.7734 42.3438 32.3438 41.9141 32.3438 41.3672V18.1641C32.3438 17.6172 32.7734 17.1875 33.3203 17.1875C33.8672 17.1875 34.2969 17.6172 34.2969 18.1641V41.3672C34.3359 41.9141 33.8672 42.3438 33.3203 42.3438ZM17.9297 42.3438C17.3828 42.3438 16.9531 41.9141 16.9531 41.3672V18.1641C16.9531 17.6172 17.3828 17.1875 17.9297 17.1875C18.4766 17.1875 18.9063 17.6172 18.9063 18.1641V41.3672C18.9453 41.9141 18.4766 42.3438 17.9297 42.3438ZM25.625 42.3438C25.0781 42.3438 24.6484 41.9141 24.6484 41.3672V18.1641C24.6484 17.6172 25.0781 17.1875 25.625 17.1875C26.1719 17.1875 26.6016 17.6172 26.6016 18.1641V41.3672C26.6406 41.9141 26.1719 42.3438 25.625 42.3438ZM31.9922 10.4297V8.04688C31.9922 7.1875 31.2891 6.48438 30.4297 6.48438H20.4297C19.5312 6.48438 18.8672 7.1875 18.8672 8.08594V10.1562H16.9141V8.08594C16.9141 6.13281 18.5156 4.53125 20.4688 4.53125H30.4688C32.4219 4.53125 34.0234 6.13281 34.0234 8.08594V10.4687H31.9922V10.4297Z" fill="black"/>
</svg>
