<svg width="20" height="20" viewBox="0 0 787 666" fill="none" xmlns="http://www.w3.org/2000/svg">
<path d="M387 733.333C571.095 733.333 720.333 584.095 720.333 400C720.333 215.905 571.095 66.6667 387 66.6667C202.905 66.6667 53.6667 215.905 53.6667 400C53.6667 584.095 202.905 733.333 387 733.333Z" fill="#6B9080"/>
<path d="M100.558 570.583C141.135 638.563 205.232 690.877 281.62 716.307C298.298 719.357 304.375 709.063 304.375 700.223C304.375 696.563 304.313 690.097 304.232 681.443C304.137 671.42 304.013 658.465 303.925 643.54C211.207 663.677 191.645 598.85 191.645 598.85C176.482 560.358 154.627 550.107 154.627 550.107C124.362 529.418 156.918 529.827 156.918 529.827C190.375 532.202 207.973 564.185 207.973 564.185C237.707 615.118 286 600.405 304.99 591.892C308.018 570.345 316.612 555.652 326.148 547.323C252.133 538.913 174.312 510.305 174.312 382.575C174.312 346.192 187.307 316.438 208.628 293.132C205.19 284.7 193.752 250.813 211.882 204.915C211.882 204.915 239.875 195.952 303.557 239.088C330.138 231.702 358.663 227.997 387.005 227.875C415.305 227.997 443.832 231.702 470.453 239.088C534.093 195.952 562.027 204.915 562.027 204.915C580.218 250.813 568.778 284.7 565.342 293.132C586.705 316.438 599.617 346.192 599.617 382.575C599.617 510.633 521.673 538.81 447.412 547.057C459.383 557.35 470.045 577.69 470.045 608.795C470.045 638.587 469.862 664.537 469.74 681.725C469.68 690.238 469.635 696.603 469.635 700.223C469.635 709.145 475.63 719.52 492.553 716.267C553.407 695.953 606.452 658.59 646.005 609.838C584.89 685.18 491.567 733.333 386.995 733.333C265.238 733.333 158.73 668.053 100.558 570.583Z" fill="#EAF4F4"/>
</svg>
