<svg width="40" height="40" viewBox="0 0 50 50" fill="none" xmlns="http://www.w3.org/2000/svg">
<path d="M25 4.17505C13.4985 4.17505 4.17505 13.4985 4.17505 25C4.17505 36.5016 13.4985 45.825 25 45.825C36.5016 45.825 45.825 36.5016 45.825 25C45.825 13.4985 36.5016 4.17505 25 4.17505ZM25 44.1594C14.436 44.1594 5.84067 35.5657 5.84067 25C5.84067 14.4344 14.4344 5.84067 25 5.84067C35.5657 5.84067 44.1594 14.4344 44.1594 25C44.1594 35.5641 35.5657 44.1594 25 44.1594Z" fill="#6B9080"/>
<path d="M24.9298 14.0828C20.7017 14.0828 18.3407 16.6953 18.311 20.8359H20.1485C20.0907 17.8328 21.6642 15.6296 24.8438 15.6296C27.1173 15.6296 29.0126 17.2328 29.0126 19.5656C29.0126 21.0812 28.1954 22.3062 27.1173 23.3265C24.9017 25.3828 24.2813 26.35 24.1688 29.1671H26.0298C26.1392 26.6125 26.0829 26.664 28.3126 24.4343C29.8001 23.0343 30.8485 21.6343 30.8485 19.4765C30.8485 16.0953 28.1657 14.0828 24.9313 14.0828H24.9298Z" fill="#6B9080"/>
<path d="M25.0001 32.4984C24.0813 32.4984 23.3345 33.2437 23.3345 34.164C23.3345 35.0844 24.0813 35.8297 25.0001 35.8297C25.9188 35.8297 26.6657 35.0844 26.6657 34.164C26.6657 33.2453 25.9204 32.4984 25.0001 32.4984Z" fill="#6B9080"/>
</svg>
