<svg width="53" height="61" viewBox="0 0 53 61" fill="none" xmlns="http://www.w3.org/2000/svg">
<path d="M30.5031 35.0002C29.8786 35.0002 29.29 34.7085 28.9118 34.2117L21.7754 24.8376C20.6156 23.3141 18.1841 24.1343 18.1841 26.0491V33.0002C18.1841 34.1048 17.2886 35.0002 16.1841 35.0002H11.9761C10.8715 35.0002 9.97607 34.1048 9.97607 33.0002V3.3042C9.97607 2.19963 10.8715 1.3042 11.9761 1.3042H16.1841C17.2886 1.3042 18.1841 2.19963 18.1841 3.3042V10.1497C18.1841 12.0654 20.6177 12.885 21.7766 11.3596L28.8158 2.09429C29.194 1.59651 29.7832 1.3042 30.4083 1.3042H34.933C36.6047 1.3042 37.5387 3.23335 36.5018 4.54467L26.9871 16.5781C26.413 17.3041 26.4121 18.3291 26.9848 19.0561L36.9938 31.7626C38.0272 33.0745 37.0927 35.0002 35.4227 35.0002H30.5031Z" fill="#6B9080"/>
<path d="M6.097 56L3.029 51.97V56H0.806V46.874H3.029V50.878L6.071 46.874H8.684L5.148 51.346L8.814 56H6.097ZM9.42845 52.36C9.42845 51.6147 9.56712 50.9603 9.84445 50.397C10.1305 49.8337 10.5161 49.4003 11.0015 49.097C11.4868 48.7937 12.0285 48.642 12.6265 48.642C13.1378 48.642 13.5841 48.746 13.9655 48.954C14.3555 49.162 14.6545 49.435 14.8625 49.773V48.746H17.0855V56H14.8625V54.973C14.6458 55.311 14.3425 55.584 13.9525 55.792C13.5711 56 13.1248 56.104 12.6135 56.104C12.0241 56.104 11.4868 55.9523 11.0015 55.649C10.5161 55.337 10.1305 54.8993 9.84445 54.336C9.56712 53.764 9.42845 53.1053 9.42845 52.36ZM14.8625 52.373C14.8625 51.8183 14.7065 51.3807 14.3945 51.06C14.0911 50.7393 13.7185 50.579 13.2765 50.579C12.8345 50.579 12.4575 50.7393 12.1455 51.06C11.8421 51.372 11.6905 51.8053 11.6905 52.36C11.6905 52.9147 11.8421 53.3567 12.1455 53.686C12.4575 54.0067 12.8345 54.167 13.2765 54.167C13.7185 54.167 14.0911 54.0067 14.3945 53.686C14.7065 53.3653 14.8625 52.9277 14.8625 52.373ZM21.4497 48.642C21.961 48.642 22.4074 48.746 22.7887 48.954C23.1787 49.162 23.4777 49.435 23.6857 49.773V48.746H25.9087V55.987C25.9087 56.6543 25.7744 57.2567 25.5057 57.794C25.2457 58.34 24.8427 58.7733 24.2967 59.094C23.7594 59.4147 23.0877 59.575 22.2817 59.575C21.207 59.575 20.336 59.3193 19.6687 58.808C19.0014 58.3053 18.62 57.6207 18.5247 56.754H20.7217C20.791 57.0313 20.9557 57.248 21.2157 57.404C21.4757 57.5687 21.7964 57.651 22.1777 57.651C22.637 57.651 23.001 57.5167 23.2697 57.248C23.547 56.988 23.6857 56.5677 23.6857 55.987V54.96C23.469 55.298 23.17 55.5753 22.7887 55.792C22.4074 56 21.961 56.104 21.4497 56.104C20.8517 56.104 20.31 55.9523 19.8247 55.649C19.3394 55.337 18.9537 54.8993 18.6677 54.336C18.3904 53.764 18.2517 53.1053 18.2517 52.36C18.2517 51.6147 18.3904 50.9603 18.6677 50.397C18.9537 49.8337 19.3394 49.4003 19.8247 49.097C20.31 48.7937 20.8517 48.642 21.4497 48.642ZM23.6857 52.373C23.6857 51.8183 23.5297 51.3807 23.2177 51.06C22.9144 50.7393 22.5417 50.579 22.0997 50.579C21.6577 50.579 21.2807 50.7393 20.9687 51.06C20.6654 51.372 20.5137 51.8053 20.5137 52.36C20.5137 52.9147 20.6654 53.3567 20.9687 53.686C21.2807 54.0067 21.6577 54.167 22.0997 54.167C22.5417 54.167 22.9144 54.0067 23.2177 53.686C23.5297 53.3653 23.6857 52.9277 23.6857 52.373ZM27.0749 52.36C27.0749 51.6147 27.2136 50.9603 27.4909 50.397C27.7769 49.8337 28.1626 49.4003 28.6479 49.097C29.1333 48.7937 29.6749 48.642 30.2729 48.642C30.7843 48.642 31.2306 48.746 31.6119 48.954C32.0019 49.162 32.3009 49.435 32.5089 49.773V48.746H34.7319V56H32.5089V54.973C32.2923 55.311 31.9889 55.584 31.5989 55.792C31.2176 56 30.7713 56.104 30.2599 56.104C29.6706 56.104 29.1333 55.9523 28.6479 55.649C28.1626 55.337 27.7769 54.8993 27.4909 54.336C27.2136 53.764 27.0749 53.1053 27.0749 52.36ZM32.5089 52.373C32.5089 51.8183 32.3529 51.3807 32.0409 51.06C31.7376 50.7393 31.3649 50.579 30.9229 50.579C30.4809 50.579 30.1039 50.7393 29.7919 51.06C29.4886 51.372 29.3369 51.8053 29.3369 52.36C29.3369 52.9147 29.4886 53.3567 29.7919 53.686C30.1039 54.0067 30.4809 54.167 30.9229 54.167C31.3649 54.167 31.7376 54.0067 32.0409 53.686C32.3529 53.3653 32.5089 52.9277 32.5089 52.373ZM38.5632 49.773C38.7712 49.435 39.0702 49.162 39.4602 48.954C39.8502 48.746 40.2965 48.642 40.7992 48.642C41.3972 48.642 41.9388 48.7937 42.4242 49.097C42.9095 49.4003 43.2908 49.8337 43.5682 50.397C43.8542 50.9603 43.9972 51.6147 43.9972 52.36C43.9972 53.1053 43.8542 53.764 43.5682 54.336C43.2908 54.8993 42.9095 55.337 42.4242 55.649C41.9388 55.9523 41.3972 56.104 40.7992 56.104C40.2878 56.104 39.8415 56.0043 39.4602 55.805C39.0788 55.597 38.7798 55.324 38.5632 54.986V56H36.3402V46.38H38.5632V49.773ZM41.7352 52.36C41.7352 51.8053 41.5792 51.372 41.2672 51.06C40.9638 50.7393 40.5868 50.579 40.1362 50.579C39.6942 50.579 39.3172 50.7393 39.0052 51.06C38.7018 51.3807 38.5502 51.8183 38.5502 52.373C38.5502 52.9277 38.7018 53.3653 39.0052 53.686C39.3172 54.0067 39.6942 54.167 40.1362 54.167C40.5782 54.167 40.9552 54.0067 41.2672 53.686C41.5792 53.3567 41.7352 52.9147 41.7352 52.36ZM44.7214 52.36C44.7214 51.6147 44.8601 50.9603 45.1374 50.397C45.4234 49.8337 45.8091 49.4003 46.2944 49.097C46.7798 48.7937 47.3214 48.642 47.9194 48.642C48.4308 48.642 48.8771 48.746 49.2584 48.954C49.6484 49.162 49.9474 49.435 50.1554 49.773V48.746H52.3784V56H50.1554V54.973C49.9388 55.311 49.6354 55.584 49.2454 55.792C48.8641 56 48.4178 56.104 47.9064 56.104C47.3171 56.104 46.7798 55.9523 46.2944 55.649C45.8091 55.337 45.4234 54.8993 45.1374 54.336C44.8601 53.764 44.7214 53.1053 44.7214 52.36ZM50.1554 52.373C50.1554 51.8183 49.9994 51.3807 49.6874 51.06C49.3841 50.7393 49.0114 50.579 48.5694 50.579C48.1274 50.579 47.7504 50.7393 47.4384 51.06C47.1351 51.372 46.9834 51.8053 46.9834 52.36C46.9834 52.9147 47.1351 53.3567 47.4384 53.686C47.7504 54.0067 48.1274 54.167 48.5694 54.167C49.0114 54.167 49.3841 54.0067 49.6874 53.686C49.9994 53.3653 50.1554 52.9277 50.1554 52.373Z" fill="#6B9080"/>
</svg>
