<svg width="167" height="49" viewBox="0 0 167 49" fill="none" xmlns="http://www.w3.org/2000/svg">
<path d="M31.8988 49C31.2743 49 30.6857 48.7083 30.3075 48.2115L18.0251 32.0789C16.8652 30.5554 14.4338 31.3757 14.4338 33.2904V47C14.4338 48.1046 13.5383 49 12.4338 49H4.49707C3.3925 49 2.49707 48.1046 2.49707 47V2C2.49707 0.89543 3.3925 0 4.49707 0H12.4338C13.5383 0 14.4338 0.895431 14.4338 2V15.5604C14.4338 17.4761 16.8673 18.2957 18.0262 16.7703L30.1679 0.790044C30.5461 0.292291 31.1353 0 31.7604 0H40.6678C42.3395 0 43.2735 1.92921 42.2366 3.24052L26.7911 22.7732C26.217 23.4992 26.2161 24.5243 26.7888 25.2514L42.9466 45.7624C43.98 47.0742 43.0456 49 41.3755 49H31.8988Z" fill="#6B9080"/>
<path d="M63.4854 28.108C62.8294 28.108 62.2214 27.948 61.6614 27.628C61.1174 27.308 60.6854 26.876 60.3654 26.332C60.0454 25.772 59.8854 25.164 59.8854 24.508C59.8854 23.836 60.0454 23.228 60.3654 22.684C60.6854 22.124 61.1174 21.684 61.6614 21.364C62.2214 21.044 62.8294 20.884 63.4854 20.884C64.1574 20.884 64.7654 21.044 65.3094 21.364C65.8694 21.684 66.3094 22.124 66.6294 22.684C66.9494 23.228 67.1094 23.836 67.1094 24.508C67.1094 25.164 66.9494 25.772 66.6294 26.332C66.3094 26.876 65.8694 27.308 65.3094 27.628C64.7654 27.948 64.1574 28.108 63.4854 28.108ZM93.4731 29.524H87.1851L86.1771 32.5H81.8811L87.9771 15.652H92.7291L98.8251 32.5H94.4811L93.4731 29.524ZM92.4171 26.356L90.3291 20.188L88.2651 26.356H92.4171ZM99.8644 25.78C99.8644 24.404 100.12 23.196 100.632 22.156C101.16 21.116 101.872 20.316 102.768 19.756C103.664 19.196 104.664 18.916 105.768 18.916C106.648 18.916 107.448 19.1 108.168 19.468C108.904 19.836 109.48 20.332 109.896 20.956V14.74H114V32.5H109.896V30.58C109.512 31.22 108.96 31.732 108.24 32.116C107.536 32.5 106.712 32.692 105.768 32.692C104.664 32.692 103.664 32.412 102.768 31.852C101.872 31.276 101.16 30.468 100.632 29.428C100.12 28.372 99.8644 27.156 99.8644 25.78ZM109.896 25.804C109.896 24.78 109.608 23.972 109.032 23.38C108.472 22.788 107.784 22.492 106.968 22.492C106.152 22.492 105.456 22.788 104.88 23.38C104.32 23.956 104.04 24.756 104.04 25.78C104.04 26.804 104.32 27.62 104.88 28.228C105.456 28.82 106.152 29.116 106.968 29.116C107.784 29.116 108.472 28.82 109.032 28.228C109.608 27.636 109.896 26.828 109.896 25.804ZM134.057 18.964C135.721 18.964 137.041 19.468 138.017 20.476C139.009 21.484 139.505 22.884 139.505 24.676V32.5H135.425V25.228C135.425 24.364 135.193 23.7 134.729 23.236C134.281 22.756 133.657 22.516 132.857 22.516C132.057 22.516 131.425 22.756 130.961 23.236C130.513 23.7 130.289 24.364 130.289 25.228V32.5H126.209V25.228C126.209 24.364 125.977 23.7 125.513 23.236C125.065 22.756 124.441 22.516 123.641 22.516C122.841 22.516 122.209 22.756 121.745 23.236C121.297 23.7 121.073 24.364 121.073 25.228V32.5H116.969V19.108H121.073V20.788C121.489 20.228 122.033 19.788 122.705 19.468C123.377 19.132 124.137 18.964 124.985 18.964C125.993 18.964 126.889 19.18 127.673 19.612C128.473 20.044 129.097 20.66 129.545 21.46C130.009 20.724 130.641 20.124 131.441 19.66C132.241 19.196 133.113 18.964 134.057 18.964ZM144.44 17.716C143.72 17.716 143.128 17.508 142.664 17.092C142.216 16.66 141.992 16.132 141.992 15.508C141.992 14.868 142.216 14.34 142.664 13.924C143.128 13.492 143.72 13.276 144.44 13.276C145.144 13.276 145.72 13.492 146.168 13.924C146.632 14.34 146.864 14.868 146.864 15.508C146.864 16.132 146.632 16.66 146.168 17.092C145.72 17.508 145.144 17.716 144.44 17.716ZM146.48 19.108V32.5H142.376V19.108H146.48ZM157.614 18.964C159.182 18.964 160.43 19.476 161.358 20.5C162.302 21.508 162.774 22.9 162.774 24.676V32.5H158.694V25.228C158.694 24.332 158.462 23.636 157.998 23.14C157.534 22.644 156.91 22.396 156.126 22.396C155.342 22.396 154.718 22.644 154.254 23.14C153.79 23.636 153.558 24.332 153.558 25.228V32.5H149.454V19.108H153.558V20.884C153.974 20.292 154.534 19.828 155.238 19.492C155.942 19.14 156.734 18.964 157.614 18.964Z" fill="#6B9080"/>
</svg>
