<svg width="25" height="20" viewBox="0 0 25 20" fill="none" xmlns="http://www.w3.org/2000/svg">
<path d="M3.10596 3.60652L8.5605 9.98409M8.5605 9.98409L2.57565 16.4754M8.5605 9.98409L9.82011 11.4569C11.2634 13.1444 13.731 13.139 15.1679 11.4452L16.4075 9.98409M21.8181 3.60652L16.4075 9.98409M16.4075 9.98409L22.1211 16.4754M4.24232 19.4262H20.7575C22.7658 19.4262 24.3938 17.6647 24.3938 15.4918V4.50816C24.3938 2.33524 22.7658 0.57373 20.7575 0.57373H4.24232C2.23402 0.57373 0.605957 2.33524 0.605957 4.50816V15.4918C0.605957 17.6647 2.23402 19.4262 4.24232 19.4262Z" stroke="#6B9080" stroke-linecap="round"/>
</svg>
