<svg width="27" height="16" viewBox="0 0 27 16" fill="none" xmlns="http://www.w3.org/2000/svg">
<path d="M23.8814 9.82267C23.8814 9.82267 25.6187 8.0416 25.661 7.95876C25.7034 7.87592 20.3682 1.33154 13.9237 1.33154C8.16104 1.33154 1.29663 7.54456 1.29663 7.91734C1.29663 8.29012 8.16844 14.8612 13.9237 14.6688C16.3432 14.588 19.1341 13.5288 21.339 12.0594" stroke="#6B9080" stroke-linecap="round"/>
<path d="M13.4575 11.7276C15.6339 11.7276 17.3982 10.0029 17.3982 7.87551C17.3982 5.74807 15.6339 4.02344 13.4575 4.02344C11.2811 4.02344 9.51685 5.74807 9.51685 7.87551C9.51685 10.0029 11.2811 11.7276 13.4575 11.7276Z" stroke="#6B9080"/>
</svg>
