<svg width="50" height="50" viewBox="0 0 50 50" fill="none" xmlns="http://www.w3.org/2000/svg">
<path d="M34.1429 19.5807C28.8463 16.383 24.1248 15.9489 22.4043 15.908L22.7282 8.56705C22.7282 7.5125 21.7509 6.86023 20.8441 6.86023C20.4145 6.86023 20.0213 6.99887 19.7111 7.25796L0.637251 23.0352C0.279297 23.3341 0.0815693 23.7602 0.0781602 24.2341C0.0747511 24.758 0.319069 25.2818 0.731569 25.6364L19.6929 41.825C20.0032 42.092 20.4123 42.2386 20.8452 42.2386C21.7509 42.2386 22.7282 41.5864 22.7282 40.533L22.7384 30.0977C42.0316 30.3352 48.8384 42.667 48.9054 42.792C49.0066 42.9818 49.2032 43.0932 49.4077 43.0932C49.4793 43.0932 49.5532 43.0795 49.6236 43.05C49.8929 42.9386 50.035 42.642 49.952 42.3625C46.7418 31.6432 41.4236 23.9784 34.1429 19.5807ZM43.7588 35.5727C39.7963 32.5545 32.8338 28.9568 22.1702 28.9568C21.8566 28.9568 21.602 29.2114 21.602 29.525L21.5918 40.5307C21.5918 40.867 21.1986 41.1011 20.8452 41.1011C20.7316 41.1011 20.5679 41.0773 20.4327 40.9602L1.47021 24.7727C1.31111 24.6352 1.21225 24.4318 1.21339 24.2409C1.21452 24.1023 1.26566 23.9898 1.36339 23.9091L20.4384 8.13182C20.5713 8.02046 20.7327 7.99659 20.8441 7.99659C21.1975 7.99659 21.5918 8.23068 21.5918 8.54205L21.2429 16.4523C21.2361 16.6125 21.2963 16.767 21.41 16.8807C21.5179 16.9864 21.6623 17.0455 21.8111 17.0455C21.8293 17.0455 21.7429 17.0398 22.1009 17.0398C23.4236 17.0398 28.1577 17.2932 33.5554 20.5534C39.7907 24.3193 44.5463 30.6023 47.7225 39.2557C46.7634 38.1591 45.4588 36.8682 43.7588 35.5727Z" fill="black"/>
</svg>
