<svg width="26" height="25" viewBox="0 0 26 25" fill="none" xmlns="http://www.w3.org/2000/svg">
<path d="M13.25 15.625C14.9759 15.625 16.375 14.2259 16.375 12.5C16.375 10.7741 14.9759 9.375 13.25 9.375C11.5241 9.375 10.125 10.7741 10.125 12.5C10.125 14.2259 11.5241 15.625 13.25 15.625Z" stroke="#0C0310" stroke-linecap="round"/>
<path fill-rule="evenodd" clip-rule="evenodd" d="M11.2382 3.50297C11.9112 1.61018 14.5881 1.61018 15.2611 3.50296C15.6851 4.69494 17.0467 5.25892 18.1893 4.7158C20.0035 3.85335 21.8963 5.74614 21.0339 7.56049C20.4908 8.70307 21.0548 10.0647 22.2468 10.4886C24.1396 11.1616 24.1396 13.8385 22.2468 14.5115C21.0548 14.9355 20.4908 16.297 21.0339 17.4396C21.8963 19.2539 20.0035 21.1467 18.1893 20.2843C17.0467 19.7412 15.6851 20.3051 15.2611 21.4971C14.5881 23.3899 11.9112 23.3899 11.2382 21.4971C10.8143 20.3051 9.45271 19.7412 8.31012 20.2843C6.49577 21.1467 4.60299 19.2539 5.46544 17.4396C6.00855 16.297 5.44457 14.9355 4.25259 14.5115C2.35981 13.8385 2.35981 11.1616 4.2526 10.4886C5.44457 10.0647 6.00855 8.70307 5.46544 7.56049C4.60299 5.74614 6.49577 3.85335 8.31012 4.7158C9.45271 5.25892 10.8143 4.69494 11.2382 3.50297Z" stroke="#0C0310" stroke-linecap="round"/>
</svg>
