<svg width="25" height="25" viewBox="0 0 25 25" fill="none" xmlns="http://www.w3.org/2000/svg">
<g clip-path="url(#clip0_56_665)">
<path d="M12.4707 4.76508C12.6809 4.42576 13.1605 4.41281 13.3879 4.74034L14.7461 6.69642C14.8877 6.90037 15.1435 6.98483 15.375 6.90402L17.8036 6.05635C18.2003 5.91791 18.5974 6.26387 18.5266 6.68634L18.1834 8.73805C18.136 9.02114 18.3039 9.29554 18.5735 9.37579L20.8099 10.0414C21.2432 10.1704 21.3507 10.7474 20.9942 11.0303L19.298 12.3759C19.0656 12.5603 19.0152 12.8987 19.1835 13.1455L20.3456 14.8493C20.5967 15.2175 20.3478 15.7237 19.9088 15.7372L17.4149 15.8133C17.154 15.8212 16.934 16.0148 16.8877 16.2777L16.5043 18.4504C16.4333 18.8534 15.9795 19.0476 15.6489 18.8167L13.5786 17.3701C13.3818 17.2325 13.121 17.2396 12.9316 17.3876L10.9387 18.9438C10.6204 19.1922 10.1574 19.0228 10.0656 18.6242L9.57076 16.475C9.51091 16.2151 9.28132 16.0336 9.0203 16.0397L6.52591 16.0983C6.08696 16.1086 5.81221 15.6164 6.04403 15.2352L7.11659 13.4711C7.27193 13.2155 7.20421 12.8804 6.96255 12.7087L5.19936 11.4564C4.82871 11.1932 4.90632 10.6112 5.33237 10.459L7.53131 9.67374C7.79646 9.57905 7.94996 9.29599 7.88805 9.01583L7.43939 6.98549C7.34701 6.56743 7.72567 6.20054 8.12893 6.3174L10.5979 7.03292C10.8332 7.10113 11.0844 7.00299 11.2153 6.79169L12.4707 4.76508Z" stroke="#6B9080"/>
<path d="M13.3409 15.3457C15.2091 15.2953 16.6845 13.7373 16.6362 11.8658C16.588 9.99427 15.0343 8.51798 13.166 8.56839C11.2977 8.6188 9.82235 10.1768 9.87064 12.0483C9.91893 13.9198 11.4726 15.3961 13.3409 15.3457Z" stroke="#6B9080"/>
<path d="M10.2209 23.5171C10.2209 23.5171 5.52477 21.8928 3.24577 17.6555C0.966762 13.4182 2.27892 8.82783 2.27892 8.82783M2.27892 8.82783L0.345215 9.88715M2.27892 8.82783L3.59107 10.5934M4.97229 3.95495C4.97229 3.95495 8.01096 0.353258 12.9143 0.423877C17.8176 0.494495 21.4778 3.95495 21.4778 3.95495M21.4778 3.95495L18.9916 4.30806M21.4778 3.95495V1.62444M24.3093 8.82783C24.3093 8.82783 25.5524 12.9945 23.2734 17.6555C20.9944 22.3165 15.8148 23.5171 15.8148 23.5171M15.8148 23.5171L16.9198 21.3278M15.8148 23.5171L17.8176 24.5764" stroke="#6B9080" stroke-linecap="round"/>
</g>
<defs>
<clipPath id="clip0_56_665">
<rect width="25" height="25" fill="white"/>
</clipPath>
</defs>
</svg>
