<svg width="287" height="280" viewBox="0 0 287 280" fill="none" xmlns="http://www.w3.org/2000/svg">
<g opacity="0.7">
<path d="M136.994 187.142C130.193 185.794 120.896 180.668 112.604 173.672C108.02 169.797 104.321 165.164 102.743 159.202C102.203 157.649 102.026 155.994 102.226 154.363C102.577 152.817 102.919 151.376 104.561 151.026C105.38 150.911 106.215 151.03 106.969 151.368C107.724 151.707 108.367 152.252 108.826 152.94C110.307 155.072 110.763 157.991 112.428 159.903C123.737 172.9 137.621 180.359 155.358 178.501C163.623 177.634 170.11 173.234 175.56 167.157C176.873 165.691 177.999 163.723 179.655 162.986C181.511 162.162 184.501 161.589 185.836 162.539C187.172 163.488 187.79 166.586 187.433 168.501C187.043 170.581 185.421 172.617 183.901 174.273C172.22 187.011 157.836 191.448 136.994 187.142Z" fill="#6B9080"/>
<path d="M113.407 88.929C124.569 90.8847 130.592 95.9153 135.04 103.068C135.835 104.316 136.375 105.711 136.627 107.17C137.215 111.098 133.967 113.742 130.474 111.833C127.984 110.288 125.826 108.264 124.125 105.879C119.909 100.466 114.606 98.1982 107.769 98.687C97.7164 99.4056 89.2006 102.712 83.423 111.486C82.1075 113.483 80.281 115.214 77.666 113.732C74.8748 112.15 75.0928 109.246 76.5126 107.243C79.3234 103.28 82.2351 99.0879 86.021 96.1761C94.8176 89.4147 105.245 88.2625 113.407 88.929Z" fill="#6B9080"/>
<path d="M226.09 123.985C225.453 124.554 224.192 126.583 222.714 126.756C221.781 126.749 220.861 126.537 220.017 126.136C219.175 125.736 218.43 125.155 217.836 124.436C216.497 122.695 216.025 120.257 215.314 118.074C214.911 116.547 214.039 115.186 212.819 114.183C211.599 113.18 210.094 112.586 208.518 112.487C199.896 111.537 191.807 112.462 184.91 118.555C183.864 119.481 180.936 118.925 180.488 118.316C179.534 117.016 178.722 115.441 179.4 114.175C180.687 111.898 182.507 109.966 184.703 108.544C193.455 102.821 203.137 101.758 213.155 104.032C220.73 105.747 227.447 115.642 226.09 123.985Z" fill="#6B9080"/>
<path d="M98.6611 128.999C100.101 130.065 101.398 132.646 101.144 134.301C100.866 135.276 100.364 136.173 99.6794 136.92C98.9946 137.668 98.1455 138.246 97.1988 138.609C90.5798 140.496 83.8502 140.44 77.5347 137.275C75.1844 136.103 73.0267 134.371 73.4689 131.156C73.8973 128.042 76.1737 126.582 78.8452 126.154C82.6805 125.541 96.3648 127.299 98.6611 128.999Z" fill="#6B9080"/>
<path d="M207.882 155.064C203.795 152.443 203.619 147.532 207.706 144.988C210.045 143.569 212.71 142.782 215.445 142.701C218.314 142.651 221.271 143.608 224.075 144.497C226.807 145.363 229.197 146.907 229.324 150.26C229.477 151.759 229.102 153.264 228.262 154.514C227.422 155.765 226.172 156.683 224.728 157.109C221.542 158.085 209.917 156.37 207.882 155.064Z" fill="#6B9080"/>
<path d="M45.5101 89.2237C27.6187 126.759 29.5146 163.376 51.1609 198.072C51.7261 198.97 52.3039 199.871 52.8882 200.744C64.7085 218.407 81.2674 231.149 94.5627 240.367C100.267 244.331 131.654 253.994 140.58 254.421C193.628 256.938 233.293 234.598 254.737 188.321C258.879 179.244 261.936 169.711 263.844 159.918C268.467 136.874 264.072 108.148 248.033 84.1067C246.309 81.9939 244.605 79.8217 242.959 77.7174C239.385 73.1613 235.693 68.4455 231.682 64.253C201.068 32.1608 164.13 24.6945 124.175 30.5764C88.0006 35.8941 61.5356 55.6308 45.5101 89.2237ZM121.972 42.4412C157.418 35.3232 190.752 39.4336 218.76 66.1667C223.88 71.0587 237.001 86.781 239.084 89.1648L239.219 89.3126L239.321 89.4834C249.195 105.22 258.707 132.299 253.452 157.158C251.237 167.793 247.693 178.107 242.906 187.859C228.901 215.835 205.165 233.542 170.345 241.969C134.844 251.068 91.4532 226.156 80.6992 215.538C68.8769 203.477 59.2164 189.474 52.1399 174.141C41.1582 149.504 43.8904 117.76 57.7204 90.9862C64.158 78.6348 73.2635 67.8706 84.3766 59.4741C95.4897 51.0777 108.332 45.2594 121.972 42.4412Z" fill="#6B9080"/>
</g>
<g opacity="0.8">
<path d="M125.048 182.745C118.247 181.397 108.95 176.271 100.658 169.275C96.0742 165.401 92.3753 160.767 90.7975 154.805C90.2569 153.253 90.08 151.597 90.2803 149.966C90.6311 148.42 90.9733 146.979 92.6148 146.629C93.4338 146.514 94.2687 146.633 95.0233 146.971C95.7779 147.31 96.4214 147.855 96.8798 148.543C98.3608 150.675 98.817 153.594 100.482 155.506C111.791 168.503 125.675 175.962 143.412 174.104C151.677 173.237 158.164 168.837 163.614 162.76C164.927 161.295 166.053 159.326 167.709 158.59C169.565 157.765 172.555 157.192 173.89 158.142C175.226 159.091 175.844 162.189 175.487 164.104C175.097 166.184 173.475 168.22 171.955 169.876C160.274 182.614 145.89 187.051 125.048 182.745Z" fill="#A4C3B2"/>
<path d="M101.461 84.5321C112.623 86.4878 118.646 91.5184 123.094 98.671C123.889 99.9196 124.429 101.314 124.681 102.773C125.269 106.701 122.021 109.345 118.528 107.436C116.038 105.891 113.88 103.867 112.179 101.482C107.963 96.0692 102.659 93.8012 95.8229 94.2901C85.7703 95.0087 77.2546 98.3151 71.4769 107.089C70.1614 109.086 68.335 110.817 65.72 109.335C62.9288 107.753 63.1468 104.849 64.5665 102.846C67.3774 98.8828 70.2891 94.691 74.075 91.7792C82.8715 85.0178 93.2988 83.8656 101.461 84.5321Z" fill="#A4C3B2"/>
<path d="M214.144 119.588C213.507 120.157 212.246 122.186 210.768 122.359C209.835 122.352 208.915 122.14 208.071 121.74C207.229 121.339 206.484 120.759 205.89 120.04C204.551 118.298 204.079 115.86 203.368 113.677C202.965 112.15 202.093 110.789 200.873 109.786C199.653 108.783 198.148 108.19 196.572 108.09C187.95 107.14 179.86 108.065 172.964 114.158C171.918 115.084 168.99 114.528 168.542 113.919C167.588 112.619 166.776 111.045 167.454 109.778C168.741 107.501 170.561 105.569 172.757 104.147C181.509 98.4244 191.191 97.3607 201.209 99.635C208.784 101.35 215.501 111.245 214.144 119.588Z" fill="#A4C3B2"/>
<path d="M86.7151 124.602C88.1548 125.668 89.4515 128.249 89.1981 129.904C88.9196 130.879 88.4181 131.776 87.7334 132.523C87.0486 133.271 86.1995 133.849 85.2527 134.212C78.6338 136.099 71.9041 136.044 65.5887 132.879C63.2384 131.706 61.0806 129.974 61.5229 126.759C61.9512 123.645 64.2277 122.185 66.8992 121.757C70.7344 121.144 84.4187 122.902 86.7151 124.602Z" fill="#A4C3B2"/>
<path d="M195.935 150.667C191.849 148.046 191.673 143.135 195.76 140.591C198.099 139.173 200.764 138.385 203.498 138.305C206.368 138.254 209.325 139.211 212.129 140.1C214.861 140.966 217.251 142.51 217.378 145.864C217.531 147.362 217.156 148.867 216.316 150.117C215.476 151.368 214.226 152.286 212.782 152.712C209.596 153.688 197.971 151.973 195.935 150.667Z" fill="#A4C3B2"/>
<path d="M33.564 84.8268C15.6727 122.362 17.5685 158.979 39.2148 193.676C39.78 194.573 40.3579 195.474 40.9421 196.347C52.7624 214.011 69.3214 226.752 82.6167 235.97C88.3214 239.934 119.708 249.597 128.634 250.024C181.682 252.541 221.347 230.201 242.791 183.924C246.933 174.847 249.99 165.314 251.898 155.521C256.521 132.477 252.126 103.751 236.087 79.7098C234.363 77.597 232.659 75.4248 231.013 73.3205C227.439 68.7644 223.747 64.0485 219.736 59.8561C189.122 27.7639 152.184 20.2976 112.228 26.1795C76.0546 31.4971 49.5896 51.2339 33.564 84.8268ZM110.026 38.0443C145.472 30.9263 178.806 35.0367 206.814 61.7698C211.934 66.6618 225.055 82.3841 227.138 84.7679L227.273 84.9157L227.375 85.0865C237.249 100.823 246.761 127.903 241.506 152.761C239.291 163.396 235.747 173.71 230.96 183.462C216.955 211.438 193.219 229.145 158.399 237.572C122.898 246.671 79.5071 221.759 68.7531 211.141C56.9309 199.08 47.2703 185.077 40.1938 169.744C29.2121 145.107 31.9444 113.363 45.7743 86.5893C52.2119 74.2379 61.3175 63.4737 72.4306 55.0772C83.5437 46.6808 96.3861 40.8625 110.026 38.0443Z" fill="#A4C3B2"/>
</g>
</svg>
