<svg width="18" height="18" viewBox="0 0 18 18" fill="none" xmlns="http://www.w3.org/2000/svg">
<path d="M2.08516 8.7051H3.13925M2.24878 10.4456L3.22021 10.1622M2.77497 12.0646L3.70592 11.5384M3.70592 13.4813L4.51544 12.7527M5.00116 14.5741L5.64878 13.6837M7.1464 2.43129C7.1464 2.43129 8.27973 2.07765 9.57497 2.22891C10.8702 2.38017 11.8416 2.95748 11.8416 2.95748M12.894 3.56463L13.5012 4.09082M16.8607 8.78605C16.8607 13.3017 13.2001 16.9622 8.68449 16.9622C7.14793 16.9622 5.71037 16.5384 4.48235 15.8012C4.43031 15.77 4.36865 15.7585 4.30903 15.7699L1.54335 16.2993C1.35997 16.3345 1.20721 16.1581 1.26812 15.9816L2.04368 13.7341C2.06967 13.6588 2.05688 13.5757 2.01081 13.5108C1.06453 12.1766 0.508301 10.5463 0.508301 8.78605C0.508301 4.27047 4.1689 0.609863 8.68449 0.609863C13.2001 0.609863 16.8607 4.27047 16.8607 8.78605ZM7.91544 9.87891C7.13244 9.18288 6.73133 8.43391 6.59456 8.14271C6.55828 8.06547 6.57131 7.97579 6.6237 7.90843L7.30405 7.03369C7.35685 6.96582 7.36981 6.87508 7.33813 6.79514L6.60003 4.93231C6.56334 4.83971 6.47384 4.77891 6.37426 4.77891H5.54806C5.48302 4.77891 5.42113 4.80452 5.37689 4.8522C5.16969 5.07548 4.56079 5.76804 4.40172 6.35748C4.22929 6.99648 4.45347 7.97144 4.50523 8.17948C4.51193 8.20639 4.52321 8.23062 4.5391 8.25336C4.69603 8.47787 5.60203 9.76024 6.2964 10.4456C7.05243 11.1917 8.07576 11.9608 9.0083 12.4694C9.84381 12.9251 10.7149 13.0177 10.9106 13.0332C10.9377 13.0354 10.964 13.0322 10.99 13.0243C11.2438 12.9469 12.6609 12.4982 12.894 12.0646C13.09 11.7002 13.0809 11.0885 13.0658 10.8207C13.0611 10.738 13.0111 10.666 12.9369 10.6289L11.1267 9.72389C11.0243 9.67264 10.9001 9.69993 10.8285 9.78938L10.0527 10.7592C10.0065 10.8168 9.93723 10.8502 9.86397 10.8419C9.57513 10.8093 8.78366 10.6506 7.91544 9.87891Z" stroke="#6B9080" stroke-linecap="round"/>
</svg>
