<svg width="26" height="25" viewBox="0 0 26 25" fill="none" xmlns="http://www.w3.org/2000/svg">
<g clip-path="url(#clip0_123_2373)">
<path d="M24.9456 1.03702C24.9455 1.04118 24.9453 1.04535 24.9452 1.04953C24.9247 1.6652 24.8391 2.48479 24.5832 3.31837C24.3274 4.15181 23.9074 4.98056 23.2302 5.63919C22.559 6.29196 21.61 6.80257 20.2474 6.96826L18.8069 7.14342L20.0496 7.89277C20.2236 7.99773 20.6171 8.15611 21.1181 8.2311C21.3847 8.271 21.6915 8.28883 22.0215 8.25929C21.9127 8.36978 21.7823 8.48853 21.6299 8.6111C20.8529 9.23616 19.6043 9.88027 18.0583 10.0042L18.0401 10.0057L18.022 10.0085C17.8409 10.0365 17.6659 10.0748 17.5309 10.1387C17.4721 10.1665 17.3445 10.2333 17.2572 10.3725C17.207 10.4525 17.1696 10.5582 17.1741 10.6805C17.1785 10.8002 17.2216 10.8968 17.2671 10.9646C17.3478 11.0848 17.4574 11.1477 17.5102 11.1753C17.5752 11.2093 17.6434 11.2342 17.7045 11.2531C17.828 11.2912 17.9744 11.3201 18.1266 11.3412C18.4334 11.3838 18.817 11.4018 19.1985 11.378C19.2193 11.3767 19.2402 11.3753 19.2613 11.3737C19.1217 11.5126 18.9564 11.6621 18.7662 11.8156C17.8113 12.5861 16.3293 13.3763 14.5879 13.43C13.0813 13.4763 12.0381 14.331 11.1856 15.4828C10.573 16.3104 10.0162 17.3538 9.43708 18.4391C9.22772 18.8314 9.01544 19.2292 8.79653 19.6243C8.61219 19.9564 8.42302 20.1077 8.293 20.1666C8.16896 20.2228 8.09459 20.201 8.05779 20.1798C8.00921 20.1517 7.75582 19.8947 8.10481 19.24L8.10496 19.2401L8.11082 19.2284L7.66359 19.0048L8.11086 19.2283L8.11096 19.2281L8.11136 19.2273L8.11298 19.2241L8.1194 19.2112L8.14453 19.161L8.24063 18.9689L8.58941 18.2721C8.88133 17.6893 9.2784 16.8973 9.69908 16.0603C10.5417 14.384 11.4753 12.5346 11.8507 11.8201L11.8581 11.8061L11.8645 11.7918L11.8645 11.7918L11.8646 11.7916L11.8647 11.7913L11.866 11.7884L11.872 11.7752C11.8776 11.7631 11.8861 11.7446 11.8976 11.72C11.9206 11.6708 11.9555 11.5973 12.0019 11.5025C12.0949 11.3129 12.2342 11.0383 12.4174 10.7027C12.7841 10.0307 13.3252 9.11742 14.0214 8.15249C15.4262 6.20577 17.4101 4.12331 19.8105 3.31098L24.9456 1.03702ZM24.9456 1.03702C24.8619 1.09231 24.7707 1.15027 24.6713 1.21082C23.8135 1.73341 22.3349 2.45681 19.8105 3.31097L24.9456 1.03702Z" stroke="#6B9080"/>
<path d="M13 5.5H6C4.34315 5.5 3 6.84315 3 8.5V20.6611C3 22.318 4.34315 23.6611 6 23.6611H19C20.6569 23.6611 22 22.318 22 20.6611V11" stroke="#6B9080"/>
</g>
<defs>
<clipPath id="clip0_123_2373">
<rect width="25" height="25" fill="white" transform="translate(0.75)"/>
</clipPath>
</defs>
</svg>
